<svg width="72" height="72" viewBox="0 0 72 72" fill="none" xmlns="http://www.w3.org/2000/svg">
<path d="M26.8309 37.438V7.3103L6.70605 21.7192L26.8309 37.438Z" fill="#FAB094"/>
<path d="M45.05 64.8269V34.6992L65.1748 49.1081L45.05 64.8269Z" fill="#EF5E7F"/>
<path d="M65.9842 49.3877L45.6126 33.347C45.0318 32.8899 44.174 33.3035 44.174 34.0453V44.3851H29.8261C29.3351 44.3851 28.9373 44.7829 28.9373 45.2739C28.9373 45.7649 29.3351 46.1627 29.8261 46.1627H45.0627C45.5536 46.1627 45.9515 45.7649 45.9515 45.2739V35.8764L63.976 50.0691L45.7911 63.7077V54.738C45.7911 54.247 45.3932 53.8492 44.9023 53.8492H24.3703C16.3783 53.8492 11.5484 49.1135 10.0313 41.3905C10.5597 41.8399 11.2007 42.3278 11.9609 42.8145C17.4209 46.3088 23.1005 46.1628 26.3303 46.1628C26.8213 46.1628 27.2192 45.765 27.2192 45.274C27.2192 44.783 26.8213 44.3852 26.3303 44.3852C23.81 44.3852 18.2177 44.6668 12.9994 41.3684C10.6383 39.8758 9.54794 38.3607 9.53889 38.3481C9.03518 37.6287 7.89843 38.0038 7.92224 38.8817C7.92677 39.052 8.05823 43.0973 10.1222 47.1975C12.0579 51.0429 16.101 55.6268 24.37 55.6268H44.0133V65.4852C44.0133 66.2167 44.8508 66.6345 45.4354 66.1963L65.9674 50.7972C66.1882 50.6317 66.3197 50.3727 66.3228 50.0967C66.3262 49.8203 66.2011 49.5584 65.9842 49.3877Z" fill="#3B3B58"/>
<path d="M61.8771 24.5826C59.9413 20.7372 55.8981 16.1533 47.6291 16.1533H45.3491C44.8581 16.1533 44.4602 16.5512 44.4602 17.0421C44.4602 17.5331 44.8581 17.9309 45.3491 17.9309H47.6291C55.6214 17.9309 60.4511 22.6668 61.9682 30.3896C58.0568 27.0633 52.822 25.6174 47.6291 25.6174H26.9367C26.4457 25.6174 26.0479 26.0153 26.0479 26.5062V35.9037L8.02357 21.7111L26.2084 8.07243V17.0421C26.2084 17.5331 26.6062 17.9309 27.0972 17.9309H41.972C42.463 17.9309 42.8609 17.5331 42.8609 17.0421C42.8609 16.5512 42.463 16.1533 41.972 16.1533H27.9859V6.2949C27.9859 5.56434 27.1491 5.14493 26.5638 5.58387L6.03194 20.983C5.56525 21.333 5.55716 22.0314 6.01538 22.3923L26.3869 38.4328C26.9693 38.8914 27.8255 38.4746 27.8255 37.7347V27.3949H47.6291C53.0826 27.3949 56.8228 29.0357 59 30.4118C61.3611 31.9043 62.4514 33.4194 62.4605 33.432C62.9638 34.1513 64.1009 33.7763 64.0771 32.8984C64.0726 32.7281 63.941 28.6828 61.8771 24.5826Z" fill="#3B3B58"/>
</svg>
