<svg width="82" height="78" viewBox="0 0 82 78" fill="none" xmlns="http://www.w3.org/2000/svg">
<g filter="url(#filter0_d_1519_4487)">
<rect x="13" y="9" width="55.1034" height="51.6594" rx="7.74891" fill="white" shape-rendering="crispEdges"/>
<path d="M26.6769 20.6152C22.9769 20.2807 22.6125 22.7059 22.8928 23.9603L41.3927 23.9603C51.1472 23.9603 50.2222 21.7302 48.5404 20.6152H42.654C38.87 20.7546 30.3769 20.9497 26.6769 20.6152Z" fill="#FAB094"/>
<path d="M22.0518 37.5211V23.563C22.1934 21.5371 23.7825 20.0408 25.8291 20.0286C27.0696 20.021 28.3083 20.0166 29.545 20.0157C29.5496 20.0157 29.5542 20.0148 29.5585 20.013C29.5628 20.0112 29.5667 20.0086 29.57 20.0054C29.5733 20.0021 29.5759 19.9982 29.5777 19.9939C29.5795 19.9897 29.5804 19.9851 29.5804 19.9805C29.5797 19.4695 29.5081 18.7853 29.6743 18.3311C30.1708 16.9757 32.1465 17.016 32.552 18.4131C32.6741 18.8356 32.6192 19.5047 32.6141 19.9913C32.614 19.9946 32.6146 19.998 32.6158 20.0011C32.617 20.0042 32.6189 20.0071 32.6213 20.0095C32.6236 20.0119 32.6264 20.0138 32.6296 20.0151C32.6327 20.0165 32.636 20.0171 32.6394 20.0171H43.4792C43.5014 20.0171 43.5125 20.0061 43.5125 19.9841C43.5038 19.1475 43.3427 18.0918 44.2055 17.5693C45.3191 16.8945 46.5975 17.7332 46.5599 18.9858C46.5503 19.3159 46.5452 19.6463 46.5448 19.9769C46.5448 20.0032 46.558 20.0164 46.5845 20.0164C47.8082 20.0174 49.0312 20.0181 50.2534 20.0186C52.3882 20.0186 54.0481 21.632 54.0546 23.7643C54.0647 27.3164 54.0698 30.8686 54.0698 34.4207C54.0698 34.6167 54.038 34.764 53.9744 34.8627C53.6976 35.2932 52.9858 35.0941 52.9858 34.5803C52.9853 31.9332 52.9851 29.2884 52.9851 26.6461C52.9851 26.6255 52.975 26.6152 52.9547 26.6152C51.9878 26.6172 51.0238 26.6174 50.0626 26.616C49.8266 26.6155 49.6577 26.587 49.5561 26.5304C49.2381 26.3544 49.2338 25.8017 49.5618 25.6163C49.6529 25.565 49.7936 25.5394 49.9839 25.5394C50.9696 25.5389 51.955 25.5384 52.9403 25.5379C52.9644 25.5379 52.9766 25.526 52.9771 25.502C52.9959 24.5323 52.9966 23.8814 52.9793 23.5494C52.92 22.4225 52.0044 21.3768 50.8814 21.1541C50.6887 21.1157 50.2084 21.0961 49.4404 21.0951C48.4894 21.0942 47.5384 21.0942 46.5874 21.0951C46.5609 21.0951 46.5476 21.1083 46.5476 21.1347C46.544 21.6248 46.5982 22.2716 46.4826 22.6719C46.0758 24.0855 44.0436 24.1135 43.5855 22.72C43.4438 22.2903 43.5082 21.6018 43.5125 21.1167C43.5125 21.111 43.5102 21.1055 43.5061 21.1014C43.5021 21.0974 43.4966 21.0951 43.4908 21.0951H32.6394C32.6335 21.0951 32.6278 21.0975 32.6236 21.1017C32.6194 21.1058 32.617 21.1115 32.617 21.1174C32.6175 21.5088 32.6139 21.8941 32.6062 22.273C32.5715 23.9339 30.2727 24.3198 29.6787 22.7826C29.511 22.3499 29.5761 21.6327 29.5804 21.1246C29.5805 21.1209 29.5798 21.1171 29.5784 21.1137C29.577 21.1102 29.5749 21.107 29.5722 21.1043C29.5695 21.1016 29.5663 21.0995 29.5627 21.0981C29.5592 21.0966 29.5553 21.0959 29.5515 21.0958C28.3427 21.0954 27.1316 21.0939 25.918 21.0915C24.352 21.0887 23.1292 22.2328 23.1329 23.8002C23.1343 24.3747 23.1357 24.9436 23.1372 25.507C23.1372 25.5154 23.1405 25.5235 23.1465 25.5294C23.1525 25.5353 23.1606 25.5387 23.169 25.5387C31.2531 25.5382 39.3305 25.5382 47.4011 25.5387C47.5972 25.5387 47.7449 25.5703 47.8441 25.6335C48.2726 25.9081 48.0732 26.6167 47.5615 26.6167C39.4317 26.6167 31.2994 26.6167 23.1646 26.6167C23.1454 26.6167 23.1357 26.626 23.1357 26.6447C23.1362 30.1911 23.1362 33.7392 23.1357 37.2889C23.1357 37.6288 23.0273 37.9357 22.666 37.9752C22.348 38.0107 22.1433 37.8593 22.0518 37.5211ZM31.5331 18.8371C31.5332 18.7819 31.5224 18.7272 31.5012 18.6762C31.4801 18.6251 31.449 18.5787 31.4098 18.5396C31.3706 18.5005 31.3241 18.4695 31.2728 18.4482C31.2216 18.427 31.1666 18.416 31.1111 18.416L31.0923 18.4159C31.0368 18.4158 30.9818 18.4266 30.9305 18.4476C30.8791 18.4687 30.8325 18.4996 30.7932 18.5385C30.7538 18.5775 30.7226 18.6238 30.7013 18.6748C30.68 18.7257 30.6689 18.7804 30.6688 18.8356L30.6628 22.2522C30.6627 22.3074 30.6736 22.3621 30.6947 22.4131C30.7159 22.4641 30.7469 22.5105 30.7861 22.5497C30.8253 22.5888 30.8719 22.6198 30.9231 22.641C30.9744 22.6622 31.0293 22.6732 31.0848 22.6733L31.1036 22.6733C31.1591 22.6734 31.2141 22.6627 31.2655 22.6416C31.3168 22.6206 31.3635 22.5897 31.4028 22.5507C31.4421 22.5118 31.4733 22.4655 31.4947 22.4145C31.516 22.3635 31.527 22.3089 31.5271 22.2537L31.5331 18.8371ZM45.4638 18.8371C45.4639 18.7819 45.453 18.7272 45.4319 18.6762C45.4107 18.6251 45.3797 18.5787 45.3405 18.5396C45.3013 18.5005 45.2547 18.4695 45.2035 18.4482C45.1522 18.427 45.0973 18.416 45.0418 18.416L45.023 18.4159C44.9674 18.4158 44.9125 18.4266 44.8611 18.4476C44.8098 18.4687 44.7631 18.4996 44.7238 18.5385C44.6845 18.5775 44.6533 18.6238 44.6319 18.6748C44.6106 18.7257 44.5996 18.7804 44.5995 18.8356L44.5935 22.2522C44.5934 22.3074 44.6042 22.3621 44.6254 22.4131C44.6465 22.4641 44.6776 22.5105 44.7168 22.5497C44.756 22.5888 44.8025 22.6198 44.8538 22.641C44.905 22.6622 44.96 22.6732 45.0155 22.6733L45.0343 22.6733C45.0898 22.6734 45.1448 22.6627 45.1961 22.6416C45.2474 22.6206 45.2941 22.5897 45.3334 22.5507C45.3728 22.5118 45.404 22.4655 45.4253 22.4145C45.4466 22.3635 45.4577 22.3089 45.4578 22.2537L45.4638 18.8371Z" fill="#3B3B58"/>
<path d="M41.2712 33.6855C41.271 33.8197 41.2441 33.9525 41.1923 34.0764C41.1404 34.2003 41.0645 34.3128 40.9689 34.4076C40.8734 34.5023 40.7599 34.5774 40.6352 34.6285C40.5104 34.6797 40.3767 34.7059 40.2418 34.7056L37.8773 34.7015C37.7423 34.7013 37.6087 34.6746 37.4841 34.623C37.3596 34.5715 37.2464 34.496 37.1512 34.4009C37.0559 34.3059 36.9804 34.1931 36.929 34.069C36.8775 33.9449 36.8512 33.812 36.8514 33.6778L36.8556 31.3263C36.8558 31.1921 36.8826 31.0593 36.9345 30.9354C36.9863 30.8115 37.0622 30.6989 37.1578 30.6042C37.2534 30.5095 37.3668 30.4344 37.4916 30.3833C37.6163 30.3321 37.75 30.3059 37.885 30.3061L40.2495 30.3102C40.3844 30.3105 40.518 30.3371 40.6426 30.3887C40.7672 30.4403 40.8804 30.5158 40.9756 30.6108C41.0709 30.7059 41.1464 30.8187 41.1978 30.9428C41.2492 31.0668 41.2756 31.1998 41.2753 31.334L41.2712 33.6855ZM40.1886 31.4149C40.1886 31.4073 40.1855 31.4 40.1801 31.3946C40.1747 31.3892 40.1673 31.3862 40.1596 31.3862H37.9671C37.9594 31.3862 37.9521 31.3892 37.9467 31.3946C37.9412 31.4 37.9382 31.4073 37.9382 31.4149V33.5925C37.9382 33.6001 37.9412 33.6075 37.9467 33.6128C37.9521 33.6182 37.9594 33.6213 37.9671 33.6213H40.1596C40.1673 33.6213 40.1747 33.6182 40.1801 33.6128C40.1855 33.6075 40.1886 33.6001 40.1886 33.5925V31.4149Z" fill="#3B3B58"/>
<path d="M45.1971 49.4665C41.1607 44.7834 43.7956 39.9888 45.6175 38.1769C48.12 48.6302 55.688 47.3758 55.6881 50.3028C54.4268 51.139 49.2334 54.1496 45.1971 49.4665Z" fill="#EF5E7F"/>
<path d="M30.1718 33.6855C30.1716 33.8197 30.1448 33.9525 30.0929 34.0764C30.0411 34.2003 29.9652 34.3128 29.8696 34.4076C29.774 34.5023 29.6606 34.5774 29.5358 34.6285C29.4111 34.6797 29.2774 34.7059 29.1424 34.7056L26.7779 34.7015C26.643 34.7013 26.5094 34.6746 26.3848 34.623C26.2602 34.5715 26.1471 34.496 26.0518 34.4009C25.9565 34.3059 25.8811 34.1931 25.8296 34.069C25.7782 33.9449 25.7519 33.812 25.7521 33.6778L25.7562 31.3263C25.7565 31.1921 25.7833 31.0593 25.8351 30.9354C25.887 30.8115 25.9629 30.6989 26.0585 30.6042C26.1541 30.5095 26.2675 30.4344 26.3922 30.3833C26.517 30.3321 26.6507 30.3059 26.7856 30.3061L29.1501 30.3102C29.2851 30.3105 29.4187 30.3371 29.5433 30.3887C29.6679 30.4403 29.781 30.5158 29.8763 30.6108C29.9715 30.7059 30.047 30.8187 30.0984 30.9428C30.1499 31.0668 30.1762 31.1998 30.176 31.334L30.1718 33.6855ZM29.0892 31.4149C29.0892 31.4073 29.0862 31.4 29.0807 31.3946C29.0753 31.3892 29.068 31.3862 29.0603 31.3862H26.8678C26.8601 31.3862 26.8527 31.3892 26.8473 31.3946C26.8419 31.4 26.8389 31.4073 26.8389 31.4149V33.5925C26.8389 33.6001 26.8419 33.6075 26.8473 33.6128C26.8527 33.6182 26.8601 33.6213 26.8678 33.6213H29.0603C29.068 33.6213 29.0753 33.6182 29.0807 33.6128C29.0862 33.6075 29.0892 33.6001 29.0892 33.5925V31.4149Z" fill="#3B3B58"/>
<path d="M47.4425 33.6785C47.4428 33.8126 47.4164 33.9455 47.3651 34.0695C47.3137 34.1934 47.2382 34.3062 47.143 34.4012C47.0478 34.4961 46.9348 34.5716 46.8103 34.6231C46.6858 34.6746 46.5523 34.7013 46.4174 34.7015L44.0515 34.7056C43.9166 34.7059 43.783 34.6797 43.6584 34.6286C43.5337 34.5775 43.4203 34.5024 43.3248 34.4078C43.2293 34.3131 43.1535 34.2007 43.1016 34.0769C43.0498 33.953 43.023 33.8203 43.0228 33.6862L43.0187 31.3333C43.0184 31.1992 43.0447 31.0663 43.0961 30.9423C43.1475 30.8183 43.223 30.7056 43.3182 30.6106C43.4133 30.5156 43.5264 30.4402 43.6509 30.3887C43.7754 30.3371 43.9089 30.3105 44.0438 30.3102L46.4097 30.3061C46.5446 30.3059 46.6782 30.3321 46.8028 30.3832C46.9275 30.4343 47.0409 30.5093 47.1364 30.604C47.2319 30.6987 47.3077 30.8111 47.3596 30.9349C47.4114 31.0587 47.4382 31.1915 47.4384 31.3256L47.4425 33.6785ZM46.3536 31.4135C46.3536 31.4061 46.3506 31.3989 46.3454 31.3937C46.3401 31.3884 46.3329 31.3855 46.3254 31.3855H44.1329C44.1254 31.3855 44.1182 31.3884 44.113 31.3937C44.1077 31.3989 44.1047 31.4061 44.1047 31.4135V33.5925C44.1047 33.5999 44.1077 33.6071 44.113 33.6123C44.1182 33.6176 44.1254 33.6205 44.1329 33.6205H46.3254C46.3329 33.6205 46.3401 33.6176 46.3454 33.6123C46.3506 33.6071 46.3536 33.5999 46.3536 33.5925V31.4135Z" fill="#3B3B58"/>
<path d="M35.8209 33.6785C35.8211 33.8126 35.7948 33.9455 35.7434 34.0695C35.692 34.1934 35.6166 34.3062 35.5214 34.4012C35.4262 34.4961 35.3131 34.5716 35.1886 34.6231C35.0641 34.6746 34.9307 34.7013 34.7958 34.7015L32.4298 34.7056C32.295 34.7059 32.1614 34.6797 32.0367 34.6286C31.912 34.5775 31.7987 34.5024 31.7032 34.4078C31.6077 34.3131 31.5318 34.2007 31.48 34.0769C31.4282 33.953 31.4014 33.8203 31.4011 33.6862L31.397 31.3333C31.3968 31.1992 31.4231 31.0663 31.4745 30.9423C31.5259 30.8183 31.6013 30.7056 31.6965 30.6106C31.7917 30.5156 31.9048 30.4402 32.0293 30.3887C32.1538 30.3371 32.2873 30.3105 32.4221 30.3102L34.7881 30.3061C34.9229 30.3059 35.0565 30.3321 35.1812 30.3832C35.3059 30.4343 35.4192 30.5093 35.5147 30.604C35.6103 30.6987 35.6861 30.8111 35.7379 30.9349C35.7898 31.0587 35.8165 31.1915 35.8168 31.3256L35.8209 33.6785ZM34.732 31.4135C34.732 31.4061 34.729 31.3989 34.7237 31.3937C34.7184 31.3884 34.7113 31.3855 34.7038 31.3855H32.5112C32.5038 31.3855 32.4966 31.3884 32.4913 31.3937C32.486 31.3989 32.4831 31.4061 32.4831 31.4135V33.5925C32.4831 33.5999 32.486 33.6071 32.4913 33.6123C32.4966 33.6176 32.5038 33.6205 32.5112 33.6205H34.7038C34.7113 33.6205 34.7184 33.6176 34.7237 33.6123C34.729 33.6071 34.732 33.5999 34.732 33.5925V31.4135Z" fill="#3B3B58"/>
<path d="M29.9495 39.0707C29.9493 39.204 29.9226 39.3359 29.8711 39.4589C29.8197 39.5819 29.7443 39.6937 29.6494 39.7877C29.5545 39.8818 29.4418 39.9564 29.318 40.0071C29.1941 40.0579 29.0613 40.0839 28.9273 40.0837L26.5498 40.0796C26.2792 40.0791 26.0198 39.9717 25.8288 39.7811C25.6378 39.5905 25.5307 39.3322 25.5312 39.063L25.5353 36.7015C25.5356 36.5682 25.5622 36.4363 25.6137 36.3133C25.6652 36.1903 25.7405 36.0785 25.8354 35.9845C25.9304 35.8904 26.043 35.8159 26.1669 35.7651C26.2908 35.7143 26.4235 35.6883 26.5575 35.6885L28.935 35.6926C29.2057 35.6931 29.465 35.8005 29.656 35.9911C29.8471 36.1818 29.9541 36.44 29.9536 36.7092L29.9495 39.0707ZM28.8661 36.7909C28.8661 36.785 28.8638 36.7793 28.8596 36.7751C28.8554 36.7709 28.8497 36.7686 28.8437 36.7686H26.6411C26.6351 36.7686 26.6294 36.7709 26.6252 36.7751C26.621 36.7793 26.6187 36.785 26.6187 36.7909V38.9814C26.6187 38.9843 26.6193 38.9872 26.6204 38.9899C26.6215 38.9926 26.6232 38.995 26.6252 38.9971C26.6273 38.9992 26.6298 39.0008 26.6325 39.0019C26.6352 39.0031 26.6381 39.0036 26.6411 39.0036H28.8437C28.8467 39.0036 28.8496 39.0031 28.8523 39.0019C28.855 39.0008 28.8575 38.9992 28.8596 38.9971C28.8617 38.995 28.8633 38.9926 28.8644 38.9899C28.8656 38.9872 28.8661 38.9843 28.8661 38.9814V36.7909Z" fill="#3B3B58"/>
<path d="M35.6279 39.0671C35.6277 39.2007 35.601 39.333 35.5493 39.4564C35.4977 39.5798 35.4221 39.6918 35.3269 39.7862C35.2317 39.8805 35.1188 39.9553 34.9946 40.0062C34.8703 40.0571 34.7372 40.0832 34.6028 40.083L32.2296 40.0789C31.9582 40.0784 31.6982 39.9707 31.5066 39.7795C31.315 39.5884 31.2077 39.3293 31.2081 39.0594L31.2123 36.7051C31.2125 36.5715 31.2392 36.4392 31.2908 36.3158C31.3425 36.1924 31.4181 36.0804 31.5132 35.986C31.6084 35.8917 31.7214 35.8169 31.8456 35.766C31.9699 35.7151 32.103 35.689 32.2373 35.6892L34.6105 35.6933C34.8819 35.6938 35.142 35.8015 35.3336 35.9927C35.5252 36.1838 35.6325 36.4429 35.632 36.7128L35.6279 39.0671ZM34.5453 36.7908C34.5453 36.7849 34.5429 36.7793 34.5387 36.7751C34.5345 36.7709 34.5288 36.7686 34.5229 36.7686H32.3173C32.3114 36.7686 32.3057 36.7709 32.3015 36.7751C32.2973 36.7793 32.2949 36.7849 32.2949 36.7908V38.9814C32.2949 38.9843 32.2955 38.9872 32.2966 38.9899C32.2977 38.9926 32.2994 38.995 32.3015 38.9971C32.3036 38.9992 32.306 39.0008 32.3087 39.0019C32.3115 39.0031 32.3144 39.0036 32.3173 39.0036H34.5229C34.5258 39.0036 34.5287 39.0031 34.5314 39.0019C34.5342 39.0008 34.5366 38.9992 34.5387 38.9971C34.5408 38.995 34.5424 38.9926 34.5436 38.9899C34.5447 38.9872 34.5453 38.9843 34.5453 38.9814V36.7908Z" fill="#3B3B58"/>
<path d="M41.3078 39.0604C41.3078 39.3311 41.1996 39.5907 41.0072 39.7821C40.8148 39.9734 40.5537 40.081 40.2816 40.081H37.9113C37.7765 40.081 37.6431 40.0546 37.5186 40.0033C37.3941 39.952 37.281 39.8768 37.1857 39.7821C37.0904 39.6873 37.0148 39.5748 36.9632 39.451C36.9116 39.3272 36.8851 39.1945 36.8851 39.0604V36.7118C36.8851 36.5778 36.9116 36.4451 36.9632 36.3213C37.0148 36.1975 37.0904 36.085 37.1857 35.9902C37.281 35.8955 37.3941 35.8203 37.5186 35.769C37.6431 35.7177 37.7765 35.6913 37.9113 35.6913H40.2816C40.5537 35.6913 40.8148 35.7988 41.0072 35.9902C41.1996 36.1816 41.3078 36.4412 41.3078 36.7118V39.0604ZM40.2223 36.7938C40.2223 36.7871 40.2197 36.7807 40.2149 36.776C40.2102 36.7713 40.2037 36.7686 40.197 36.7686H37.9944C37.9911 36.7686 37.9878 36.7693 37.9847 36.7705C37.9816 36.7718 37.9788 36.7736 37.9765 36.776C37.9741 36.7783 37.9723 36.7811 37.971 36.7841C37.9697 36.7872 37.9691 36.7905 37.9691 36.7938V38.9785C37.9691 38.9818 37.9697 38.9851 37.971 38.9881C37.9723 38.9912 37.9741 38.994 37.9765 38.9963C37.9788 38.9986 37.9816 39.0005 37.9847 39.0018C37.9878 39.003 37.9911 39.0037 37.9944 39.0037H40.197C40.2037 39.0037 40.2102 39.001 40.2149 38.9963C40.2197 38.9916 40.2223 38.9852 40.2223 38.9785V36.7938Z" fill="#3B3B58"/>
<path d="M59.0518 43.7993V44.4109C58.8111 48.8544 55.1603 52.3781 50.6502 52.3292C45.1529 52.2688 41.2802 47.0678 42.7241 41.8057C43.6772 38.3324 46.9899 35.8149 50.6147 35.784C53.4577 35.7588 56.0679 37.1157 57.6462 39.4586C57.7729 39.6464 57.8372 39.8066 57.8391 39.9393C57.8449 40.3181 57.3333 40.5912 57.0117 40.3713C56.9462 40.3267 56.8518 40.2141 56.7284 40.0335C56.5776 39.8136 56.4155 39.602 56.2421 39.3989C56.2257 39.3797 56.2083 39.3788 56.19 39.396C55.9135 39.6629 55.7398 39.8344 55.669 39.9106C55.3792 40.2232 54.8979 40.1966 54.7252 39.7963C54.5294 39.34 55.1357 38.9124 55.4291 38.6242C55.4321 38.6212 55.4345 38.6176 55.4361 38.6137C55.4377 38.6097 55.4384 38.6055 55.4383 38.6012C55.4382 38.597 55.4371 38.5928 55.4353 38.589C55.4335 38.5851 55.4309 38.5817 55.4276 38.5789C54.2415 37.5852 52.8721 37.0208 51.3193 36.8857C51.2885 36.8828 51.2733 36.897 51.2738 36.9281C51.2781 37.2472 51.3403 37.8128 51.1661 38.0571C50.8344 38.5228 50.1811 38.216 50.1855 37.6705C50.1879 37.4151 50.1896 37.1672 50.1905 36.9267C50.1906 36.9208 50.1894 36.915 50.187 36.9096C50.1846 36.9042 50.1812 36.8993 50.1768 36.8954C50.1725 36.8914 50.1673 36.8883 50.1617 36.8864C50.1561 36.8845 50.1502 36.8838 50.1443 36.8843C48.5925 37.0237 47.2243 37.5907 46.0396 38.5854C46.0366 38.5878 46.0342 38.5908 46.0325 38.5942C46.0308 38.5977 46.0299 38.6014 46.0298 38.6053C46.0296 38.6092 46.0303 38.613 46.0318 38.6166C46.0332 38.6203 46.0354 38.6236 46.0382 38.6263C46.2644 38.8513 46.6929 39.1869 46.763 39.4794C46.8815 39.9724 46.2405 40.349 45.8792 39.9925C45.6725 39.7889 45.468 39.5858 45.2656 39.3831C45.2637 39.3811 45.2613 39.3795 45.2587 39.3785C45.2561 39.3775 45.2532 39.377 45.2504 39.3771C45.2475 39.3773 45.2447 39.378 45.2421 39.3793C45.2395 39.3806 45.2372 39.3823 45.2353 39.3845C44.2279 40.5679 43.6556 41.936 43.5183 43.4889C43.5178 43.4928 43.5183 43.4968 43.5196 43.5006C43.5208 43.5044 43.5229 43.5079 43.5257 43.5108C43.5284 43.5138 43.5317 43.5161 43.5354 43.5176C43.5391 43.5191 43.5431 43.5199 43.5472 43.5198C43.8049 43.5178 44.0651 43.515 44.3276 43.5111C45.1067 43.4996 45.111 44.6186 44.3276 44.5963C44.0704 44.5887 43.8129 44.5896 43.5551 44.5992C43.5286 44.6002 43.5166 44.6136 43.519 44.6394C43.6597 46.1836 44.2303 47.545 45.231 48.7236C45.2333 48.7265 45.2363 48.7287 45.2396 48.7303C45.2429 48.732 45.2465 48.7329 45.2503 48.733C45.254 48.7331 45.2578 48.7325 45.2613 48.7311C45.2648 48.7298 45.268 48.7277 45.2707 48.7251C45.4983 48.5001 45.8315 48.0912 46.1003 48.0007C46.4732 47.8756 46.8981 48.3047 46.7637 48.6755C46.6698 48.9335 46.2593 49.2691 46.0367 49.489C46.0343 49.4915 46.0324 49.4944 46.0311 49.4976C46.0299 49.5008 46.0293 49.5042 46.0295 49.5077C46.0296 49.5111 46.0304 49.5145 46.0319 49.5176C46.0334 49.5207 46.0355 49.5234 46.0382 49.5257C47.1518 50.4657 48.6701 51.1578 50.1515 51.2246C50.1771 51.2256 50.1898 51.2134 50.1898 51.188C50.1884 50.8957 50.1893 50.6061 50.1927 50.3191C50.1992 49.7003 51.2687 49.6514 51.2738 50.3981C51.2757 50.6688 51.276 50.9376 51.2745 51.2045C51.2745 51.2081 51.2753 51.2118 51.2767 51.2151C51.2782 51.2184 51.2803 51.2214 51.283 51.2239C51.2856 51.2263 51.2888 51.2282 51.2922 51.2293C51.2956 51.2304 51.2992 51.2308 51.3027 51.2304C52.8608 51.0938 54.2345 50.5265 55.424 49.5286C55.427 49.5261 55.4294 49.523 55.4311 49.5195C55.4328 49.516 55.4338 49.5122 55.4339 49.5083C55.434 49.5043 55.4334 49.5004 55.4319 49.4967C55.4305 49.4931 55.4283 49.4897 55.4255 49.4869C55.1957 49.2591 54.7635 48.9134 54.6905 48.6252C54.6016 48.273 54.9911 47.8943 55.3518 47.9978C55.6242 48.0768 55.9862 48.5159 56.1973 48.7316C56.1992 48.7336 56.2016 48.7351 56.2042 48.7361C56.2068 48.7372 56.2097 48.7376 56.2125 48.7375C56.2154 48.7374 56.2182 48.7366 56.2208 48.7354C56.2234 48.7341 56.2257 48.7323 56.2276 48.7301C57.235 47.5462 57.8076 46.1779 57.9454 44.6251C57.9458 44.6211 57.9453 44.617 57.944 44.6132C57.9427 44.6094 57.9406 44.6059 57.9378 44.6029C57.935 44.5999 57.9316 44.5975 57.9278 44.5959C57.924 44.5943 57.9199 44.5934 57.9157 44.5934C57.5884 44.5992 57.0218 44.6632 56.7573 44.4864C56.4531 44.283 56.4842 43.7253 56.8448 43.5708C57.0977 43.4623 57.6238 43.5169 57.9136 43.5169C57.9176 43.517 57.9216 43.5163 57.9253 43.5147C57.929 43.5131 57.9323 43.5108 57.9351 43.5078C57.9378 43.5048 57.9399 43.5012 57.9412 43.4973C57.9424 43.4935 57.9429 43.4893 57.9425 43.4853C57.9097 43.0857 57.8449 42.6902 57.7481 42.2987C57.7023 42.1143 57.6908 41.9741 57.7134 41.8783C57.842 41.3393 58.6102 41.3472 58.7584 41.8747C58.9217 42.4573 59.0195 43.0989 59.0518 43.7993Z" fill="#3B3B58"/>
<path d="M22.0518 44.3707V39.6476C22.1481 39.3443 22.3331 39.1965 22.6068 39.2042C22.8633 39.2121 23.1343 39.4219 23.135 39.6828C23.1369 40.9405 23.1369 42.1979 23.135 43.4551C23.1341 44.1565 23.1661 44.6335 23.2311 44.886C23.4739 45.8281 24.2913 46.6064 25.2777 46.7976C25.454 46.8316 25.7375 46.8486 26.1283 46.8486C31.156 46.8496 36.184 46.8498 41.2123 46.8494C41.4069 46.8494 41.5512 46.876 41.6451 46.9291C41.9219 47.0872 41.9877 47.4609 41.7976 47.711C41.6719 47.8778 41.5107 47.9266 41.291 47.9266C36.1245 47.9276 30.958 47.9276 25.7915 47.9266C23.7645 47.9266 22.2028 46.3614 22.0518 44.3707Z" fill="#3B3B58"/>
<path d="M50.165 42.4849C50.172 42.4824 50.178 42.4777 50.1823 42.4715C50.1866 42.4653 50.1888 42.458 50.1888 42.4504C50.1883 41.7801 50.1893 41.1091 50.1917 40.4374C50.1939 39.621 51.2612 39.6382 51.2677 40.3792C51.273 41.0701 51.2759 41.759 51.2764 42.4461C51.2764 42.4543 51.2788 42.4624 51.2834 42.4693C51.2881 42.4762 51.2947 42.4816 51.3024 42.4849C52.2296 42.8478 52.6769 43.8525 52.257 44.7595C52.2522 44.7698 52.2506 44.7813 52.2525 44.7924C52.2545 44.8035 52.2598 44.8136 52.2679 44.8213C52.8552 45.4048 53.4441 45.9901 54.0348 46.577C54.5414 47.0801 53.818 47.8541 53.2977 47.3467C52.6988 46.7631 52.1009 46.1786 51.504 45.5931C51.4877 45.5768 51.4686 45.5728 51.4469 45.5809C50.7898 45.8233 50.2211 45.7642 49.7408 45.4034C48.6524 44.5848 48.901 42.9542 50.165 42.4849ZM51.3284 44.0566C51.3284 43.8996 51.2657 43.7489 51.154 43.6379C51.0424 43.5268 50.8909 43.4644 50.733 43.4644C50.575 43.4644 50.4236 43.5268 50.3119 43.6379C50.2002 43.7489 50.1375 43.8996 50.1375 44.0566C50.1375 44.2137 50.2002 44.3643 50.3119 44.4754C50.4236 44.5864 50.575 44.6488 50.733 44.6488C50.8909 44.6488 51.0424 44.5864 51.154 44.4754C51.2657 44.3643 51.3284 44.2137 51.3284 44.0566Z" fill="#3B3B58"/>
<path d="M29.9513 44.3779C29.9513 44.648 29.8435 44.907 29.6514 45.098C29.4594 45.2889 29.1989 45.3962 28.9273 45.3962H26.5585C26.2869 45.3962 26.0264 45.2889 25.8344 45.098C25.6424 44.907 25.5345 44.648 25.5345 44.3779V42.0206C25.5345 41.7505 25.6424 41.4915 25.8344 41.3005C26.0264 41.1096 26.2869 41.0023 26.5585 41.0023H28.9273C29.1989 41.0023 29.4594 41.1096 29.6514 41.3005C29.8435 41.4915 29.9513 41.7505 29.9513 42.0206V44.3779ZM28.8666 42.1047C28.8666 42.0982 28.8641 42.092 28.8594 42.0874C28.8548 42.0829 28.8486 42.0803 28.8421 42.0803H26.6437C26.6372 42.0803 26.631 42.0829 26.6264 42.0874C26.6218 42.092 26.6192 42.0982 26.6192 42.1047V44.2938C26.6192 44.3003 26.6218 44.3065 26.6264 44.3111C26.631 44.3156 26.6372 44.3182 26.6437 44.3182H28.8421C28.8486 44.3182 28.8548 44.3156 28.8594 44.3111C28.8641 44.3065 28.8666 44.3003 28.8666 44.2938V42.1047Z" fill="#3B3B58"/>
<path d="M35.632 44.3719C35.6323 44.5059 35.606 44.6386 35.5546 44.7626C35.5033 44.8865 35.4279 44.9991 35.3327 45.094C35.2376 45.1889 35.1246 45.2643 35.0002 45.3158C34.8758 45.3673 34.7424 45.3939 34.6077 45.3942L32.2402 45.3983C32.1055 45.3985 31.972 45.3724 31.8474 45.3213C31.7228 45.2702 31.6096 45.1952 31.5141 45.1006C31.4186 45.006 31.3429 44.8937 31.2911 44.7699C31.2393 44.6462 31.2125 44.5136 31.2123 44.3796L31.2081 42.0266C31.2079 41.8926 31.2342 41.7599 31.2856 41.636C31.3369 41.5121 31.4123 41.3994 31.5074 41.3045C31.6026 41.2096 31.7156 41.1342 31.84 41.0827C31.9644 41.0312 32.0978 41.0046 32.2325 41.0043L34.5999 41.0002C34.7347 41 34.8682 41.0262 34.9928 41.0772C35.1174 41.1283 35.2306 41.2033 35.3261 41.2979C35.4215 41.3925 35.4973 41.5048 35.5491 41.6286C35.6009 41.7523 35.6277 41.885 35.6279 42.019L35.632 44.3719ZM34.5453 42.1054C34.5453 42.0988 34.5426 42.0924 34.5379 42.0877C34.5331 42.0829 34.5267 42.0803 34.52 42.0803H32.3202C32.3135 42.0803 32.3071 42.0829 32.3023 42.0877C32.2976 42.0924 32.2949 42.0988 32.2949 42.1054V44.2931C32.2949 44.2997 32.2976 44.3061 32.3023 44.3109C32.3071 44.3156 32.3135 44.3182 32.3202 44.3182H34.52C34.5267 44.3182 34.5331 44.3156 34.5379 44.3109C34.5426 44.3061 34.5453 44.2997 34.5453 44.2931V42.1054Z" fill="#3B3B58"/>
<path d="M41.3053 44.3774C41.3048 44.6486 41.196 44.9086 41.0028 45.1C40.8096 45.2915 40.5479 45.3988 40.2752 45.3983L37.9092 45.3942C37.7741 45.3939 37.6405 45.3673 37.5158 45.3156C37.3911 45.264 37.2779 45.1885 37.1826 45.0934C37.0872 44.9983 37.0117 44.8854 36.9602 44.7612C36.9088 44.6371 36.8824 44.504 36.8826 44.3697L36.8868 42.0211C36.8872 41.7499 36.996 41.49 37.1892 41.2985C37.3824 41.1071 37.6442 40.9998 37.9169 41.0002L40.2829 41.0043C40.4179 41.0046 40.5516 41.0313 40.6763 41.0829C40.8009 41.1345 40.9142 41.21 41.0095 41.3051C41.1048 41.4003 41.1804 41.5131 41.2318 41.6373C41.2833 41.7615 41.3097 41.8945 41.3094 42.0288L41.3053 44.3774ZM40.2219 42.1098C40.2219 42.1019 40.2188 42.0944 40.2133 42.0889C40.2077 42.0834 40.2002 42.0803 40.1923 42.0803H37.9983C37.9905 42.0803 37.9829 42.0834 37.9774 42.0889C37.9718 42.0944 37.9687 42.1019 37.9687 42.1098V44.2888C37.9687 44.2966 37.9718 44.3041 37.9774 44.3096C37.9829 44.3151 37.9905 44.3182 37.9983 44.3182H40.1923C40.2002 44.3182 40.2077 44.3151 40.2133 44.3096C40.2188 44.3041 40.2219 44.2966 40.2219 44.2888V42.1098Z" fill="#3B3B58"/>
</g>
<defs>
<filter id="filter0_d_1519_4487" x="0.0851512" y="0.3901" width="80.9332" height="77.4891" filterUnits="userSpaceOnUse" color-interpolation-filters="sRGB">
<feFlood flood-opacity="0" result="BackgroundImageFix"/>
<feColorMatrix in="SourceAlpha" type="matrix" values="0 0 0 0 0 0 0 0 0 0 0 0 0 0 0 0 0 0 127 0" result="hardAlpha"/>
<feMorphology radius="6.02693" operator="erode" in="SourceAlpha" result="effect1_dropShadow_1519_4487"/>
<feOffset dy="4.30495"/>
<feGaussianBlur stdDeviation="9.47089"/>
<feComposite in2="hardAlpha" operator="out"/>
<feColorMatrix type="matrix" values="0 0 0 0 0.608333 0 0 0 0 0.565243 0 0 0 0 0.575417 0 0 0 0.18 0"/>
<feBlend mode="normal" in2="BackgroundImageFix" result="effect1_dropShadow_1519_4487"/>
<feBlend mode="normal" in="SourceGraphic" in2="effect1_dropShadow_1519_4487" result="shape"/>
</filter>
</defs>
</svg>
