<svg width="82" height="78" viewBox="0 0 82 78" fill="none" xmlns="http://www.w3.org/2000/svg">
<g filter="url(#filter0_d_1519_4533)">
<rect x="13" y="9" width="55.1034" height="51.6594" rx="7.74891" fill="white" shape-rendering="crispEdges"/>
<path d="M35.7102 16.8297H35.7406C36.985 16.9008 37.4768 17.8112 37.4713 18.9679C37.4698 19.3317 37.4648 19.6969 37.4566 20.0636C37.4564 20.0711 37.4577 20.0787 37.4603 20.0857C37.463 20.0928 37.467 20.0992 37.4721 20.1047C37.4772 20.1101 37.4833 20.1144 37.4901 20.1174C37.4968 20.1203 37.504 20.1218 37.5114 20.1218H38.8008C38.8102 20.1218 38.8194 20.1199 38.8281 20.1162C38.8367 20.1125 38.8446 20.1071 38.8511 20.1003C38.8577 20.0935 38.863 20.0854 38.8665 20.0765C38.87 20.0676 38.8718 20.058 38.8718 20.0484C38.8699 19.6874 38.8664 19.3369 38.8612 18.9968C38.8547 18.5885 38.8971 18.1631 39.0744 17.8031C39.3547 17.2334 39.8255 16.909 40.4868 16.8297H40.6779C41.0764 16.8638 41.4229 17.0061 41.7173 17.2565C42.2193 17.6838 42.3354 18.3521 42.3285 18.9968C42.3248 19.3533 42.3208 19.7099 42.3165 20.0664C42.3159 20.1056 42.3346 20.1247 42.3727 20.1237L43.6704 20.1C43.6786 20.0999 43.6867 20.0981 43.6942 20.0948C43.7017 20.0914 43.7084 20.0866 43.7141 20.0805C43.7198 20.0744 43.7243 20.0673 43.7273 20.0594C43.7303 20.0515 43.7318 20.0431 43.7317 20.0347C43.7229 19.353 43.646 18.4715 43.8947 17.8519C44.1388 17.2432 44.7098 16.879 45.3352 16.8297H45.502C45.8059 16.8521 46.0881 16.9417 46.3484 17.0983C47.0894 17.544 47.1948 18.3024 47.176 19.11C47.1692 19.3993 47.1551 19.6807 47.1336 19.9541C47.1319 19.9757 47.1346 19.9975 47.1415 20.018C47.1484 20.0385 47.1594 20.0573 47.1738 20.0732C47.1881 20.0891 47.2056 20.1018 47.225 20.1104C47.2444 20.119 47.2653 20.1234 47.2865 20.1232L48.5198 20.1161C48.5671 20.1161 48.5902 20.0918 48.5893 20.0432C48.5792 19.5056 48.5318 18.9504 48.6036 18.4274C48.7243 17.553 49.316 16.9543 50.1712 16.8297H50.4314C51.1061 16.906 51.731 17.3527 51.9268 18.0376C52.1041 18.6586 52.0387 19.3814 52.0387 20.0252C52.0387 20.045 52.0456 20.0641 52.0582 20.0791C52.0708 20.094 52.0882 20.1038 52.1073 20.1067C53.791 20.361 54.7829 21.424 55.0312 23.1444C55.0331 23.1577 55.0396 23.1698 55.0496 23.1785C55.0596 23.1872 55.0724 23.1919 55.0855 23.1918C55.5285 23.1842 55.9997 23.1586 56.4404 23.2022C57.2044 23.2775 57.7579 23.718 57.9776 24.4726C57.9917 24.5219 58.0165 24.6363 58.0518 24.816V24.9307C57.9684 25.5289 57.8261 25.9946 57.3481 26.3456C56.9585 26.6317 56.4998 26.7046 56.0139 26.7037C55.7284 26.703 55.418 26.6999 55.0827 26.6942C55.0358 26.6936 55.0123 26.7174 55.0123 26.7657V28.0674C55.0123 28.0862 55.0195 28.1042 55.0324 28.1175C55.0452 28.1308 55.0627 28.1383 55.0809 28.1384C55.453 28.1397 55.8254 28.1397 56.1981 28.1384C57.2573 28.1342 57.891 28.7936 58.0518 29.839V29.929C57.8841 31.7451 56.421 31.6859 55.0717 31.666C55.0639 31.6658 55.0562 31.6673 55.049 31.6703C55.0418 31.6732 55.0353 31.6777 55.0297 31.6833C55.0242 31.6889 55.0198 31.6955 55.0168 31.7029C55.0138 31.7103 55.0123 31.7182 55.0123 31.7261V33.0889C55.0123 33.0967 55.0138 33.1043 55.0166 33.1114C55.0195 33.1186 55.0238 33.125 55.0291 33.1305C55.0344 33.1359 55.0407 33.1402 55.0476 33.143C55.0545 33.1459 55.0619 33.1473 55.0694 33.1472C55.4347 33.1428 55.7999 33.1415 56.165 33.1434C56.4253 33.1447 56.6297 33.1655 56.7779 33.2059C57.5687 33.421 57.9131 33.9842 58.0518 34.7871V34.9022C58.0158 35.1441 57.9854 35.3058 57.9606 35.3872C57.693 36.2517 57.0087 36.6425 56.1466 36.6439C55.7907 36.6442 55.4363 36.6433 55.0832 36.6411C55.0739 36.641 55.0647 36.6428 55.0561 36.6465C55.0475 36.6501 55.0397 36.6554 55.0331 36.6621C55.0265 36.6689 55.0213 36.6769 55.0177 36.6857C55.0141 36.6945 55.0123 36.704 55.0123 36.7136V38.0617C55.0123 38.0762 55.0179 38.0902 55.0279 38.1005C55.0379 38.1108 55.0515 38.1166 55.0657 38.1166C55.4136 38.1166 55.7557 38.1168 56.0922 38.1171C56.9801 38.1176 57.7299 38.4368 57.9666 39.4027C58.0009 39.5432 58.0293 39.6869 58.0518 39.8337V39.9583C58.0211 40.1383 57.9854 40.2957 57.9449 40.4306C57.5539 41.7313 56.1415 41.6219 55.0998 41.6096C55.0415 41.6086 55.0123 41.6383 55.0123 41.6986V43.0249C55.0123 43.0422 55.0189 43.0587 55.0307 43.071C55.0426 43.0832 55.0586 43.0902 55.0754 43.0903C55.4579 43.0909 55.8356 43.0909 56.2083 43.0903C57.0943 43.0889 57.7957 43.5441 57.9919 44.4578C58.0057 44.5216 58.0257 44.638 58.0518 44.8069V44.9324C57.944 45.5553 57.7257 46.0267 57.1731 46.344C56.9241 46.4871 56.6797 46.5652 56.4399 46.5785C56.0027 46.6028 55.5568 46.6028 55.1021 46.5785C55.0811 46.5774 55.0605 46.584 55.0438 46.5971C55.0271 46.6102 55.0154 46.6289 55.0109 46.65C54.959 46.8929 54.9051 47.1434 54.8493 47.4018C54.8149 47.5612 54.7671 47.7007 54.706 47.82C54.1749 48.8618 53.3241 49.4677 52.1538 49.6376C52.152 49.6379 52.1403 49.6387 52.1188 49.6399C52.0632 49.6437 52.0359 49.6805 52.0368 49.7503C52.0399 49.9887 52.0371 50.2991 52.0285 50.6816C52.0187 51.1158 51.9865 51.4232 51.9318 51.6038C51.6592 52.5071 50.6985 53.0097 49.8194 52.7587C49.0439 52.5374 48.5898 51.8236 48.5884 50.9942C48.5881 50.5511 48.5879 50.1128 48.5879 49.6792C48.5879 49.6729 48.5867 49.6665 48.5843 49.6606C48.5819 49.6547 48.5784 49.6494 48.574 49.6449C48.5696 49.6404 48.5644 49.6369 48.5586 49.6345C48.5529 49.6321 48.5467 49.6309 48.5405 49.6309L47.2409 49.638C47.1896 49.6383 47.16 49.6644 47.152 49.7162C47.1235 49.8967 47.1649 50.0833 47.1612 50.2349C47.1516 50.6304 47.187 51.123 47.1041 51.4797C46.9469 52.1552 46.5553 52.5851 45.9293 52.7696C45.875 52.7857 45.746 52.8057 45.5425 52.8297H45.4683C44.5109 52.788 43.7566 52.1017 43.7432 51.0889C43.7371 50.6222 43.7314 50.1644 43.7262 49.7157C43.7259 49.6794 43.708 49.6612 43.6727 49.6612H42.3768C42.3381 49.6612 42.3186 49.6811 42.3183 49.7209C42.3179 50.0516 42.3188 50.3656 42.3285 50.709C42.3593 51.8066 41.8555 52.699 40.718 52.8297H40.4795C39.4939 52.707 38.9454 52.0159 38.875 51.0297C38.8501 50.6811 38.8538 50.3078 38.886 49.9099C38.8925 49.8327 38.8837 49.7702 38.8644 49.7001C38.8599 49.6845 38.8505 49.671 38.8378 49.6614C38.8251 49.6518 38.8097 49.6468 38.7939 49.647L37.5256 49.6693C37.508 49.6695 37.4912 49.677 37.4789 49.6899C37.4665 49.7029 37.4597 49.7203 37.4598 49.7384C37.4613 50.1164 37.4618 50.4877 37.4612 50.8521C37.4606 51.1243 37.4452 51.3179 37.4151 51.4328C37.2588 52.0309 36.9234 52.444 36.4089 52.672C35.4933 53.0774 34.383 52.608 34.109 51.6261C34.0596 51.4486 34.0307 51.1352 34.0224 50.6858C34.016 50.3577 34.0123 50.0317 34.0114 49.7077C34.0112 49.6954 34.0064 49.6837 33.998 49.6751C33.9895 49.6665 33.9781 49.6617 33.9662 49.6617L32.6574 49.6608C32.6369 49.6608 32.6172 49.6685 32.6019 49.6823C32.5865 49.6962 32.5766 49.7153 32.5741 49.7361C32.5556 49.8862 32.5856 50.0506 32.5851 50.1794C32.5837 50.5844 32.61 51.0742 32.5381 51.4323C32.1637 53.3034 29.6101 53.2376 29.2099 51.484C29.1706 51.3106 29.151 51.0215 29.151 50.6167C29.1513 50.3268 29.152 50.0356 29.1533 49.7432C29.1534 49.7205 29.1455 49.6985 29.1311 49.6813C29.1167 49.6641 29.0968 49.653 29.075 49.6499C27.4747 49.4197 26.4191 48.4069 26.1838 46.74C26.182 46.728 26.1768 46.7167 26.1688 46.7077C26.1609 46.6987 26.1506 46.6923 26.1391 46.6893C25.6537 46.5591 25.2001 46.5581 24.6981 46.5487C23.9231 46.534 23.2829 46.0366 23.1162 45.229C23.0932 45.1172 23.0717 45.004 23.0518 44.8893V44.7529C23.1931 42.9648 24.8036 43.042 26.0747 43.0562C26.0955 43.0564 26.1155 43.0482 26.1304 43.0333C26.1454 43.0184 26.154 42.998 26.1543 42.9766L26.1737 41.71C26.1749 41.6437 26.1431 41.6111 26.0783 41.6124C25.7099 41.6209 25.3458 41.625 24.986 41.6247C24.0958 41.6238 23.3755 41.2387 23.1213 40.314C23.0995 40.2344 23.0763 40.0859 23.0518 39.8683V39.7096C23.1959 38.9422 23.5229 38.4202 24.2735 38.1971C24.4556 38.1428 24.624 38.1158 24.7787 38.1161C25.2098 38.1171 25.649 38.1171 26.0963 38.1161C26.1115 38.1161 26.1261 38.11 26.137 38.099C26.1479 38.088 26.1541 38.0731 26.1543 38.0574L26.1741 36.7145C26.1743 36.705 26.1725 36.6956 26.1691 36.6868C26.1656 36.678 26.1604 36.67 26.1539 36.6633C26.1474 36.6566 26.1396 36.6513 26.1311 36.6477C26.1225 36.6441 26.1134 36.6424 26.1041 36.6425C25.744 36.6476 25.3828 36.6496 25.0205 36.6487C23.9125 36.6458 23.1347 36.0878 23.0518 34.8866V34.735C23.1383 34.2447 23.2912 33.8388 23.6772 33.519C23.8598 33.3674 24.076 33.2606 24.3256 33.1983C24.4772 33.1604 24.712 33.1418 25.0297 33.1424C25.3837 33.1431 25.7372 33.1445 26.0903 33.1467C26.1318 33.147 26.1529 33.1257 26.1539 33.0828L26.1778 31.7688C26.179 31.7043 26.1483 31.6721 26.0857 31.6721C25.7704 31.6731 25.4614 31.6761 25.1587 31.6811C24.1179 31.6991 23.2981 31.3207 23.0964 30.1867C23.0808 30.0976 23.0659 30.009 23.0518 29.9209V29.7618C23.2829 28.0489 24.7806 28.1096 26.0687 28.1446C26.1279 28.1462 26.1579 28.1165 26.1585 28.0556L26.1686 26.7643C26.1687 26.7556 26.167 26.747 26.1639 26.739C26.1607 26.731 26.1559 26.7237 26.15 26.7176C26.144 26.7115 26.1369 26.7066 26.1292 26.7033C26.1214 26.7 26.113 26.6984 26.1046 26.6984C25.7352 26.7013 25.3739 26.7019 25.0205 26.7003C24.1054 26.6956 23.3792 26.3342 23.1218 25.3816C23.1058 25.3216 23.0825 25.1768 23.0518 24.9472V24.8103C23.1982 23.8099 23.6993 23.3045 24.6816 23.2136C25.135 23.1712 25.5897 23.1594 26.0456 23.178C26.1304 23.1818 26.1557 23.1278 26.1672 23.0478C26.4016 21.3818 27.4862 20.325 29.0962 20.109C29.115 20.1064 29.1323 20.0967 29.1446 20.0817C29.1568 20.0667 29.1632 20.0476 29.1625 20.028C29.1477 19.6538 29.1393 19.2783 29.1372 18.9016C29.1344 18.4772 29.2113 17.9666 29.4687 17.5923C29.798 17.1134 30.3341 16.8311 30.9051 16.8354C31.7622 16.8416 32.4046 17.4318 32.5524 18.31C32.6404 18.8339 32.6086 19.417 32.5593 19.9527C32.5489 20.067 32.5994 20.1239 32.7108 20.1232L33.9787 20.1152C33.998 20.1152 34.0081 20.1052 34.0091 20.0853C34.0459 19.38 33.8852 18.6292 34.1348 17.9841C34.4071 17.2805 34.9323 16.8957 35.7102 16.8297ZM30.1724 19.9489L31.5816 19.9442C31.5906 19.9441 31.5995 19.9422 31.6079 19.9386C31.6162 19.935 31.6237 19.9298 31.63 19.9232C31.6363 19.9166 31.6413 19.9088 31.6447 19.9002C31.6481 19.8916 31.6498 19.8824 31.6498 19.8731L31.6456 18.6169C31.6449 18.4025 31.566 18.1972 31.4265 18.0461C31.2869 17.895 31.098 17.8105 30.9014 17.8112H30.8379C30.7405 17.8115 30.6441 17.8328 30.5543 17.8738C30.4645 17.9147 30.3829 17.9746 30.3143 18.05C30.2458 18.1253 30.1914 18.2147 30.1545 18.3129C30.1176 18.4112 30.0988 18.5164 30.0992 18.6226L30.1033 19.8788C30.1034 19.8881 30.1052 19.8973 30.1087 19.9058C30.1122 19.9143 30.1173 19.9221 30.1238 19.9286C30.1302 19.9351 30.1378 19.9402 30.1461 19.9437C30.1545 19.9472 30.1634 19.949 30.1724 19.9489ZM34.9946 19.9442H36.4729C36.4773 19.9442 36.4817 19.9433 36.4857 19.9416C36.4898 19.9398 36.4935 19.9373 36.4966 19.9341C36.4998 19.9308 36.5022 19.927 36.5039 19.9228C36.5056 19.9186 36.5065 19.9141 36.5065 19.9096V18.6127C36.5065 18.4002 36.4285 18.1965 36.2896 18.0463C36.1507 17.8961 35.9624 17.8117 35.766 17.8117H35.7015C35.5051 17.8117 35.3167 17.8961 35.1779 18.0463C35.039 18.1965 34.961 18.4002 34.961 18.6127V19.9096C34.961 19.9141 34.9618 19.9186 34.9635 19.9228C34.9652 19.927 34.9677 19.9308 34.9708 19.9341C34.9739 19.9373 34.9776 19.9398 34.9817 19.9416C34.9858 19.9433 34.9902 19.9442 34.9946 19.9442ZM39.8435 19.9432L41.3365 19.9489C41.343 19.9489 41.3492 19.9463 41.3538 19.9416C41.3583 19.9369 41.3609 19.9305 41.3609 19.9238L41.3655 18.6032C41.3659 18.4996 41.3468 18.397 41.3095 18.3011C41.2721 18.2053 41.2172 18.1181 41.1478 18.0446C41.0783 17.9711 40.9958 17.9127 40.905 17.8728C40.8141 17.8328 40.7166 17.812 40.6181 17.8117H40.5766C40.3777 17.8109 40.1866 17.8933 40.0454 18.0407C39.9042 18.188 39.8244 18.3883 39.8237 18.5975L39.8191 19.9181C39.8191 19.9248 39.8216 19.9312 39.8262 19.9359C39.8308 19.9406 39.837 19.9432 39.8435 19.9432ZM44.7172 19.9461L46.1863 19.9432C46.1914 19.9432 46.1965 19.9422 46.2013 19.9402C46.206 19.9382 46.2103 19.9352 46.214 19.9314C46.2176 19.9277 46.2205 19.9233 46.2225 19.9184C46.2244 19.9135 46.2254 19.9083 46.2254 19.903L46.2231 18.6079C46.2228 18.3962 46.1438 18.1934 46.0036 18.044C45.8635 17.8946 45.6736 17.8108 45.4757 17.8112H45.4204C45.3225 17.8114 45.2255 17.8322 45.135 17.8725C45.0446 17.9128 44.9624 17.9717 44.8933 18.0459C44.8241 18.1202 44.7693 18.2083 44.732 18.3052C44.6947 18.4021 44.6756 18.5059 44.6758 18.6108L44.6781 19.9058C44.6781 19.9165 44.6822 19.9267 44.6895 19.9343C44.6969 19.9418 44.7068 19.9461 44.7172 19.9461ZM50.6635 17.8917C50.1344 17.6298 49.5385 18.0002 49.5371 18.6065C49.5362 19.035 49.5362 19.4594 49.5371 19.8798C49.5371 19.8968 49.5437 19.9132 49.5554 19.9253C49.5672 19.9374 49.5831 19.9442 49.5997 19.9442H51.0181C51.0347 19.9442 51.0505 19.9375 51.0623 19.9255C51.074 19.9135 51.0806 19.8972 51.0808 19.8802C51.0817 19.5202 51.0815 19.1577 51.0803 18.7927C51.0797 18.5568 51.0599 18.3877 51.0209 18.2853C50.9527 18.1069 50.8336 17.9757 50.6635 17.8917ZM51.8743 48.6684C52.4552 48.6684 53.0123 48.431 53.423 48.0086C53.8338 47.5861 54.0645 47.013 54.0645 46.4156L54.0641 23.3391C54.0641 22.7416 53.8333 22.1686 53.4225 21.7461C53.0118 21.3236 52.4547 21.0862 51.8738 21.0862L29.2947 21.0858C28.7138 21.0858 28.1567 21.3231 27.7459 21.7456C27.3351 22.1681 27.1044 22.7411 27.1044 23.3386V46.4156C27.1044 47.013 27.3351 47.5861 27.7459 48.0086C28.1567 48.431 28.7138 48.6684 29.2947 48.6684H51.8743ZM26.0917 25.6364V24.2296C26.0917 24.2076 26.0832 24.1865 26.0681 24.171C26.053 24.1554 26.0325 24.1467 26.0111 24.1467H24.7787C24.5737 24.1467 24.377 24.2285 24.232 24.3741C24.087 24.5197 24.0055 24.7172 24.0055 24.9231V24.943C24.0055 25.1489 24.087 25.3464 24.232 25.4919C24.377 25.6375 24.5737 25.7193 24.7787 25.7193H26.0111C26.0325 25.7193 26.053 25.7106 26.0681 25.6951C26.0832 25.6795 26.0917 25.6584 26.0917 25.6364ZM55.0118 24.2268V25.6573C55.0118 25.6783 55.0199 25.6984 55.0343 25.7132C55.0488 25.7281 55.0683 25.7364 55.0887 25.7364H56.3137C56.5205 25.7364 56.7188 25.654 56.865 25.5072C57.0113 25.3604 57.0934 25.1614 57.0934 24.9539V24.9302C57.0934 24.7226 57.0113 24.5236 56.865 24.3769C56.7188 24.2301 56.5205 24.1477 56.3137 24.1477H55.0887C55.0683 24.1477 55.0488 24.156 55.0343 24.1708C55.0199 24.1857 55.0118 24.2058 55.0118 24.2268ZM26.0894 30.6215L26.0986 29.2241C26.0987 29.2108 26.0963 29.1975 26.0914 29.1851C26.0866 29.1727 26.0794 29.1614 26.0703 29.1518C26.0611 29.1423 26.0503 29.1347 26.0383 29.1295C26.0264 29.1242 26.0135 29.1215 26.0005 29.1213L24.817 29.1128C24.711 29.112 24.606 29.1315 24.5079 29.1701C24.4097 29.2087 24.3204 29.2657 24.245 29.3379C24.1696 29.41 24.1096 29.4959 24.0684 29.5906C24.0273 29.6852 24.0057 29.7869 24.005 29.8897V29.9257C24.0037 30.1331 24.0873 30.3327 24.2374 30.4805C24.3876 30.6284 24.5921 30.7123 24.8059 30.7139L25.9895 30.7224C26.0025 30.7225 26.0154 30.72 26.0274 30.715C26.0395 30.71 26.0505 30.7026 26.0597 30.6932C26.069 30.6839 26.0764 30.6727 26.0815 30.6604C26.0866 30.6481 26.0893 30.6349 26.0894 30.6215ZM55.0081 29.199L55.0109 30.6333C55.0109 30.6553 55.0194 30.6764 55.0345 30.692C55.0496 30.7075 55.0701 30.7162 55.0915 30.7162L56.2838 30.7139C56.5 30.7135 56.7071 30.6301 56.8597 30.482C57.0124 30.3339 57.0979 30.1333 57.0975 29.9242V29.9006C57.0974 29.797 57.0761 29.6946 57.035 29.599C56.9939 29.5034 56.9337 29.4167 56.8579 29.3436C56.782 29.2705 56.6921 29.2126 56.5931 29.1732C56.4941 29.1338 56.3881 29.1136 56.281 29.1138L55.0887 29.1161C55.0674 29.1161 55.0469 29.1249 55.0317 29.1404C55.0166 29.156 55.0081 29.177 55.0081 29.199ZM26.0935 35.5791L26.0908 34.1912C26.0908 34.1632 26.08 34.1363 26.0607 34.1165C26.0414 34.0967 26.0153 34.0856 25.9881 34.0856L24.8105 34.0879C24.5965 34.0883 24.3915 34.1709 24.2404 34.3175C24.0894 34.464 24.0047 34.6626 24.005 34.8695V34.9083C24.0052 35.0108 24.0263 35.1122 24.067 35.2068C24.1077 35.3014 24.1673 35.3873 24.2423 35.4596C24.3174 35.5319 24.4064 35.5892 24.5044 35.6283C24.6023 35.6673 24.7073 35.6873 24.8133 35.6871L25.9908 35.6847C26.0181 35.6847 26.0442 35.6736 26.0635 35.6538C26.0827 35.634 26.0935 35.6071 26.0935 35.5791ZM55.0141 34.1694L55.0095 35.5971C55.0095 35.6081 55.0115 35.619 55.0155 35.6292C55.0196 35.6394 55.0255 35.6487 55.0331 35.6565C55.0406 35.6643 55.0495 35.6706 55.0594 35.6748C55.0693 35.6791 55.0799 35.6813 55.0906 35.6814L56.2953 35.6857C56.3998 35.6861 56.5033 35.6664 56.5999 35.6277C56.6966 35.5891 56.7844 35.5323 56.8586 35.4605C56.9327 35.3887 56.9916 35.3033 57.0318 35.2093C57.0721 35.1153 57.0931 35.0145 57.0934 34.9126V34.869C57.0941 34.6633 57.011 34.4656 56.8624 34.3196C56.7137 34.1736 56.5117 34.0911 56.3008 34.0903L55.0961 34.086C55.0854 34.086 55.0748 34.0881 55.0649 34.0922C55.055 34.0964 55.0459 34.1025 55.0383 34.1102C55.0307 34.118 55.0247 34.1272 55.0205 34.1373C55.0164 34.1475 55.0142 34.1584 55.0141 34.1694ZM55.0127 39.1407L55.0054 40.5731C55.0053 40.5843 55.0074 40.5953 55.0115 40.6056C55.0156 40.6159 55.0216 40.6253 55.0292 40.6332C55.0368 40.6411 55.0459 40.6474 55.0558 40.6518C55.0658 40.6561 55.0765 40.6583 55.0873 40.6584L56.2732 40.665C56.3809 40.6656 56.4876 40.6457 56.5873 40.6064C56.687 40.5672 56.7776 40.5093 56.8542 40.4362C56.9307 40.363 56.9915 40.276 57.0332 40.1801C57.0749 40.0842 57.0966 39.9813 57.0971 39.8773V39.8593C57.0981 39.6493 57.0128 39.4474 56.8598 39.2981C56.7069 39.1488 56.4989 39.0642 56.2815 39.063L55.0956 39.0564C55.0848 39.0563 55.0741 39.0585 55.0641 39.0627C55.054 39.0669 55.0449 39.0731 55.0372 39.0809C55.0295 39.0887 55.0234 39.098 55.0192 39.1083C55.015 39.1186 55.0128 39.1296 55.0127 39.1407ZM26.0922 40.5618L26.0968 39.1691C26.0968 39.1561 26.0944 39.1432 26.0896 39.1312C26.0848 39.1192 26.0778 39.1082 26.0689 39.099C26.06 39.0898 26.0494 39.0824 26.0378 39.0774C26.0261 39.0723 26.0136 39.0697 26.001 39.0697L24.7912 39.0654C24.6885 39.065 24.5867 39.0843 24.4917 39.1221C24.3966 39.1599 24.3102 39.2155 24.2374 39.2857C24.1645 39.356 24.1066 39.4395 24.067 39.5315C24.0273 39.6235 24.0068 39.7221 24.0064 39.8219V39.8939C24.0057 40.0952 24.0874 40.2886 24.2336 40.4316C24.3797 40.5745 24.5783 40.6552 24.7856 40.656L25.9954 40.6603C26.0081 40.6604 26.0206 40.6579 26.0323 40.6529C26.044 40.648 26.0547 40.6408 26.0636 40.6316C26.0726 40.6225 26.0798 40.6116 26.0846 40.5996C26.0895 40.5876 26.0921 40.5748 26.0922 40.5618ZM55.0173 44.1134L55.0026 45.5336C55.0025 45.5454 55.0046 45.5571 55.0089 45.5681C55.0132 45.579 55.0195 45.589 55.0276 45.5975C55.0356 45.6059 55.0452 45.6127 55.0558 45.6173C55.0663 45.6219 55.0777 45.6244 55.0892 45.6245L56.2598 45.6373C56.4787 45.6396 56.6894 45.5595 56.8456 45.4145C57.0018 45.2696 57.0908 45.0716 57.0929 44.8642L57.0934 44.8282C57.0956 44.6209 57.0107 44.421 56.8575 44.2727C56.7043 44.1243 56.4953 44.0396 56.2764 44.0372L55.1058 44.0244C55.0943 44.0243 55.0829 44.0265 55.0722 44.0309C55.0616 44.0353 55.0518 44.0418 55.0436 44.0501C55.0354 44.0584 55.0289 44.0682 55.0244 44.0791C55.0199 44.0899 55.0175 44.1016 55.0173 44.1134ZM26.1 45.4961L26.0981 44.1736C26.0981 44.1546 26.0944 44.1357 26.0872 44.1182C26.0801 44.1006 26.0697 44.0847 26.0565 44.0713C26.0434 44.0578 26.0278 44.0472 26.0107 44.04C25.9936 44.0328 25.9753 44.0291 25.9568 44.0291L24.851 44.031C24.6264 44.0314 24.4112 44.1145 24.2526 44.262C24.0941 44.4094 24.0052 44.6092 24.0055 44.8173V44.86C24.0057 44.9631 24.0277 45.0651 24.0705 45.1603C24.1132 45.2554 24.1757 45.3419 24.2545 45.4146C24.3333 45.4874 24.4267 45.545 24.5296 45.5843C24.6324 45.6236 24.7426 45.6437 24.8538 45.6434L25.9595 45.6416C25.978 45.6415 25.9963 45.6377 26.0134 45.6303C26.0305 45.623 26.046 45.6123 26.059 45.5988C26.0721 45.5853 26.0824 45.5692 26.0894 45.5516C26.0965 45.534 26.1 45.5152 26.1 45.4961ZM31.495 49.7129L30.2452 49.7081C30.2236 49.7081 30.2023 49.7124 30.1824 49.7208C30.1625 49.7292 30.1444 49.7416 30.1291 49.7572C30.1138 49.7728 30.1017 49.7914 30.0934 49.8118C30.0851 49.8322 30.0808 49.8541 30.0808 49.8763L30.0771 50.9852C30.0763 51.2162 30.1566 51.438 30.3004 51.6019C30.4442 51.7658 30.6397 51.8583 30.8439 51.8591H30.8816C31.0858 51.8598 31.2819 51.7687 31.4268 51.6059C31.5717 51.4431 31.6536 51.2218 31.6544 50.9909L31.6585 49.882C31.6586 49.8598 31.6544 49.8379 31.6462 49.8174C31.638 49.7969 31.626 49.7783 31.6108 49.7626C31.5957 49.7469 31.5776 49.7344 31.5578 49.7259C31.5379 49.7174 31.5166 49.7129 31.495 49.7129ZM36.3854 49.7143H35.0913C35.0592 49.7143 35.0284 49.7274 35.0057 49.7508C34.9829 49.7741 34.9702 49.8058 34.9702 49.8389V51.0477C34.9702 51.2617 35.044 51.4668 35.1753 51.6181C35.3067 51.7694 35.4849 51.8544 35.6706 51.8544H35.806C35.9918 51.8544 36.17 51.7694 36.3013 51.6181C36.4327 51.4668 36.5065 51.2617 36.5065 51.0477V49.8389C36.5065 49.8058 36.4937 49.7741 36.471 49.7508C36.4483 49.7274 36.4175 49.7143 36.3854 49.7143ZM41.2614 49.72L39.9388 49.7129C39.9092 49.7127 39.8808 49.7247 39.8597 49.7461C39.8386 49.7675 39.8267 49.7966 39.8264 49.827L39.8204 51.0108C39.8193 51.2364 39.8982 51.4532 40.0401 51.6135C40.1819 51.7739 40.3749 51.8646 40.5766 51.8658H40.6015C40.7014 51.8663 40.8005 51.8449 40.893 51.8027C40.9856 51.7605 41.0698 51.6983 41.1408 51.6197C41.2119 51.5411 41.2685 51.4476 41.3073 51.3446C41.346 51.2415 41.3663 51.131 41.3669 51.0193L41.3729 49.8356C41.3729 49.8204 41.3701 49.8055 41.3645 49.7915C41.359 49.7775 41.3508 49.7648 41.3404 49.754C41.3301 49.7433 41.3178 49.7348 41.3042 49.7289C41.2907 49.7231 41.2761 49.72 41.2614 49.72ZM46.0684 49.7133L44.8342 49.7086C44.8119 49.7085 44.7898 49.713 44.7691 49.7217C44.7485 49.7305 44.7297 49.7433 44.7139 49.7595C44.6981 49.7757 44.6855 49.7949 44.6769 49.8161C44.6683 49.8373 44.6639 49.86 44.6638 49.8829L44.6597 50.9951C44.6593 51.1077 44.6782 51.2192 44.7154 51.3233C44.7527 51.4275 44.8075 51.5222 44.8766 51.602C44.9458 51.6818 45.0281 51.7453 45.1187 51.7886C45.2093 51.832 45.3065 51.8545 45.4048 51.8549H45.4831C45.6814 51.8555 45.8719 51.7659 46.0126 51.6058C46.1534 51.4456 46.2329 51.228 46.2337 51.0008L46.2379 49.8886C46.2379 49.8656 46.2336 49.8429 46.2251 49.8217C46.2166 49.8004 46.2042 49.7811 46.1884 49.7649C46.1727 49.7486 46.154 49.7357 46.1334 49.7268C46.1128 49.718 46.0907 49.7134 46.0684 49.7133ZM49.5196 50.7753C49.5251 50.9582 49.5352 51.1 49.55 51.2007C49.6108 51.6218 50.0257 51.9335 50.431 51.8587C50.8754 51.7762 51.1029 51.3703 51.0927 50.9151C51.0841 50.5358 51.0792 50.1581 51.078 49.782C51.0777 49.7407 51.0576 49.72 51.0177 49.72L49.625 49.7204C49.6103 49.7204 49.5961 49.726 49.5851 49.736C49.5741 49.7461 49.567 49.7599 49.5652 49.7749C49.5247 50.1065 49.5095 50.44 49.5196 50.7753Z" fill="#3B3B58"/>
<path d="M29.4964 47.0077C29.396 46.9527 29.3021 46.8982 29.2192 46.8158C28.6183 46.2228 28.3317 45.4993 28.3594 44.6454C28.3689 44.3508 28.3736 44.2014 28.3736 44.1973C28.3779 37.8199 28.3778 31.4426 28.3732 25.0652C28.3727 24.5001 28.486 23.8791 28.7656 23.4068C29.3113 22.4855 30.2811 22.3012 31.2634 22.2989C37.7213 22.2821 44.1792 22.2807 50.6373 22.2946C51.796 22.297 52.8165 22.8308 53.15 24.0302C53.3134 24.6166 53.2817 25.3139 53.2679 25.9486C53.2589 26.3519 53.2539 26.64 53.2527 26.8131C53.2121 32.7588 53.2531 38.7044 53.2439 44.6506C53.243 45.2337 53.2135 45.6037 52.9722 46.0669C52.9036 46.1991 52.8409 46.3284 52.7516 46.443C52.1271 47.2388 51.3088 47.3748 50.361 47.3752C44.0748 47.3759 37.7886 47.3757 31.5025 47.3748C30.6666 47.3748 30.154 47.3672 29.4964 47.0077ZM30.7992 23.2481C30.4129 23.2481 30.0424 23.406 29.7692 23.687C29.4961 23.9679 29.3426 24.349 29.3426 24.7464V44.9315C29.3426 45.3289 29.4961 45.71 29.7692 45.9909C30.0424 46.2719 30.4129 46.4298 30.7992 46.4298H50.8501C51.2364 46.4298 51.6069 46.2719 51.8801 45.9909C52.1533 45.71 52.3067 45.3289 52.3067 44.9315V24.7464C52.3067 24.349 52.1533 23.9679 51.8801 23.687C51.6069 23.406 51.2364 23.2481 50.8501 23.2481H30.7992Z" fill="#3B3B58"/>
<path d="M34.2166 42.4125C33.8684 42.2064 33.6234 41.6721 33.5718 41.2941C33.5657 41.2502 33.5626 40.935 33.5626 40.3486C33.5632 36.693 33.5634 33.0376 33.5631 29.3824C33.5631 28.3199 34.1682 27.6449 35.221 27.6411C40.0863 27.6237 43.9777 27.6218 46.8953 27.6354C47.9356 27.6401 48.515 28.3914 48.5039 29.4179C48.4616 33.3239 48.4864 37.2304 48.491 41.1364C48.4915 41.8682 47.9822 42.5134 47.2743 42.6441C47.1242 42.6716 46.9403 42.6855 46.7226 42.6858C42.8659 42.6911 39.009 42.6907 35.1519 42.6844C34.8338 42.6837 34.5221 42.5931 34.2166 42.4125ZM34.4697 28.8584C34.4147 28.9595 34.3872 29.0512 34.3872 29.1336C34.3857 29.9086 34.3855 30.6979 34.3868 31.5016C34.3868 31.5136 34.3926 31.5196 34.4043 31.5196L38.2556 31.5201C38.2599 31.5201 38.264 31.5183 38.267 31.5152C38.2701 31.5121 38.2718 31.5079 38.2718 31.5035V28.4814C38.2718 28.4612 38.2619 28.4511 38.2423 28.4511C37.2015 28.4533 36.1639 28.4575 35.1296 28.4639C34.8315 28.4658 34.6115 28.5973 34.4697 28.8584ZM43.2685 28.4667C43.2685 28.4633 43.2672 28.4601 43.2649 28.4577C43.2625 28.4553 43.2594 28.4539 43.2561 28.4539H39.0957C39.0924 28.4539 39.0892 28.4553 39.0869 28.4577C39.0846 28.4601 39.0833 28.4633 39.0833 28.4667V31.5068C39.0833 31.5102 39.0846 31.5135 39.0869 31.5159C39.0892 31.5183 39.0924 31.5196 39.0957 31.5196H43.2561C43.2594 31.5196 43.2625 31.5183 43.2649 31.5159C43.2672 31.5135 43.2685 31.5102 43.2685 31.5068V28.4667ZM47.6273 28.9162C47.4988 28.5979 47.2133 28.4525 46.8744 28.453C45.9469 28.4542 45.0204 28.4549 44.0951 28.4549C44.0856 28.4549 44.0808 28.4599 44.0808 28.47V31.5087C44.0808 31.5116 44.0819 31.5144 44.0839 31.5164C44.0859 31.5185 44.0886 31.5196 44.0914 31.5196L47.6674 31.5201C47.6719 31.5201 47.6762 31.5182 47.6794 31.5148C47.6826 31.5114 47.6844 31.5069 47.6844 31.5021C47.685 30.7953 47.6849 30.0888 47.684 29.3823C47.6837 29.1638 47.6648 29.0084 47.6273 28.9162ZM43.6716 37.6278C43.9042 37.6278 44.0755 37.7983 44.0755 38.0394C44.0777 39.3076 44.0792 40.5779 44.0801 41.8502C44.0801 41.8663 44.088 41.8744 44.1036 41.8744C44.9967 41.8775 45.8897 41.8778 46.7825 41.8753C46.9934 41.8747 47.1497 41.8519 47.2513 41.8071C47.4217 41.7319 47.5428 41.6088 47.6147 41.4376C47.6616 41.3265 47.6851 41.133 47.6851 40.8574C47.6851 38.0323 47.685 35.2046 47.6847 32.3741C47.6847 32.3612 47.6784 32.3547 47.6658 32.3547H34.4008C34.3966 32.3547 34.3926 32.3564 34.3897 32.3594C34.3868 32.3625 34.3851 32.3666 34.3851 32.3708V37.6003C34.3851 37.6151 34.3923 37.6226 34.4068 37.6226C37.4954 37.6254 40.5837 37.6271 43.6716 37.6278ZM34.3895 41.1647C34.39 41.4456 34.5742 41.6962 34.8114 41.8066C34.9084 41.8517 35.07 41.8745 35.2963 41.8748C36.2797 41.8773 37.264 41.8772 38.2492 41.8743C38.2642 41.8743 38.2718 41.8666 38.2718 41.8511V38.4861C38.2718 38.4684 38.2632 38.4595 38.246 38.4595L34.4033 38.4591C34.3986 38.4591 34.394 38.461 34.3906 38.4645C34.3873 38.4679 34.3854 38.4726 34.3854 38.4775C34.386 39.3734 34.3874 40.2692 34.3895 41.1647ZM43.2685 38.4719C43.2685 38.4686 43.2673 38.4655 43.265 38.4632C43.2628 38.4609 43.2597 38.4596 43.2565 38.4596H39.0952C39.0921 38.4596 39.089 38.4609 39.0868 38.4632C39.0845 38.4655 39.0833 38.4686 39.0833 38.4719V41.8634C39.0833 41.8667 39.0845 41.8698 39.0868 41.8722C39.089 41.8745 39.0921 41.8758 39.0952 41.8758H43.2565C43.2597 41.8758 43.2628 41.8745 43.265 41.8722C43.2673 41.8698 43.2685 41.8667 43.2685 41.8634V38.4719Z" fill="#3B3B58"/>
<path d="M34.4703 28.8585C34.6122 28.5973 34.8321 28.4658 35.1302 28.4639C36.1646 28.4576 37.2022 28.4533 38.2429 28.4511C38.2626 28.4511 38.2724 28.4612 38.2724 28.4814V31.5035C38.2724 31.5079 38.2707 31.5121 38.2677 31.5152C38.2647 31.5183 38.2606 31.5201 38.2563 31.5201L34.4049 31.5196C34.3932 31.5196 34.3874 31.5136 34.3874 31.5016C34.3862 30.6979 34.3863 29.9086 34.3879 29.1337C34.3879 29.0512 34.4154 28.9595 34.4703 28.8585Z" fill="#EF5E7F"/>
<path d="M43.2561 28.4539H39.0957C39.0888 28.4539 39.0833 28.4596 39.0833 28.4667V31.5068C39.0833 31.5139 39.0888 31.5196 39.0957 31.5196H43.2561C43.2629 31.5196 43.2685 31.5139 43.2685 31.5068V28.4667C43.2685 28.4596 43.2629 28.4539 43.2561 28.4539Z" fill="#EF5E7F"/>
<path d="M46.8744 28.453C47.2133 28.4525 47.4988 28.5979 47.6273 28.9162C47.6648 29.0084 47.6837 29.1638 47.684 29.3823C47.6849 30.0888 47.685 30.7953 47.6844 31.5021C47.6844 31.5069 47.6826 31.5114 47.6794 31.5148C47.6762 31.5182 47.6719 31.5201 47.6674 31.5201L44.0914 31.5196C44.0886 31.5196 44.0859 31.5185 44.0839 31.5164C44.0819 31.5144 44.0808 31.5116 44.0808 31.5087V28.47C44.0808 28.4599 44.0856 28.4549 44.0951 28.4549C45.0204 28.4549 45.9469 28.4542 46.8744 28.453Z" fill="#EF5E7F"/>
<path d="M34.8114 41.8066C34.5742 41.6962 34.39 41.4456 34.3895 41.1647C34.3874 40.2692 34.386 39.3734 34.3854 38.4775C34.3854 38.4726 34.3873 38.4679 34.3906 38.4645C34.394 38.461 34.3986 38.4591 34.4033 38.4591L38.246 38.4595C38.2632 38.4595 38.2718 38.4684 38.2718 38.4861V41.8511C38.2718 41.8666 38.2642 41.8743 38.2492 41.8743C37.264 41.8772 36.2797 41.8773 35.2963 41.8748C35.07 41.8745 34.9084 41.8517 34.8114 41.8066Z" fill="#F6A36A"/>
<path d="M43.2565 38.4596H39.0952C39.0886 38.4596 39.0833 38.4651 39.0833 38.4719V41.8634C39.0833 41.8702 39.0886 41.8758 39.0952 41.8758H43.2565C43.2632 41.8758 43.2685 41.8702 43.2685 41.8634V38.4719C43.2685 38.4651 43.2632 38.4596 43.2565 38.4596Z" fill="#F6A36A"/>
</g>
<defs>
<filter id="filter0_d_1519_4533" x="0.0851512" y="0.3901" width="80.9332" height="77.4891" filterUnits="userSpaceOnUse" color-interpolation-filters="sRGB">
<feFlood flood-opacity="0" result="BackgroundImageFix"/>
<feColorMatrix in="SourceAlpha" type="matrix" values="0 0 0 0 0 0 0 0 0 0 0 0 0 0 0 0 0 0 127 0" result="hardAlpha"/>
<feMorphology radius="6.02693" operator="erode" in="SourceAlpha" result="effect1_dropShadow_1519_4533"/>
<feOffset dy="4.30495"/>
<feGaussianBlur stdDeviation="9.47089"/>
<feComposite in2="hardAlpha" operator="out"/>
<feColorMatrix type="matrix" values="0 0 0 0 0.608333 0 0 0 0 0.565243 0 0 0 0 0.575417 0 0 0 0.18 0"/>
<feBlend mode="normal" in2="BackgroundImageFix" result="effect1_dropShadow_1519_4533"/>
<feBlend mode="normal" in="SourceGraphic" in2="effect1_dropShadow_1519_4533" result="shape"/>
</filter>
</defs>
</svg>
