<svg width="82" height="78" viewBox="0 0 82 78" fill="none" xmlns="http://www.w3.org/2000/svg">
<g filter="url(#filter0_d_1519_4459)">
<rect x="13" y="9" width="55.1034" height="51.6594" rx="7.74891" fill="white" shape-rendering="crispEdges"/>
<path d="M43.7231 31.2943L43.7246 31.2993L43.7287 31.3027L43.7339 31.3033L43.7386 31.301C45.7635 29.2764 47.7878 27.2523 49.8116 25.2288C50.4093 24.6311 51.2433 25.4676 50.6795 26.0335C48.6471 28.0721 46.6141 30.1087 44.5805 32.1433L44.5783 32.1479L44.5787 32.1528L44.5818 32.1566L44.5864 32.158C45.5994 32.1585 46.612 32.1583 47.6242 32.1571C47.8422 32.1569 47.9901 32.1683 48.0679 32.1914C48.5849 32.3458 48.6242 33.079 48.1273 33.2931C48.0442 33.3288 47.918 33.3466 47.7488 33.3466C46.2944 33.3466 44.8403 33.3469 43.3864 33.3475C43.1321 33.3475 42.9586 33.3259 42.8657 33.2827C42.5955 33.1576 42.534 32.9196 42.534 32.6197C42.534 31.1545 42.5338 29.6893 42.5332 28.2243C42.5332 28.0227 42.5456 27.8826 42.5704 27.804C42.739 27.272 43.5111 27.2678 43.6851 27.7985C43.711 27.8777 43.724 28.0144 43.724 28.2084C43.7231 29.2393 43.7228 30.2679 43.7231 31.2943Z" fill="#3B3B58"/>
<path d="M52.8925 43.5977L47.5559 37.7756C41.3766 40.1044 40.8148 45.0533 43.3427 46.5088C45.365 47.6732 46.8068 47.9643 47.275 47.9643C51.3196 47.4986 52.7053 44.8592 52.8925 43.5977Z" fill="#FAB094"/>
<path d="M27.0518 28.3315V27.6603C27.1759 25.6896 27.9042 24.0099 29.2366 22.6213C29.6733 22.1662 30.1109 21.7121 30.5496 21.2592C31.0301 20.7631 31.913 20.7173 32.4857 21.0166C32.6569 21.1057 32.8844 21.2974 33.1683 21.5916C34.7232 23.2023 36.2768 24.8144 37.8293 26.4281C38.5426 27.1693 38.5531 28.3047 37.8354 29.0498C37.1448 29.766 36.454 30.4822 35.763 31.1983C35.4468 31.5261 35.3325 31.908 35.4201 32.3439C35.4537 32.5099 35.5436 32.7086 35.6899 32.94C35.9635 33.3709 36.2486 33.7931 36.5451 34.2066C36.6668 34.376 36.7387 34.5067 36.7608 34.5989C36.9101 35.2236 36.0942 35.6547 35.6923 35.1236C35.1676 34.4286 34.7557 33.8209 34.4567 33.3004C33.9191 32.365 34.163 31.0532 34.885 30.3062C35.5313 29.6371 36.1773 28.9676 36.8229 28.2977C37.2222 27.8832 37.2591 27.6304 36.8591 27.2158C35.2682 25.5678 33.6776 23.9193 32.0875 22.2704C31.7822 21.9539 31.478 22.0972 31.2022 22.3825C30.8057 22.7939 30.4114 23.2076 30.0194 23.6236C28.4416 25.2984 27.8591 27.7564 28.5964 29.9846C28.6939 30.2792 28.8606 30.6664 29.0965 31.1461C32.423 37.9045 37.5853 43.3345 44.108 46.7535C44.5606 46.9908 44.936 47.1591 45.2342 47.2584C47.4124 47.9857 49.773 47.3571 51.3852 45.704C51.7719 45.3079 52.1575 44.9103 52.5421 44.5113C52.8764 44.1642 52.9384 43.8828 52.5944 43.5255C51.0182 41.8902 49.4412 40.256 47.8633 38.6228C47.5377 38.2859 47.2643 38.2426 46.9356 38.5827C46.3973 39.1401 45.8593 39.6975 45.3215 40.2549C44.9 40.6913 44.5918 40.9686 44.3968 41.0866C43.6331 41.5483 42.6678 41.5533 41.9041 41.0522C40.9726 40.4413 40.1938 39.8588 39.5675 39.3048C39.224 39.0004 39.3721 38.3834 39.8009 38.2388C40.0805 38.1452 40.2673 38.2585 40.502 38.4528C41.0779 38.9299 41.6727 39.3799 42.2863 39.8028C42.5509 39.9849 42.7684 40.094 42.9388 40.1301C43.5243 40.2524 43.8622 39.9639 44.2936 39.5175C44.9363 38.8514 45.5795 38.1855 46.2235 37.5199C46.3246 37.4154 46.4625 37.3231 46.637 37.2428C47.319 36.9302 48.1017 37.0684 48.6234 37.6084C50.1783 39.2199 51.7329 40.8314 53.2874 42.443C53.5893 42.7563 53.7841 43.0031 53.8717 43.1836C54.2121 43.8859 54.0573 44.7514 53.5129 45.3143C52.8942 45.9549 52.2196 46.7076 51.5941 47.2151C49.6237 48.8141 46.9571 49.2745 44.5959 48.3754C44.3132 48.268 43.9403 48.0926 43.477 47.8494C36.5826 44.2305 31.0148 38.263 27.7018 31.0996C27.3217 30.2769 27.105 29.3542 27.0518 28.3315Z" fill="#3B3B58"/>
<path d="M37.9536 37.5434C38.292 37.5434 38.5662 37.2592 38.5662 36.9086C38.5662 36.5579 38.292 36.2737 37.9536 36.2737C37.6153 36.2737 37.3411 36.5579 37.3411 36.9086C37.3411 37.2592 37.6153 37.5434 37.9536 37.5434Z" fill="#3B3B58"/>
</g>
<defs>
<filter id="filter0_d_1519_4459" x="0.0851512" y="0.3901" width="80.9332" height="77.4891" filterUnits="userSpaceOnUse" color-interpolation-filters="sRGB">
<feFlood flood-opacity="0" result="BackgroundImageFix"/>
<feColorMatrix in="SourceAlpha" type="matrix" values="0 0 0 0 0 0 0 0 0 0 0 0 0 0 0 0 0 0 127 0" result="hardAlpha"/>
<feMorphology radius="6.02693" operator="erode" in="SourceAlpha" result="effect1_dropShadow_1519_4459"/>
<feOffset dy="4.30495"/>
<feGaussianBlur stdDeviation="9.47089"/>
<feComposite in2="hardAlpha" operator="out"/>
<feColorMatrix type="matrix" values="0 0 0 0 0.608333 0 0 0 0 0.565243 0 0 0 0 0.575417 0 0 0 0.18 0"/>
<feBlend mode="normal" in2="BackgroundImageFix" result="effect1_dropShadow_1519_4459"/>
<feBlend mode="normal" in="SourceGraphic" in2="effect1_dropShadow_1519_4459" result="shape"/>
</filter>
</defs>
</svg>
