<svg width="82" height="78" viewBox="0 0 82 78" fill="none" xmlns="http://www.w3.org/2000/svg">
<g filter="url(#filter0_d_1675_3822)">
<rect x="13" y="9" width="55.1034" height="51.6594" rx="7.74891" fill="white" shape-rendering="crispEdges"/>
<path d="M31.6924 46.6577V33.5155C45.2388 31.0623 49.2038 42.131 49.4929 47.972L48.6246 49.2862L46.8879 50.1623H45.5854C43.7041 50.0163 39.0733 49.8119 35.5999 50.1623C32.1266 50.5128 31.5477 47.972 31.6924 46.6577Z" fill="#FB8B9E"/>
<path d="M36.4679 21.2494V19.4971H44.2829L44.7171 20.3732V21.2494L43.8487 22.1255L42.5462 21.6875L40.8095 22.1255H36.902L36.4679 21.2494Z" fill="#FAB094"/>
<path d="M50.0518 47.4851C50.0518 48.3722 49.7025 49.2229 49.0809 49.8501C48.4592 50.4773 47.6161 50.8297 46.737 50.8297H34.3665C33.4874 50.8297 32.6443 50.4773 32.0226 49.8501C31.401 49.2229 31.0518 48.3722 31.0518 47.4851V22.1743C31.0518 21.2873 31.401 20.4366 32.0226 19.8093C32.6443 19.1821 33.4874 18.8297 34.3665 18.8297H46.737C47.6161 18.8297 48.4592 19.1821 49.0809 19.8093C49.7025 20.4366 50.0518 21.2873 50.0518 22.1743V47.4851ZM37.549 22.5901C36.6374 22.5893 35.8853 22.1007 35.6843 21.1775C35.6148 20.8575 35.6411 20.4391 35.6394 20.0755C35.6394 20.0447 35.6241 20.0293 35.5936 20.0293C35.0051 20.0233 34.2521 19.9685 33.7492 20.1183C32.8241 20.3946 32.2296 21.2605 32.2305 22.2308C32.2361 30.5685 32.2392 38.9061 32.2398 47.2438C32.2398 47.6306 32.2695 47.9212 32.3288 48.1157C32.5264 48.7685 33.0471 49.3076 33.6856 49.5206C33.9061 49.5942 34.2637 49.631 34.7583 49.631C38.5222 49.6316 42.2862 49.6321 46.0501 49.6327C46.7398 49.6327 47.2127 49.5876 47.4688 49.4975C48.1938 49.2425 48.8654 48.4374 48.8654 47.6212C48.8654 39.1295 48.8595 30.6375 48.8476 22.1452C48.8465 21.6512 48.7049 21.2232 48.4228 20.8609C47.657 19.8761 46.6106 20.0139 45.5023 20.0319C45.4746 20.0324 45.4608 20.0467 45.4608 20.0746C45.4579 20.3302 45.4537 20.5854 45.448 20.8404C45.426 21.8475 44.6391 22.5884 43.6503 22.5893C41.6163 22.5904 39.5825 22.5907 37.549 22.5901ZM44.2363 20.0276H36.8689C36.857 20.0276 36.8456 20.0324 36.8372 20.0409C36.8287 20.0494 36.824 20.0609 36.824 20.0729V20.742C36.824 20.9156 36.8946 21.0821 37.0202 21.2048C37.1459 21.3276 37.3162 21.3966 37.4939 21.3966H43.6113C43.789 21.3966 43.9594 21.3276 44.085 21.2048C44.2106 21.0821 44.2812 20.9156 44.2812 20.742V20.0729C44.2812 20.0609 44.2765 20.0494 44.268 20.0409C44.2596 20.0324 44.2482 20.0276 44.2363 20.0276Z" fill="#3B3B58"/>
<path d="M44.2083 46.7827H36.8969C36.5747 46.7827 36.3135 47.0462 36.3135 47.3713V47.3901C36.3135 47.7152 36.5747 47.9788 36.8969 47.9788H44.2083C44.5305 47.9788 44.7917 47.7152 44.7917 47.3901V47.3713C44.7917 47.0462 44.5305 46.7827 44.2083 46.7827Z" fill="#3B3B58"/>
</g>
<defs>
<filter id="filter0_d_1675_3822" x="0.0851512" y="0.3901" width="80.9332" height="77.4891" filterUnits="userSpaceOnUse" color-interpolation-filters="sRGB">
<feFlood flood-opacity="0" result="BackgroundImageFix"/>
<feColorMatrix in="SourceAlpha" type="matrix" values="0 0 0 0 0 0 0 0 0 0 0 0 0 0 0 0 0 0 127 0" result="hardAlpha"/>
<feMorphology radius="6.02693" operator="erode" in="SourceAlpha" result="effect1_dropShadow_1675_3822"/>
<feOffset dy="4.30495"/>
<feGaussianBlur stdDeviation="9.47089"/>
<feComposite in2="hardAlpha" operator="out"/>
<feColorMatrix type="matrix" values="0 0 0 0 0.608333 0 0 0 0 0.565243 0 0 0 0 0.575417 0 0 0 0.18 0"/>
<feBlend mode="normal" in2="BackgroundImageFix" result="effect1_dropShadow_1675_3822"/>
<feBlend mode="normal" in="SourceGraphic" in2="effect1_dropShadow_1675_3822" result="shape"/>
</filter>
</defs>
</svg>
