<svg width="66" height="66" viewBox="0 0 66 66" fill="none" xmlns="http://www.w3.org/2000/svg">
<g clip-path="url(#clip0_1427_4335)">
<path d="M47.4823 52.7796C45.5415 50.7393 41.6302 46.6289 41.5107 46.5094L41.9586 45.0166L47.7062 50.4656L58.9029 39.7168L59.7986 41.359L50.9906 50.4656L47.4823 52.7796Z" fill="#FAB094"/>
<path d="M44.9877 44.4209C44.4941 43.9272 43.8376 43.6555 43.1393 43.6555C42.4411 43.6555 41.7846 43.9273 41.2907 44.4209C40.2716 45.4403 40.2716 47.0989 41.2907 48.1181L46.0378 52.8651C46.5315 53.3586 47.188 53.6304 47.8863 53.6304C48.5846 53.6304 49.2411 53.3586 49.7348 52.8649L59.6447 42.955C60.6637 41.9354 60.6637 40.277 59.6445 39.2581C59.1508 38.7644 58.4944 38.4927 57.796 38.4927C57.0977 38.4927 56.4412 38.7645 55.9474 39.2581L47.8862 47.3193L44.9877 44.4209ZM57.0844 40.3951C57.2744 40.2051 57.5272 40.1005 57.7961 40.1005C58.0651 40.1005 58.3177 40.2051 58.5078 40.3951C58.9 40.7873 58.9 41.4258 58.5076 41.8182L48.5979 51.728C48.408 51.918 48.1551 52.0226 47.8863 52.0226C47.6174 52.0226 47.3646 51.918 47.1745 51.728L42.4276 46.9812C42.0352 46.5888 42.0352 45.9503 42.4275 45.5581C42.6175 45.3681 42.8703 45.2634 43.1393 45.2634C43.4082 45.2634 43.6609 45.3679 43.8509 45.5579L47.3177 49.0248C47.4686 49.1755 47.6729 49.2603 47.8862 49.2603C48.0995 49.2603 48.3038 49.1756 48.4545 49.0248L57.0844 40.3951Z" fill="#3B3B58"/>
<path d="M52.4494 59.3068L52.4033 59.334C52.0191 59.5565 51.8878 60.0482 52.1102 60.4324C52.2593 60.6899 52.5291 60.8337 52.8067 60.8337C52.9433 60.8337 53.082 60.7988 53.2087 60.7253L53.2619 60.694C53.6451 60.4697 53.7737 59.9772 53.5494 59.5941C53.3248 59.2111 52.8323 59.0826 52.4494 59.3068Z" fill="#3B3B58"/>
<path d="M60.0455 52.8754C59.674 52.6326 59.1759 52.737 58.9327 53.1086C58.2703 54.1226 57.4931 55.0936 56.6224 55.9943C55.9064 56.7349 55.1306 57.4252 54.3164 58.0459C53.9634 58.3151 53.8955 58.8195 54.1646 59.1727C54.3229 59.3801 54.5623 59.4892 54.8045 59.4892C54.9745 59.4892 55.1458 59.4356 55.2914 59.3245C56.1696 58.6549 57.0063 57.9104 57.7783 57.1119C58.7196 56.1382 59.5609 55.0872 60.2788 53.9881C60.5218 53.6164 60.4172 53.1182 60.0455 52.8754Z" fill="#3B3B58"/>
<path d="M44.5158 62.5584C32.923 51.093 42.3594 35.4873 48.5267 29.1177L47.2976 29.4163L43.5454 31.8049L36.8826 33.4853L34.9414 34.4559V39.8665V46.8831L37.0762 54.1236L42.3312 61.2894L44.5158 62.5584Z" fill="#EF5E7F"/>
<path d="M30.3276 0H31.7236C49.0783 0.402187 62.7423 14.8023 62.1416 32.1776C62.1409 32.1933 62.1461 32.2088 62.1564 32.2209C62.1667 32.2331 62.1812 32.2411 62.1971 32.2433C63.0917 32.3619 64.5161 32.4302 65.1632 32.844C65.8632 33.2913 65.9676 33.9436 65.9676 34.7995C65.965 37.9698 65.9654 41.1404 65.9689 44.3115C65.9697 45.5026 65.9517 46.3616 65.9147 46.8884C65.6105 51.156 64.1341 54.9832 61.4855 58.37C61.1233 58.8328 60.6953 59.1899 60.1307 58.9243C59.6787 58.7112 59.4866 58.3851 59.5545 57.9459C59.5863 57.7397 59.7212 57.4853 59.9593 57.1828C62.326 54.1655 63.6636 50.7555 63.9721 46.9528C64.0151 46.4174 64.0361 45.5589 64.0353 44.3773C64.0318 41.0824 64.0314 37.7962 64.034 34.5185C64.0341 34.5008 64.0278 34.4837 64.0161 34.4704C64.0045 34.4571 63.9884 34.4485 63.9708 34.4463C62.8743 34.2959 61.7798 34.1266 60.6876 33.9384C56.6051 33.2359 53.2961 31.5575 50.0683 29.0065C49.9969 28.9501 49.9088 28.9191 49.818 28.9184C49.7271 28.9177 49.6387 28.9473 49.5668 29.0026C49.1157 29.3489 48.6482 29.697 48.1643 30.0468C45.1746 32.2098 41.8488 33.5552 38.187 34.0828C37.3397 34.2048 36.4957 34.3252 35.6553 34.4438C35.6149 34.4489 35.5947 34.4721 35.5947 34.5134C35.5904 38.1184 35.5848 41.7282 35.5779 45.3428C35.5638 52.1787 39.1383 58.4074 45.0461 61.7822C46.4048 62.5582 48.185 63.2723 49.7666 63.9568C49.7825 63.9637 49.7996 63.9673 49.8169 63.9673C49.8342 63.9673 49.8513 63.9637 49.8672 63.9568C52.377 62.8714 54.785 61.8969 56.957 60.1786C57.764 59.5392 58.9203 60.4184 58.4356 61.3478C58.36 61.4939 58.2057 61.6571 57.9728 61.8376C55.552 63.7158 52.7663 64.8502 49.96 66H49.6519C46.2462 64.5743 43.9388 63.6423 41.4934 61.692C41.1145 61.3903 40.7389 61.0835 40.3668 60.7716C40.3324 60.7432 40.2938 60.7355 40.2508 60.7484C26.5107 64.9017 12.0023 59.3794 4.51024 47.1475C0.181571 40.0782 -1.083 31.1747 1.04395 23.1825C1.38427 21.8999 3.21474 22.2892 2.90923 23.6839C2.82931 24.0492 2.74337 24.4105 2.65141 24.768C2.64956 24.7747 2.64958 24.7817 2.65146 24.7883C2.65334 24.795 2.65702 24.8009 2.66209 24.8056C2.66716 24.8103 2.67342 24.8134 2.68018 24.8148C2.68694 24.8161 2.69394 24.8156 2.7004 24.8132C4.70962 24.1093 6.75579 23.5387 8.83891 23.1013C8.86607 23.0957 8.89083 23.0819 8.90976 23.0618C8.92869 23.0418 8.94087 23.0164 8.94462 22.9891C9.36485 20.0802 10.0373 17.2313 10.962 14.4427C10.9634 14.438 10.9634 14.433 10.962 14.4283C10.9607 14.4236 10.958 14.4194 10.9544 14.4162C10.9507 14.413 10.9462 14.4108 10.9414 14.41C10.9366 14.4092 10.9317 14.4098 10.9272 14.4117C8.91884 15.3295 7.02348 16.4403 5.24114 17.7439C5.18354 17.7863 5.13715 17.8411 5.10579 17.9038C4.85657 18.3988 4.61809 18.9045 4.39036 19.421C4.25286 19.7313 4.12181 19.9409 3.9972 20.0501C3.56407 20.4291 2.89634 20.313 2.58181 19.849C2.34849 19.5061 2.38845 19.1555 2.56118 18.7636C7.50473 7.5668 18.066 0.375117 30.3276 0ZM36.9972 8.63285C37.0011 8.63341 37.005 8.63297 37.0087 8.63157C37.0124 8.63017 37.0157 8.62786 37.0184 8.62483C37.0211 8.62179 37.023 8.61813 37.024 8.61414C37.025 8.61015 37.0251 8.60596 37.0243 8.60191C36.5568 6.43887 35.9268 4.32438 35.1345 2.25844C35.129 2.24398 35.1198 2.23129 35.1077 2.22175C35.0957 2.21221 35.0813 2.20618 35.0662 2.2043C32.4202 1.84508 29.7746 1.84551 27.1294 2.20559C27.1147 2.20753 27.1007 2.21349 27.0891 2.22281C27.0776 2.23213 27.0687 2.24445 27.0637 2.25844C26.2705 4.32438 25.6406 6.4393 25.1739 8.6032C25.173 8.60705 25.1731 8.61104 25.1741 8.61485C25.1752 8.61866 25.1771 8.62217 25.1797 8.62508C25.1824 8.62799 25.1857 8.63022 25.1894 8.63157C25.1931 8.63292 25.1971 8.63336 25.201 8.63285C29.1326 8.21863 33.0647 8.21863 36.9972 8.63285ZM24.7163 2.63742C22.4175 3.15477 20.2132 3.93723 18.1034 4.9848C17.9315 5.07074 17.7893 5.19105 17.6767 5.34574C16.4152 7.08855 15.3375 8.93879 14.4438 10.8964C14.4417 10.9005 14.4409 10.9051 14.4416 10.9096C14.4422 10.9141 14.4443 10.9183 14.4474 10.9218C14.4506 10.9252 14.4547 10.9277 14.4593 10.9289C14.464 10.9301 14.4688 10.93 14.4734 10.9287C17.2707 10.0005 20.1285 9.32723 23.047 8.90871C23.0678 8.90572 23.0873 8.89633 23.1027 8.88181C23.1182 8.86729 23.1288 8.84834 23.1333 8.8275C23.5682 6.73836 24.1388 4.68746 24.8452 2.6748C24.8473 2.66869 24.8482 2.66223 24.8478 2.6558C24.8475 2.64938 24.8458 2.64311 24.8431 2.63735C24.8403 2.6316 24.8365 2.62648 24.8318 2.62229C24.827 2.6181 24.8215 2.61492 24.8156 2.61293C24.8001 2.60777 24.7838 2.60906 24.7666 2.6168C24.7408 2.62883 24.724 2.6357 24.7163 2.63742ZM44.1193 4.98996C42 3.91488 39.7107 3.1234 37.3788 2.61035C37.3737 2.6094 37.3684 2.6098 37.3635 2.61151C37.3587 2.61321 37.3543 2.61617 37.3509 2.62008C37.3475 2.62399 37.3452 2.62872 37.3442 2.6338C37.3432 2.63887 37.3436 2.64412 37.3452 2.64902C38.0534 4.66426 38.6253 6.71816 39.061 8.81074C39.0662 8.83526 39.0788 8.85756 39.0971 8.87462C39.1153 8.89168 39.1382 8.90268 39.1628 8.90613C42.0675 9.32809 44.9129 9.99926 47.699 10.9196C47.7049 10.9214 47.7111 10.9214 47.717 10.9197C47.7229 10.918 47.7282 10.9147 47.7323 10.9101C47.7364 10.9055 47.739 10.8998 47.74 10.8937C47.7409 10.8877 47.7401 10.8814 47.7377 10.8758C46.8465 8.92246 45.7714 7.07309 44.5124 5.3277C44.4076 5.18332 44.2765 5.07074 44.1193 4.98996ZM13.9243 7.52684C11.475 9.31348 9.35626 11.4318 7.5679 13.8819C7.50345 13.9696 7.51891 13.9872 7.6143 13.9348C8.98587 13.1699 10.3995 12.4927 11.8553 11.9032C11.8741 11.8958 11.8912 11.8847 11.9056 11.8706C11.9199 11.8564 11.9314 11.8394 11.9391 11.8207C12.5295 10.3623 13.2075 8.94566 13.9733 7.57066C14.0214 7.48301 14.005 7.4684 13.9243 7.52684ZM50.3364 11.9019C51.8536 12.522 53.1247 13.1343 54.58 13.927C54.6685 13.976 54.6831 13.9597 54.6238 13.878C52.8462 11.4314 50.6535 9.27352 48.2726 7.52813C48.1953 7.47141 48.1789 7.48559 48.2236 7.57066C48.93 8.89582 49.5604 10.1359 50.25 11.8155C50.2578 11.8347 50.2695 11.8523 50.2843 11.8671C50.2991 11.8819 50.3168 11.8938 50.3364 11.9019ZM24.7279 10.6644C24.0842 14.1449 23.6292 17.6503 23.3628 21.1806C23.3602 21.2115 23.374 21.2261 23.404 21.2244C28.5336 20.9314 33.6632 20.9314 38.7929 21.2244C38.8238 21.2261 38.838 21.2115 38.8354 21.1806C38.569 17.6614 38.1161 14.1668 37.4767 10.6966C37.473 10.6768 37.4631 10.6587 37.4485 10.645C37.4339 10.6313 37.4153 10.6228 37.3955 10.6206C33.1872 10.1325 28.9784 10.1337 24.7691 10.6245C24.7459 10.6279 24.7322 10.6412 24.7279 10.6644ZM13.3777 13.4179C12.2395 16.3737 11.439 19.5009 10.9543 22.6346C10.9536 22.639 10.954 22.6435 10.9554 22.6477C10.9568 22.6519 10.9591 22.6557 10.9623 22.6589C10.9654 22.662 10.9692 22.6644 10.9734 22.6658C10.9776 22.6671 10.9821 22.6675 10.9865 22.6669C14.4137 22.0533 17.8632 21.6214 21.3351 21.3714C21.3536 21.3704 21.3711 21.3627 21.3842 21.3496C21.3973 21.3365 21.405 21.319 21.406 21.3005C21.6543 17.8312 22.0853 14.3846 22.6989 10.9609C22.7049 10.9291 22.6916 10.9158 22.659 10.9209C19.5085 11.4108 16.4414 12.2169 13.4576 13.3392C13.4395 13.3457 13.4229 13.3561 13.4091 13.3696C13.3953 13.3832 13.3846 13.3997 13.3777 13.4179ZM48.7289 13.3328C45.7254 12.2616 42.7554 11.4237 39.574 10.9235C39.5645 10.922 39.5548 10.9227 39.5456 10.9256C39.5365 10.9286 39.5282 10.9337 39.5214 10.9405C39.5146 10.9473 39.5095 10.9556 39.5065 10.9647C39.5036 10.9739 39.5029 10.9836 39.5044 10.9931C40.112 14.3962 40.5404 17.8217 40.7896 21.2695C40.7917 21.2967 40.8034 21.3222 40.8226 21.3414C40.8418 21.3606 40.8671 21.3721 40.894 21.3739C44.341 21.6214 47.7652 22.0498 51.1666 22.6591C51.2181 22.6677 51.2396 22.6462 51.231 22.5947C50.736 19.4537 49.9308 16.3947 48.8153 13.4179C48.8081 13.3984 48.7966 13.3808 48.7817 13.3661C48.7668 13.3514 48.7488 13.34 48.7289 13.3328ZM56.8359 17.6576C55.1678 16.442 53.2664 15.2857 51.2903 14.4182C51.2353 14.3941 51.2173 14.4104 51.2362 14.4671C52.1566 17.2507 52.8282 20.0935 53.251 22.9956C53.2547 23.0216 53.2666 23.0459 53.2848 23.065C53.303 23.0842 53.3268 23.0973 53.3528 23.1026C55.4385 23.5357 57.486 24.1059 59.4952 24.8132C59.502 24.8157 59.5093 24.8163 59.5164 24.815C59.5234 24.8137 59.53 24.8105 59.5355 24.8057C59.5409 24.801 59.5449 24.7948 59.5471 24.788C59.5493 24.7811 59.5497 24.7738 59.548 24.7668C59.0376 22.4473 58.2534 20.2198 57.1955 18.0843C57.1104 17.9124 56.9905 17.7702 56.8359 17.6576ZM33.665 34.3561C33.6663 33.6858 34.0156 33.0657 34.5982 32.7564C34.8002 32.6498 35.1792 32.5587 35.7352 32.4831C36.8799 32.3284 38.0216 32.157 39.1602 31.9688C39.1773 31.9658 39.1928 31.9571 39.2041 31.9442C39.2153 31.9312 39.2217 31.9149 39.2221 31.8979C39.2427 28.9983 39.1637 26.1014 38.9849 23.207C38.9846 23.1996 38.9815 23.1925 38.9763 23.1873C38.971 23.182 38.964 23.1789 38.9566 23.1786C33.7178 22.8581 28.4795 22.8581 23.2416 23.1786C23.2341 23.1789 23.2269 23.182 23.2214 23.1872C23.2159 23.1924 23.2126 23.1995 23.212 23.207C22.8923 28.4371 22.8918 33.6669 23.2107 38.8962C23.2113 38.911 23.2175 38.9251 23.228 38.9356C23.2385 38.9461 23.2525 38.9523 23.2674 38.9529C26.7126 39.1634 30.1609 39.2348 33.6121 39.1669C33.6249 39.1665 33.637 39.1614 33.6459 39.1525C33.6548 39.1435 33.6598 39.1316 33.6598 39.1192C33.6581 37.5371 33.6598 35.9494 33.665 34.3561ZM21.2139 23.3269C17.6922 23.5959 14.195 24.05 10.7222 24.6894C10.6827 24.6963 10.6608 24.7195 10.6565 24.759C10.1666 28.9674 10.1671 33.1753 10.6578 37.3828C10.6597 37.3962 10.6657 37.4087 10.675 37.4184C10.6842 37.4281 10.6963 37.4346 10.7093 37.437C14.1821 38.0763 17.6793 38.5301 21.201 38.7982C21.2423 38.8016 21.2616 38.7827 21.259 38.7415C20.9651 33.6179 20.9651 28.4947 21.259 23.372C21.2607 23.3393 21.2457 23.3243 21.2139 23.3269ZM49.117 27.0935C50.1366 26.7622 50.9848 27.1979 51.7557 27.8721C51.7615 27.8775 51.7689 27.8809 51.7767 27.8819C51.7846 27.883 51.7926 27.8815 51.7996 27.8779C51.8066 27.8742 51.8124 27.8685 51.8161 27.8615C51.8197 27.8544 51.8211 27.8465 51.8201 27.8386L51.5533 24.7861C51.5511 24.7613 51.5409 24.7379 51.5241 24.7195C51.5073 24.7011 51.485 24.6887 51.4605 24.6843C47.9963 24.0457 44.5081 23.5941 40.9959 23.3295C40.9555 23.3269 40.9366 23.3454 40.9391 23.3849C41.0938 26.0489 41.1664 28.7152 41.157 31.3835C41.157 31.4222 41.1755 31.4355 41.2124 31.4235C43.672 30.6475 45.7963 29.4538 47.8395 27.894C48.4264 27.4463 48.8523 27.1795 49.117 27.0935ZM2.66431 26.8898C2.5311 26.9397 2.40649 26.9904 2.29048 27.042C2.27663 27.0483 2.26456 27.058 2.25535 27.0701C2.24613 27.0823 2.24004 27.0965 2.23763 27.1116C1.87927 29.7516 1.8797 32.3911 2.23892 35.0303C2.24088 35.0459 2.24706 35.0607 2.25681 35.0732C2.26656 35.0856 2.27953 35.0953 2.29434 35.1012C4.36028 35.8901 6.47477 36.5191 8.63782 36.9884C8.64167 36.9892 8.64566 36.9891 8.64947 36.9881C8.65328 36.9871 8.65679 36.9852 8.6597 36.9825C8.66261 36.9799 8.66483 36.9766 8.66619 36.9729C8.66754 36.9692 8.66798 36.9652 8.66747 36.9613C8.25411 33.0443 8.25282 29.1268 8.6636 25.2089C8.66438 25.2009 8.66325 25.1927 8.66031 25.1852C8.65738 25.1777 8.65271 25.1709 8.64668 25.1655C8.64066 25.1601 8.63345 25.1562 8.62564 25.1541C8.61784 25.1521 8.60964 25.1518 8.60173 25.1535C6.55813 25.5883 4.57899 26.1671 2.66431 26.8898ZM60.1629 31.8901C60.1699 31.8914 60.177 31.8913 60.1839 31.8896C60.1908 31.888 60.1972 31.8849 60.2027 31.8806C60.2082 31.8764 60.2127 31.8709 60.2158 31.8648C60.219 31.8586 60.2207 31.8519 60.2209 31.845C60.2588 30.2672 60.1732 28.6967 59.9644 27.1335C59.9575 27.0768 59.9275 27.0385 59.8742 27.0188C57.8323 26.2324 55.7419 25.6085 53.6029 25.147C53.5694 25.1402 53.5535 25.1539 53.5552 25.1883L53.8401 29.3081C53.8405 29.3149 53.8425 29.3215 53.8461 29.3273C53.8497 29.3332 53.8547 29.3381 53.8607 29.3416C55.8192 30.543 57.92 31.3925 60.1629 31.8901ZM10.8718 47.6992C10.9457 47.7336 10.9702 47.7121 10.9452 47.6347C10.024 44.8478 9.35497 42.0015 8.93817 39.096C8.93631 39.0817 8.92998 39.0683 8.92005 39.0577C8.91012 39.0471 8.89709 39.0397 8.88274 39.0367C6.78501 38.5967 4.72466 38.023 2.70169 37.3158C2.69475 37.3133 2.68728 37.3127 2.68005 37.3141C2.67282 37.3155 2.6661 37.3188 2.66057 37.3237C2.65505 37.3286 2.65093 37.3348 2.64864 37.3418C2.64635 37.3488 2.64597 37.3563 2.64755 37.3635C3.16489 39.6932 3.95079 41.9212 5.00524 44.0473C5.09032 44.2174 5.20977 44.3588 5.3636 44.4714C7.04282 45.6908 8.87888 46.7668 10.8718 47.6992ZM13.4486 48.7807C16.3683 49.9447 19.5678 50.7246 22.6628 51.2119C22.6678 51.2126 22.6729 51.212 22.6777 51.2104C22.6825 51.2087 22.6868 51.206 22.6903 51.2023C22.6938 51.1987 22.6965 51.1943 22.6979 51.1894C22.6994 51.1846 22.6998 51.1795 22.6989 51.1745C22.0888 47.7602 21.6586 44.3231 21.4086 40.8633C21.4068 40.8355 21.3951 40.8094 21.3756 40.7897C21.3562 40.77 21.3303 40.7581 21.3029 40.7563C17.8465 40.5062 14.4132 40.0757 11.0033 39.4646C10.9967 39.4636 10.99 39.4641 10.9836 39.4661C10.9773 39.4681 10.9715 39.4715 10.9667 39.4762C10.962 39.4808 10.9584 39.4865 10.9562 39.4928C10.954 39.4991 10.9534 39.5058 10.9543 39.5123C11.4458 42.6577 12.2511 45.7205 13.37 48.7008C13.3846 48.7395 13.4108 48.7661 13.4486 48.7807ZM34.606 51.712C33.9408 49.5503 33.6843 47.5484 33.665 45.2139C33.6529 43.8629 33.6525 42.5107 33.6637 41.1572C33.6637 41.1496 33.6622 41.1421 33.6592 41.1352C33.6563 41.1282 33.652 41.1219 33.6466 41.1166C33.6412 41.1113 33.6348 41.1072 33.6278 41.1044C33.6207 41.1016 33.6132 41.1003 33.6057 41.1005C30.2034 41.1658 26.8037 41.1 23.4066 40.9032C23.3748 40.9015 23.3602 40.917 23.3628 40.9497C23.6292 44.4714 24.0825 47.969 24.7227 51.4426C24.7257 51.4589 24.7338 51.4739 24.7458 51.4853C24.7579 51.4966 24.7733 51.5038 24.7898 51.5058C28.0434 51.8873 31.3047 51.9716 34.5738 51.7584C34.5792 51.7581 34.5844 51.7565 34.5892 51.7538C34.5939 51.7512 34.598 51.7475 34.6011 51.743C34.6042 51.7385 34.6062 51.7334 34.6071 51.7281C34.6079 51.7227 34.6075 51.7172 34.606 51.712ZM13.9681 54.5493C13.2058 53.1811 12.5308 51.7713 11.943 50.3198C11.934 50.2978 11.9208 50.2778 11.9039 50.2609C11.8871 50.2441 11.8671 50.2308 11.845 50.2219C10.3944 49.6332 8.98501 48.9582 7.61688 48.1968C7.52665 48.1469 7.51204 48.1632 7.57305 48.2457C9.36399 50.6855 11.4798 52.8009 13.9204 54.5918C14.0003 54.6502 14.0162 54.6361 13.9681 54.5493ZM18.1073 57.1519C20.2819 58.187 22.4475 58.9978 24.8014 59.5147C24.8084 59.5163 24.8157 59.516 24.8226 59.5138C24.8295 59.5116 24.8356 59.5076 24.8403 59.5021C24.8451 59.4967 24.8483 59.4901 24.8496 59.483C24.8509 59.4759 24.8503 59.4686 24.8478 59.4619C24.1414 57.4492 23.5703 55.3987 23.1346 53.3105C23.1296 53.2874 23.1177 53.2664 23.1004 53.2502C23.0831 53.2341 23.0613 53.2236 23.0379 53.2202C20.1247 52.8009 17.2715 52.1284 14.4786 51.2029C14.4737 51.2015 14.4686 51.2016 14.4638 51.203C14.459 51.2045 14.4547 51.2072 14.4513 51.211C14.448 51.2147 14.4457 51.2193 14.4449 51.2242C14.444 51.2292 14.4445 51.2343 14.4463 51.2389C15.3444 53.2043 16.4281 55.0623 17.6974 56.8129C17.8039 56.9598 17.9406 57.0728 18.1073 57.1519ZM25.1791 53.5567C25.6431 55.6931 26.2653 57.7822 27.0456 59.8241C27.0697 59.8877 27.1148 59.9238 27.181 59.9324C29.8012 60.283 32.421 60.2817 35.0404 59.9285C35.0851 59.9225 35.1156 59.8984 35.1319 59.8563C35.6338 58.5853 36.063 57.2898 36.4197 55.9698C36.4309 55.9286 36.427 55.889 36.4081 55.8512L35.3111 53.6869C35.305 53.6747 35.2952 53.6646 35.283 53.658C35.2709 53.6513 35.2568 53.6483 35.2428 53.6495C31.9015 53.9021 28.565 53.8514 25.2332 53.4974C25.2253 53.4966 25.2173 53.4977 25.21 53.5005C25.2026 53.5034 25.196 53.5079 25.1907 53.5136C25.1854 53.5194 25.1816 53.5263 25.1796 53.5338C25.1776 53.5413 25.1774 53.5491 25.1791 53.5567ZM37.8854 58.0568C37.8808 58.0511 37.8749 58.0467 37.868 58.0441C37.8612 58.0415 37.8538 58.0409 37.8467 58.0422C37.8395 58.0435 37.8328 58.0468 37.8274 58.0516C37.8219 58.0565 37.8179 58.0627 37.8157 58.0697L37.3491 59.467C37.3468 59.4738 37.3464 59.4811 37.3479 59.4882C37.3494 59.4952 37.3527 59.5017 37.3576 59.507C37.3625 59.5123 37.3687 59.5161 37.3756 59.5182C37.3825 59.5202 37.3898 59.5204 37.3968 59.5186L38.7348 59.1899C38.7415 59.1884 38.7477 59.1852 38.7527 59.1806C38.7578 59.176 38.7616 59.1702 38.7638 59.1638C38.766 59.1573 38.7665 59.1504 38.7653 59.1437C38.7641 59.137 38.7611 59.1307 38.7568 59.1254L37.8854 58.0568Z" fill="#3B3B58"/>
</g>
<defs>
<clipPath id="clip0_1427_4335">
<rect width="66" height="66" fill="white"/>
</clipPath>
</defs>
</svg>
