<svg width="56" height="56" viewBox="0 0 56 56" fill="none" xmlns="http://www.w3.org/2000/svg">
<path d="M56 12.4905C55.9062 13.9724 55.2127 14.8883 53.9198 15.2382C53.1739 15.4408 52.0987 15.3266 51.2251 15.3524C51.1646 15.3536 51.1344 15.3843 51.1344 15.4444V17.4684C51.1344 17.5507 51.1758 17.5918 51.2584 17.5918L52.5688 17.5936C54.5564 17.4757 55.7002 18.3683 56 20.2714C55.8205 23.1812 53.483 23.1131 51.2342 23.0762C51.1677 23.0762 51.1344 23.1093 51.1344 23.1756L51.1362 25.2789C51.1362 25.3056 51.147 25.3314 51.1661 25.3504C51.1851 25.3694 51.2111 25.3801 51.238 25.3801L53.4478 25.3745C54.9789 25.5918 55.8297 26.4692 56 28.0062C55.8889 29.4611 55.1955 30.3624 53.9198 30.7098C53.1832 30.9087 52.1226 30.7964 51.2602 30.8204C51.1764 30.8227 51.1344 30.8658 51.1344 30.9492L51.1362 33.0137C51.1362 33.0406 51.147 33.0663 51.1661 33.0853C51.1851 33.1044 51.2111 33.115 51.238 33.115L53.0314 33.1095C54.876 33.1562 55.8654 34.0948 56 35.9254C55.6298 38.7688 53.47 38.5146 51.2269 38.5534C51.1652 38.5546 51.1344 38.5859 51.1344 38.6473L51.1362 40.7486C51.1362 40.7755 51.147 40.8013 51.1661 40.8203C51.1851 40.8392 51.2111 40.8498 51.238 40.8498L53.2627 40.8444C54.9802 41.0015 55.8927 41.9401 56 43.6602C55.8494 44.8647 55.2689 45.6719 54.2584 46.0819C53.4312 46.4172 52.2245 46.2736 51.2528 46.2882C51.1887 46.2894 51.1498 46.3215 51.1362 46.384L50.803 47.896C49.9492 49.7352 48.5094 50.785 46.4834 51.0452C46.4144 51.055 46.3798 51.0938 46.3798 51.1613L46.3742 51.8814C46.368 52.2976 46.3607 52.7327 46.352 53.1871C46.2891 56.5776 41.5937 57.0047 40.9293 53.8022C40.8164 53.2534 40.8683 52.5277 40.8553 51.9016L40.859 51.1355C40.859 51.0606 40.8214 51.0232 40.7461 51.0232L38.6991 51.0361C38.6178 51.0373 38.5716 51.0778 38.5604 51.1576C38.5283 51.3811 38.5356 51.5774 38.5826 51.747C38.5362 52.6052 38.6492 53.5811 38.3605 54.316C37.2759 57.06 33.0747 56.2478 33.0913 53.189C33.0938 52.7002 33.0909 52.2097 33.0822 51.7174L33.0859 51.1632C33.0859 51.103 33.0562 51.0728 32.9971 51.0728H30.9168C30.8563 51.0728 30.8261 51.103 30.8261 51.1632L30.8299 52.4081C30.9241 53.8095 30.53 55.176 29.227 55.7525C27.8686 56.3565 26.3066 55.8242 25.6348 54.491C25.2294 53.6861 25.2924 52.6033 25.309 51.6714C25.3534 51.4859 25.3496 51.3055 25.2978 51.1299C25.2818 51.0746 25.2448 51.0477 25.1869 51.049L23.1695 51.0838C23.0955 51.0851 23.0585 51.1226 23.0585 51.1963L23.0566 52.0397C23.0838 52.9727 23.0499 53.6015 22.9549 53.9255C22.0609 56.9735 17.6302 56.5278 17.5655 53.281C17.5543 52.7665 17.5445 52.2416 17.5359 51.7064L17.5395 51.1632C17.5395 51.103 17.51 51.0728 17.4507 51.0728H15.3649C15.2897 51.0728 15.2471 51.1103 15.2372 51.1852C15.2101 51.3878 15.2169 51.548 15.2576 51.6659C15.2243 52.5775 15.3409 53.6142 15.0133 54.386C14.0398 56.688 10.6048 56.4468 9.88486 54.0378C9.69237 53.3952 9.7738 52.4706 9.76271 51.7174L9.75716 51.1778C9.75716 51.1078 9.72261 51.068 9.65351 51.0582C6.97486 50.6665 5.4227 49.1367 4.99702 46.4688C4.46648 46.3128 3.92605 46.2373 3.37577 46.2422C2.72431 46.2484 2.3011 46.2282 2.10616 46.1815C0.819266 45.8671 0.117214 44.9808 0 43.5221C0.179522 41.0746 1.99141 40.7817 3.98652 40.7983L4.84711 40.791C4.92361 40.791 4.96247 40.7529 4.96372 40.6768L4.99517 38.6842C4.99641 38.6006 4.95569 38.5583 4.87303 38.5571C3.88657 38.535 2.60215 38.6988 1.74711 38.3563C0.61815 37.9033 0.0357812 37.0009 0 35.6491C0.227026 34.053 1.15487 33.2064 2.78353 33.1095L4.86747 33.115C4.89267 33.115 4.91688 33.1052 4.93488 33.0876C4.95287 33.07 4.96323 33.0462 4.96372 33.021L4.99517 30.9456C4.99641 30.867 4.95816 30.8271 4.88043 30.8258C3.88287 30.7983 2.61881 30.9566 1.75821 30.6196C0.628021 30.1789 0.0419504 29.277 0 27.9141C0.187542 26.4371 1.02285 25.5906 2.50592 25.3745L4.86747 25.3801C4.89267 25.3801 4.91688 25.37 4.93488 25.3521C4.95287 25.3342 4.96323 25.3098 4.96372 25.2843L5.00072 23.2125C5.00197 23.1339 4.96309 23.0935 4.88413 23.091C3.89212 23.0614 2.62806 23.2235 1.77117 22.8883C0.633573 22.4451 0.0431842 21.5421 0 20.1793C0.279463 17.857 2.02658 17.5605 3.98652 17.5936L4.85266 17.5974C4.88376 17.5974 4.91361 17.5851 4.93578 17.5635C4.95793 17.5417 4.97062 17.5123 4.97112 17.4813L4.98408 15.4702C4.98531 15.3953 4.94828 15.3573 4.87303 15.356C3.87546 15.3266 2.64843 15.4702 1.80262 15.1571C0.667505 14.736 0.0666269 13.8471 0 12.4905C0.340538 9.62117 2.57625 9.89557 4.83786 9.86242C4.91313 9.8612 4.95631 9.82375 4.96742 9.75008C5.39308 7.04902 6.96313 5.49834 9.67758 5.0981C9.73927 5.08951 9.77012 5.05391 9.77012 4.99128C9.77012 3.96917 9.6091 2.58978 9.99406 1.68922C10.8991 -0.428668 13.9306 -0.614673 14.9596 1.5069C15.3871 2.3872 15.302 3.81816 15.2132 4.86054C15.1971 5.03487 15.2773 5.12204 15.4538 5.12204L17.4526 5.111C17.5093 5.111 17.5376 5.08275 17.5376 5.02628C17.5543 4.00048 17.3878 2.64135 17.745 1.75184C18.6777 -0.572315 22.0128 -0.590732 22.8642 1.81813C23.1677 2.67818 23.0474 4.00601 23.0512 5.02997C23.0512 5.09135 23.082 5.12204 23.1436 5.12204L25.1869 5.11835C25.267 5.11712 25.3084 5.07662 25.3109 4.99682C25.3349 3.97838 25.1795 2.70212 25.4959 1.83286C26.0864 0.204857 27.913 -0.474707 29.425 0.363239C31.187 1.34115 30.7983 3.29882 30.8261 5.03918C30.8274 5.09687 30.8569 5.1251 30.915 5.12389L32.9692 5.08706C33.0458 5.08583 33.0846 5.04776 33.0859 4.97286C33.1154 3.09439 32.7138 1.02623 34.8348 0.180917C36.1026 -0.323694 37.7849 0.284049 38.3346 1.5953C38.6974 2.45902 38.6048 3.84395 38.5308 4.86606C38.5285 4.89886 38.533 4.93178 38.544 4.96277C38.5551 4.99375 38.5725 5.02214 38.595 5.04616C38.6176 5.07018 38.645 5.08931 38.6753 5.10236C38.7056 5.11543 38.7383 5.12212 38.7713 5.12204L40.7702 5.11283C40.8257 5.11283 40.854 5.0852 40.8553 5.02997C40.8831 3.56032 40.5185 1.88812 41.7474 0.75735C42.7375 -0.154262 44.0904 -0.250028 45.188 0.508729C46.7166 1.56399 46.3243 3.36143 46.3854 4.97286C46.3878 5.04285 46.4242 5.08337 46.4945 5.09441C49.2077 5.53149 50.7635 7.10058 51.1621 9.80165C51.1708 9.86059 51.2047 9.89067 51.264 9.8919C52.2374 9.92136 53.5015 9.76298 54.3399 10.1276C55.3034 10.5463 55.8569 11.3339 56 12.4905ZM11.3914 4.85133L13.653 4.84395C13.6805 4.84395 13.7068 4.8331 13.7263 4.81374C13.7457 4.79441 13.7566 4.76818 13.7566 4.74082L13.7492 2.78132C13.7482 2.44827 13.6239 2.12924 13.4039 1.8944C13.1838 1.65956 12.886 1.52812 12.5758 1.529H12.4463C12.2927 1.52943 12.1406 1.56237 11.9989 1.62591C11.8571 1.68946 11.7284 1.78237 11.6202 1.89935C11.5119 2.01633 11.4261 2.15507 11.3678 2.30767C11.3095 2.46025 11.2798 2.62371 11.2803 2.78868L11.2877 4.74819C11.2877 4.77554 11.2986 4.80177 11.3181 4.82112C11.3375 4.84045 11.3639 4.85133 11.3914 4.85133ZM19.1091 4.84579L21.4668 4.84948C21.4816 4.84948 21.4958 4.84366 21.5062 4.8333C21.5166 4.82294 21.5224 4.80888 21.5224 4.79422L21.5261 2.785C21.5266 2.45269 21.4041 2.13377 21.1856 1.89828C20.9669 1.66278 20.6701 1.52996 20.36 1.529H20.2306C20.0768 1.52852 19.9245 1.56055 19.7823 1.62324C19.6401 1.68594 19.5107 1.77808 19.4018 1.89439C19.2928 2.01071 19.2063 2.14891 19.1472 2.30109C19.0881 2.45328 19.0574 2.61646 19.0571 2.78132L19.0535 4.79055C19.0535 4.8052 19.0593 4.81925 19.0697 4.82961C19.0801 4.83997 19.0943 4.84579 19.1091 4.84579ZM26.8693 4.84395L29.2566 4.85133C29.267 4.85133 29.2768 4.84725 29.2841 4.83999C29.2914 4.83274 29.2955 4.82291 29.2955 4.81264L29.3029 2.76659C29.3034 2.60453 29.2734 2.44396 29.2143 2.29406C29.1552 2.14415 29.0684 2.00785 28.9587 1.89292C28.849 1.778 28.7187 1.6867 28.5752 1.62426C28.4317 1.56182 28.2777 1.52945 28.1221 1.529H28.026C27.7118 1.52808 27.4101 1.65716 27.1874 1.88787C26.9645 2.11857 26.8388 2.432 26.8377 2.75921L26.8304 4.80528C26.8304 4.81553 26.8344 4.82538 26.8417 4.83263C26.849 4.83988 26.8588 4.84395 26.8693 4.84395ZM34.6572 4.84764H37.0151C37.0297 4.84764 37.0438 4.84182 37.0543 4.83146C37.0647 4.82109 37.0706 4.80704 37.0706 4.79239V2.75738C37.0706 2.43062 36.9449 2.11724 36.7214 1.88617C36.4978 1.65513 36.1948 1.52532 35.8786 1.52532H35.7935C35.4774 1.52532 35.1742 1.65513 34.9507 1.88617C34.7272 2.11724 34.6016 2.43062 34.6016 2.75738V4.79239C34.6016 4.80704 34.6075 4.82109 34.618 4.83146C34.6282 4.84182 34.6424 4.84764 34.6572 4.84764ZM42.4821 4.84764H44.7437C44.7712 4.84764 44.7975 4.83677 44.817 4.81743C44.8364 4.7981 44.8474 4.77185 44.8474 4.74451V2.78315C44.8474 2.45053 44.7241 2.13153 44.5048 1.89633C44.2854 1.66113 43.9878 1.529 43.6777 1.529H43.5481C43.2379 1.529 42.9405 1.66113 42.721 1.89633C42.5017 2.13153 42.3785 2.45053 42.3785 2.78315V4.74451C42.3785 4.77185 42.3894 4.7981 42.4088 4.81743C42.4282 4.83677 42.4547 4.84764 42.4821 4.84764ZM49.6149 10.1055C49.6149 9.64794 49.5244 9.19486 49.3483 8.77211C49.1724 8.34937 48.9144 7.96525 48.5893 7.6417C48.2642 7.31814 47.8781 7.06148 47.4533 6.88637C47.0285 6.71126 46.5732 6.62114 46.1134 6.62114H9.99035C9.06166 6.62114 8.17101 6.98824 7.51433 7.6417C6.85765 8.29514 6.48874 9.1814 6.48874 10.1055V46.0396C6.48874 46.9638 6.85765 47.85 7.51433 48.5035C8.17101 49.157 9.06166 49.5241 9.99035 49.5241H46.1134C46.5732 49.5241 47.0285 49.4338 47.4533 49.2588C47.8781 49.0837 48.2642 48.827 48.5893 48.5035C48.9144 48.1799 49.1724 47.7958 49.3483 47.373C49.5244 46.9502 49.6149 46.4973 49.6149 46.0396V10.1055ZM4.86562 13.7023V11.5107C4.86562 11.494 4.86232 11.4775 4.8559 11.4621C4.84949 11.4466 4.84008 11.4326 4.82823 11.4208C4.81636 11.409 4.80228 11.3997 4.78679 11.3933C4.77129 11.3869 4.7547 11.3836 4.73793 11.3836H2.76687C2.43899 11.3836 2.12453 11.508 1.89268 11.7294C1.66082 11.9508 1.53057 12.251 1.53057 12.5641V12.6488C1.53057 12.9619 1.66082 13.2622 1.89268 13.4836C2.12453 13.705 2.43899 13.8293 2.76687 13.8293H4.73793C4.77179 13.8293 4.80427 13.8159 4.82823 13.7921C4.85217 13.7683 4.86562 13.736 4.86562 13.7023ZM51.1325 11.5125L51.1362 13.7336C51.1367 13.7664 51.1502 13.7978 51.1737 13.8209C51.1972 13.844 51.229 13.857 51.2621 13.857L53.2072 13.8551C53.3728 13.8549 53.5369 13.8234 53.6898 13.7627C53.8428 13.7019 53.9817 13.6129 54.0985 13.5009C54.2155 13.3889 54.308 13.2559 54.371 13.1097C54.434 12.9635 54.4662 12.8069 54.4658 12.6488V12.5825C54.4648 12.2639 54.3314 11.9587 54.0946 11.7339C53.858 11.5091 53.5374 11.3831 53.2036 11.3836L51.2584 11.3855C51.2417 11.3855 51.2252 11.3888 51.2098 11.3952C51.1944 11.4016 51.1804 11.411 51.1688 11.4228C51.1571 11.4346 51.1478 11.4486 51.1415 11.4641C51.1353 11.4795 51.1324 11.4959 51.1325 11.5125ZM4.86007 21.45L4.87118 19.2806C4.87142 19.26 4.8676 19.2396 4.85991 19.2206C4.85223 19.2015 4.84084 19.184 4.82641 19.1694C4.81197 19.1546 4.79477 19.143 4.77577 19.1349C4.75678 19.1268 4.73637 19.1224 4.71571 19.1221L2.82425 19.113C2.65529 19.112 2.4878 19.1416 2.33134 19.2002C2.17488 19.2587 2.03252 19.3452 1.91238 19.4544C1.79225 19.5638 1.69669 19.6938 1.63119 19.8371C1.56567 19.9805 1.53148 20.1343 1.53057 20.2897V20.4039C1.52872 20.718 1.66241 21.0199 1.90223 21.2433C2.14205 21.4668 2.46837 21.5934 2.80944 21.5955L4.7009 21.6048C4.72156 21.605 4.74206 21.6012 4.76124 21.5936C4.78042 21.5858 4.79791 21.5746 4.81269 21.5602C4.82746 21.5458 4.83926 21.5287 4.84739 21.5098C4.85553 21.4909 4.85984 21.4706 4.86007 21.45ZM51.1288 19.2363L51.14 21.4869C51.1401 21.5021 51.1434 21.5172 51.1495 21.5311C51.1555 21.5451 51.1644 21.5578 51.1754 21.5684C51.1863 21.579 51.1994 21.5874 51.2136 21.593C51.2279 21.5986 51.2431 21.6012 51.2584 21.6011L53.1776 21.5919C53.5222 21.5899 53.8518 21.4614 54.094 21.2347C54.3362 21.0082 54.4714 20.7021 54.4695 20.3837V20.3026C54.4686 20.1449 54.434 19.989 54.3678 19.8436C54.3016 19.6983 54.2052 19.5664 54.0839 19.4556C53.9625 19.3449 53.8186 19.2572 53.6606 19.1977C53.5026 19.1383 53.3335 19.1083 53.1628 19.1094L51.2436 19.1186C51.2283 19.1187 51.2131 19.122 51.1991 19.128C51.1851 19.1341 51.1723 19.1428 51.1616 19.1539C51.151 19.1648 51.1426 19.1777 51.137 19.1918C51.1314 19.206 51.1286 19.2212 51.1288 19.2363ZM4.86377 29.1738L4.86747 27.0118C4.86772 26.9909 4.86379 26.9701 4.8559 26.9506C4.848 26.9312 4.83632 26.9134 4.82151 26.8987C4.80671 26.8837 4.78907 26.8719 4.76964 26.8638C4.75022 26.8557 4.72937 26.8515 4.70831 26.8515L2.815 26.8497C2.47416 26.8492 2.14707 26.9743 1.90556 27.1972C1.66404 27.4202 1.52784 27.7233 1.52687 28.0395V28.1314C1.52639 28.2884 1.55924 28.4438 1.62355 28.5889C1.68786 28.7339 1.78237 28.8658 1.90167 28.977C2.02095 29.0883 2.16269 29.1765 2.31877 29.2368C2.47486 29.2972 2.64222 29.3283 2.81129 29.3286L4.70461 29.3305C4.7465 29.3305 4.78671 29.314 4.8165 29.2847C4.8463 29.2553 4.86329 29.2155 4.86377 29.1738ZM51.1362 26.9638L51.1325 29.2071C51.1324 29.2222 51.135 29.2373 51.1408 29.2513C51.1464 29.2653 51.1548 29.2782 51.1655 29.2889C51.1762 29.2998 51.1888 29.3084 51.203 29.3141C51.217 29.32 51.2321 29.323 51.2473 29.323L53.2053 29.3249C53.5388 29.3255 53.8589 29.2001 54.0952 28.9763C54.3315 28.7526 54.4648 28.4486 54.4658 28.1314V28.0541C54.4662 27.8969 54.434 27.741 54.3712 27.5954C54.3082 27.4498 54.2158 27.3176 54.0991 27.206C53.9823 27.0945 53.8437 27.006 53.6909 26.9455C53.5382 26.885 53.3745 26.8537 53.209 26.8534L51.251 26.8515C51.2209 26.8515 51.1919 26.8634 51.1705 26.8844C51.149 26.9054 51.1367 26.934 51.1362 26.9638ZM4.86562 36.9161L4.86932 34.7468C4.86957 34.7267 4.86582 34.7069 4.85831 34.6883C4.8508 34.6698 4.83964 34.653 4.82554 34.6386C4.81141 34.6245 4.79461 34.6133 4.77607 34.6055C4.75754 34.5977 4.73765 34.5938 4.71756 34.5938L2.77982 34.592C2.4498 34.5915 2.13307 34.7132 1.89918 34.9303C1.6653 35.1476 1.53339 35.4426 1.53242 35.7504V35.8977C1.53194 36.0505 1.56374 36.2018 1.62601 36.3431C1.68826 36.4843 1.77977 36.6128 1.89529 36.7211C2.01079 36.8293 2.14805 36.9154 2.29919 36.9742C2.45034 37.0328 2.6124 37.0633 2.77612 37.0634L4.71386 37.0653C4.75379 37.0653 4.79212 37.0496 4.82053 37.0218C4.84893 36.9938 4.86514 36.956 4.86562 36.9161ZM51.1362 34.6932L51.1288 36.9511C51.1288 36.9815 51.1409 37.0104 51.1624 37.0319C51.184 37.0533 51.2131 37.0653 51.2436 37.0653L53.161 37.0726C53.3321 37.0732 53.5016 37.0426 53.66 36.9826C53.8182 36.9225 53.9621 36.8342 54.0836 36.7226C54.2049 36.6111 54.3012 36.4786 54.3671 36.3326C54.4329 36.1867 54.4672 36.0301 54.4676 35.8719V35.7946C54.4684 35.4752 54.3321 35.1685 54.0884 34.942C53.8448 34.7155 53.5139 34.5875 53.1684 34.5865L51.251 34.5791C51.2206 34.5791 51.1913 34.5912 51.1698 34.6125C51.1484 34.634 51.1362 34.6631 51.1362 34.6932ZM4.87488 44.6105V42.522C4.87488 42.4674 4.85304 42.4149 4.81416 42.3763C4.77529 42.3376 4.72257 42.3158 4.66758 42.3158H2.88162C2.5228 42.3158 2.1787 42.4421 1.92497 42.667C1.67126 42.8918 1.52872 43.1968 1.52872 43.5148V43.6179C1.52872 43.9359 1.67126 44.2408 1.92497 44.4657C2.0506 44.5769 2.19974 44.6653 2.36388 44.7255C2.52803 44.7858 2.70396 44.8168 2.88162 44.8168H4.66758C4.72257 44.8168 4.77529 44.795 4.81416 44.7564C4.85304 44.7177 4.87488 44.6653 4.87488 44.6105ZM51.1454 42.4318L51.1233 44.6639C51.1233 44.6969 51.1362 44.7284 51.1594 44.7518C51.1828 44.7753 51.2142 44.7886 51.2473 44.7891L53.1424 44.8095C53.3146 44.8112 53.4854 44.7818 53.6452 44.7228C53.8048 44.6639 53.9502 44.5765 54.0731 44.4656C54.196 44.3548 54.294 44.2227 54.3614 44.077C54.4287 43.9312 54.4642 43.7746 54.4658 43.6161V43.5461C54.4689 43.2262 54.334 42.9182 54.0907 42.6896C53.8474 42.4611 53.5156 42.3306 53.1684 42.3268L51.2731 42.3066C51.2565 42.3064 51.24 42.3094 51.2244 42.3156C51.209 42.3218 51.1949 42.331 51.1831 42.3427C51.1711 42.3544 51.1616 42.3682 51.1552 42.3834C51.1488 42.3988 51.1454 42.4153 51.1454 42.4318ZM13.5401 51.1613L11.4821 51.1502C11.4524 51.1499 11.423 51.1555 11.3955 51.1666C11.368 51.1776 11.343 51.194 11.3218 51.2146C11.3007 51.2353 11.2839 51.2601 11.2723 51.2871C11.2607 51.3144 11.2546 51.3436 11.2544 51.373L11.2452 53.141C11.2441 53.3167 11.274 53.4907 11.333 53.6534C11.392 53.816 11.4791 53.9641 11.5893 54.0888C11.6995 54.2138 11.8306 54.313 11.9751 54.381C12.1196 54.4491 12.2747 54.4846 12.4315 54.4854H12.5536C12.8701 54.4872 13.1744 54.3482 13.3997 54.0988C13.6249 53.8494 13.7526 53.5102 13.7548 53.1558L13.764 51.3878C13.7643 51.3582 13.7587 51.329 13.7476 51.3016C13.7364 51.2742 13.72 51.2493 13.6992 51.2283C13.6784 51.2073 13.6537 51.1905 13.6264 51.179C13.5991 51.1675 13.5697 51.1614 13.5401 51.1613ZM19.0627 53.2828C19.1713 54.1263 19.6198 54.5241 20.4083 54.4762C21.676 54.3989 21.5409 53.0342 21.515 52.1778L21.4982 51.2699C21.4972 51.1999 21.4612 51.1649 21.3909 51.1649H19.2071C19.1343 51.1649 19.0972 51.2011 19.096 51.2736L19.0627 53.2828ZM26.8358 52.8685C26.7341 53.9201 27.4615 54.8151 28.5219 54.3951C29.4602 54.0268 29.3158 53.0931 29.2882 52.1318L29.2919 51.2552C29.2919 51.195 29.2616 51.1649 29.2012 51.1649H26.9783C26.9044 51.1649 26.8668 51.2017 26.8655 51.2755L26.8358 52.8685ZM36.8595 51.1649L34.82 51.1502C34.7894 51.1499 34.759 51.1557 34.7306 51.1672C34.7023 51.1786 34.6764 51.1955 34.6545 51.2168C34.6327 51.2383 34.6153 51.2636 34.6035 51.2918C34.5915 51.3198 34.5851 51.35 34.585 51.3805L34.5739 53.1594C34.5725 53.3322 34.6021 53.5035 34.6607 53.6636C34.7192 53.8236 34.8059 53.9692 34.9155 54.0923C35.0252 54.2152 35.1557 54.3132 35.2998 54.3802C35.4436 54.4474 35.5983 54.4826 35.7546 54.4836H35.8804C36.1959 54.4858 36.4996 54.3496 36.7243 54.1047C36.9493 53.8597 37.0771 53.5264 37.0798 53.1779L37.0908 51.3988C37.0911 51.3683 37.0854 51.3382 37.0739 51.3098C37.0624 51.2817 37.0454 51.2559 37.0239 51.2342C37.0025 51.2125 36.9768 51.1952 36.9486 51.1832C36.9205 51.1714 36.8902 51.1652 36.8595 51.1649ZM42.3822 53.2828C42.4174 54.4983 43.9479 54.9439 44.6197 53.9605C44.9417 53.4873 44.851 52.85 44.8492 52.2662L44.84 51.257C44.8387 51.1957 44.8079 51.1649 44.7474 51.1649H42.5303C42.4611 51.1649 42.423 51.1992 42.4155 51.268C42.3402 51.9507 42.3292 52.6223 42.3822 53.2828Z" fill="#3B3B58"/>
<rect x="18" y="18" width="22" height="5" fill="#EF5E7F"/>
<rect x="18" y="33" width="15" height="6" fill="#F6A36A"/>
<path d="M47.9365 45.3575L47.6464 45.9065C46.5511 47.3164 45.4016 47.5146 43.5164 47.5146C33.2532 47.5158 22.9901 47.5152 12.7269 47.5127C11.6017 47.5127 10.8454 47.2887 9.95236 46.7343C8.83781 45.6929 8.35792 44.4078 8.51268 42.8792C8.52267 32.8801 8.52453 22.8816 8.5183 12.8837C8.5183 10.018 9.96734 8.51627 12.9141 8.50893C23.2733 8.482 33.6326 8.47771 43.9919 8.49608C45.7629 8.49975 47.1409 9.03765 47.9291 10.6091C48.502 11.7565 48.3484 13.2931 48.3335 14.6883C48.2343 23.6012 48.3298 34.0287 48.3109 43.7053C48.3097 44.3086 48.1849 44.8594 47.9365 45.3575ZM46.8039 12.2852C46.8039 11.6742 46.5563 11.0881 46.1157 10.6561C45.6751 10.224 45.0774 9.98125 44.4544 9.98125H12.4142C11.7911 9.98125 11.1935 10.224 10.7529 10.6561C10.3122 11.0881 10.0647 11.6742 10.0647 12.2852V43.7365C10.0647 44.3475 10.3122 44.9336 10.7529 45.3656C11.1935 45.7977 11.7911 46.0404 12.4142 46.0404H44.4544C45.0774 46.0404 45.6751 45.7977 46.1157 45.3656C46.5563 44.9336 46.8039 44.3475 46.8039 43.7365V12.2852Z" fill="#3B3B58"/>
<path d="M19.6136 16.9142C18.7283 16.9164 18.0502 17.1432 17.594 17.6019C17.1378 18.0605 16.92 18.7344 16.92 19.5955L16.92 19.5956C16.9237 25.4933 16.9226 31.3913 16.9167 37.2897C16.8238 38.2203 17.1185 39.0077 17.7979 39.6426L17.8051 39.6493L17.8135 39.6545C18.3564 39.9915 18.821 40.1288 19.5033 40.1288C25.5593 40.1303 31.6151 40.1307 37.6711 40.1299C38.2285 40.1299 38.6905 40.1011 39.0967 39.9621C39.5071 39.8217 39.8537 39.5715 40.187 39.1424L40.1924 39.1355L40.1964 39.1278L40.3676 38.8038L40.3677 38.8039L40.3687 38.8018C40.5227 38.4929 40.5994 38.1525 40.6002 37.7825C40.6043 35.6655 40.5991 33.4883 40.594 31.3186C40.5853 27.6341 40.5766 23.9712 40.6135 20.6615V20.6615C40.6148 20.5343 40.6182 20.4035 40.6217 20.271C40.6292 19.9816 40.6369 19.684 40.6241 19.3976C40.6054 18.9779 40.5425 18.5656 40.3643 18.2087L40.3642 18.2086C40.1225 17.7266 39.7877 17.3993 39.3753 17.1936C38.9649 16.9889 38.4836 16.9077 37.9519 16.9066L37.9518 16.9066C31.839 16.8958 25.7263 16.8983 19.6136 16.9142ZM19.6136 16.9142L19.6138 17.0142M19.6136 16.9142L19.6138 17.0142M19.6138 17.0142C25.7264 16.9983 31.839 16.9958 37.9517 17.0066C38.9967 17.0088 39.8097 17.3261 40.2748 18.2534L17.8662 39.5695C17.2085 38.955 16.9254 38.1968 17.0167 37.2948C17.0226 31.3947 17.0237 25.4949 17.02 19.5955C17.02 17.9046 17.875 17.0185 19.6138 17.0142ZM18.4086 38.6905L18.4086 38.6905C18.1675 38.4542 18.0325 38.134 18.0325 37.8006V19.2424C18.0325 18.909 18.1675 18.5889 18.4086 18.3525C18.6497 18.1161 18.9771 17.9829 19.3189 17.9829H38.2246C38.5663 17.9829 38.8937 18.1161 39.1348 18.3525C39.3758 18.5889 39.5109 18.909 39.5109 19.2424V37.8006C39.5109 38.134 39.3758 38.4542 39.1348 38.6905C38.8937 38.9269 38.5663 39.0601 38.2246 39.0601H19.3189C18.9771 39.0601 18.6497 38.9269 18.4086 38.6905Z" fill="#3B3B58" stroke="#3B3B58" stroke-width="0.2"/>
<path d="M17.5 23.5H39.5" stroke="#3B3B58" stroke-width="1.3"/>
<path d="M33 33.65C33.359 33.65 33.65 33.359 33.65 33C33.65 32.641 33.359 32.35 33 32.35V33.65ZM17 33.65H33V32.35H17V33.65Z" fill="#3B3B58"/>
<path d="M25 17.5V23" stroke="#3B3B58" stroke-width="1.3"/>
<path d="M25 39V33.5" stroke="#3B3B58" stroke-width="1.3"/>
<path d="M33 17.5V23" stroke="#3B3B58" stroke-width="1.3"/>
<path d="M33 39L33 33" stroke="#3B3B58" stroke-width="1.3"/>
</svg>
