<svg width="52" height="52" viewBox="0 0 52 52" fill="none" xmlns="http://www.w3.org/2000/svg">
<path d="M4.87483 13C-0.758501 20.3667 1.80547 30.875 2.16658 35.2083C29.7917 47.125 48.2878 13.0404 38.5378 4.91539C28.7878 -3.20961 11.9165 3.79167 4.87483 13Z" fill="#EF5E7F"/>
<path d="M23.6977 0H28.4945C29.2694 0.116797 30.1195 0.201094 30.8192 0.332109C34.9075 1.09315 38.6013 2.73745 41.9007 5.265C42.133 5.4424 42.288 5.5988 42.3659 5.73422C42.8249 6.53555 42.0155 7.44859 41.1613 7.16422C41.0232 7.11818 40.8164 6.9919 40.5408 6.78539C36.5975 3.82654 32.1649 2.22185 27.2432 1.97133C17.2952 1.46453 8.0347 7.29828 4.09204 16.4267C0.201184 25.4353 2.24564 35.9227 9.17931 42.8462C18.5322 52.1848 33.6762 52.197 43.0443 42.8157C50.7499 35.099 52.2763 23.2091 46.7767 13.7983C46.4944 13.3159 45.8921 12.5846 46.0485 12.0067C46.2689 11.1912 47.3861 10.9535 47.8634 11.6797C50.2089 15.2493 51.5877 19.2214 52.0001 23.596V28.3136C50.4309 44.2325 35.1834 55.0611 19.6017 51.0809C5.79321 47.5536 -2.61718 33.3491 0.886731 19.5254C3.59743 8.83391 12.7309 1.05828 23.6977 0Z" fill="#3B3B58"/>
<path d="M26.1127 9.25235H26.0904C25.5356 9.25235 25.0859 9.70206 25.0859 10.2568V29.7121C25.0859 30.2669 25.5356 30.7166 26.0904 30.7166H26.1127C26.6675 30.7166 27.1172 30.2669 27.1172 29.7121V10.2568C27.1172 9.70206 26.6675 9.25235 26.1127 9.25235Z" fill="#3B3B58"/>
<path d="M16.0555 22.8302C15.3147 25.2684 15.4126 27.669 16.349 30.032C16.7563 31.0619 15.5771 31.9709 14.7555 31.202C14.6397 31.093 14.5205 30.8828 14.398 30.5713C12.1331 24.8056 14.4203 18.3209 19.6569 15.1755C20.1362 14.888 20.5872 14.693 21.0574 15.0221C21.3323 15.2144 21.4803 15.4798 21.5012 15.8184C21.55 16.575 20.7304 16.9102 20.1941 17.2656C18.234 18.5656 16.7258 20.6263 16.0555 22.8302Z" fill="#3B3B58"/>
<path d="M37.5101 31.2356C35.4504 35.6545 31.136 38.4658 26.2275 38.546C24.1526 38.5806 22.034 38.2424 20.3278 37.1587C19.7184 36.7727 19.6828 35.9206 20.2435 35.487C20.8305 35.034 21.4419 35.4484 22.0025 35.7348C23.337 36.4152 24.9925 36.5513 26.457 36.5026C30.9299 36.3502 34.8715 33.3582 36.1776 29.0479C37.4431 24.8706 36.0141 20.4181 32.5955 17.68C32.2268 17.3855 31.2711 16.901 31.0081 16.4552C30.5795 15.732 31.2396 14.8241 32.0521 14.9764C32.2248 15.0082 32.4601 15.1176 32.758 15.3045C38.0951 18.6479 40.1883 25.4912 37.5101 31.2356Z" fill="#3B3B58"/>
<path d="M17.7227 34.772C18.2842 34.772 18.7393 34.3168 18.7393 33.7553C18.7393 33.1938 18.2842 32.7387 17.7227 32.7387C17.1612 32.7387 16.7061 33.1938 16.7061 33.7553C16.7061 34.3168 17.1612 34.772 17.7227 34.772Z" fill="#3B3B58"/>
</svg>
