<svg width="72" height="64" viewBox="0 0 72 64" fill="none" xmlns="http://www.w3.org/2000/svg">
<rect x="18" y="20" width="4" height="4" fill="#FB8A9D"/>
<rect x="7" y="40" width="4" height="4" fill="#FB8A9D"/>
<rect x="18" y="30" width="4" height="4" fill="#FAB094"/>
<rect x="7" y="30" width="4" height="4" fill="#FAB094"/>
<rect x="28" y="20" width="4" height="4" fill="#FB8A9D"/>
<rect x="18" y="40" width="4" height="4" fill="#FB8A9D"/>
<rect x="28" y="30" width="4" height="4" fill="#FAB094"/>
<rect x="39" y="20" width="4" height="4" fill="#FB8A9D"/>
<path d="M1.50427 7.21053L1 12L60 11.6316L59.4957 9.78947V8.68421V6.47368C59.4957 5.88421 58.151 5.49123 57.4786 5.36842L53.9487 5H48.4017L6.04274 5.36842C2.00855 5.36842 1.33618 6.59649 1.50427 7.21053Z" fill="#FB8A9D"/>
<rect x="28" y="40" width="4" height="4" fill="#FB8A9D"/>
<rect x="39" y="30" width="4" height="4" fill="#FAB094"/>
<rect x="49" y="20" width="4" height="4" fill="#FB8A9D"/>
<rect x="49" y="30" width="4" height="4" fill="#FAB094"/>
<mask id="path-14-outside-1_1521_3733" maskUnits="userSpaceOnUse" x="-0.753906" y="-0.678665" width="73" height="65" fill="black">
<rect fill="white" x="-0.753906" y="-0.678665" width="73" height="65"/>
<path d="M44.0556 49.876C31.0657 49.8669 18.0652 49.8659 5.05406 49.873C4.10852 49.873 3.41992 49.7998 2.98828 49.6536C1.34754 49.096 0.258281 47.5421 0.256758 45.7871C0.249648 33.3203 0.246094 20.8535 0.246094 8.38672C0.246094 6.67742 1.40695 5.13875 2.99742 4.60097C3.42297 4.45676 4.05266 4.38312 4.88648 4.38007C6.30531 4.37601 7.7216 4.37601 9.13535 4.38007C9.14869 4.38007 9.16147 4.37494 9.1709 4.3658C9.18033 4.35665 9.18563 4.34425 9.18563 4.33132C9.18867 3.50562 9.07594 2.33258 9.32121 1.64398C10.0753 -0.473596 13.2151 0.085505 13.2425 2.36914C13.2507 3.01711 13.2547 3.66 13.2547 4.29781C13.2547 4.30993 13.2595 4.32156 13.2681 4.33013C13.2767 4.3387 13.2883 4.34351 13.3004 4.34351H47.3127C47.3293 4.34351 47.3451 4.33693 47.3569 4.32522C47.3686 4.3135 47.3752 4.29762 47.3752 4.28105C47.3873 3.4782 47.2807 2.4057 47.4833 1.73996C48.0607 -0.143011 50.745 -0.150628 51.3254 1.73234C51.5326 2.4057 51.4275 3.49648 51.4351 4.31C51.4351 4.32858 51.4427 4.34641 51.4561 4.35955C51.4695 4.37269 51.4877 4.38007 51.5067 4.38007C52.8565 4.37601 54.2123 4.37601 55.5743 4.38007C56.5432 4.38312 57.246 4.46082 57.6827 4.61316C59.2702 5.16769 60.3427 6.67437 60.3457 8.38672C60.365 17.6604 60.3762 26.9341 60.3792 36.2077C60.3792 36.2626 60.4061 36.2956 60.46 36.3068C64.9495 37.268 68.4336 39.8655 70.4004 43.9651C74.4588 52.4156 68.9577 62.4398 59.6282 63.5915C51.3696 64.6122 44.2323 58.2031 44.1257 49.9461C44.1253 49.9274 44.1177 49.9096 44.1046 49.8965C44.0915 49.8834 44.0739 49.876 44.0556 49.876ZM11.6246 2.33715C11.6246 2.23331 11.5834 2.13372 11.51 2.0603C11.4365 1.98687 11.337 1.94562 11.2331 1.94562H11.2057C11.1019 1.94562 11.0023 1.98687 10.9289 2.0603C10.8554 2.13372 10.8142 2.23331 10.8142 2.33715V8.03785C10.8142 8.08926 10.8243 8.14018 10.844 8.18768C10.8637 8.23518 10.8925 8.27834 10.9289 8.3147C10.9652 8.35106 11.0084 8.37989 11.0559 8.39957C11.1034 8.41925 11.1543 8.42937 11.2057 8.42937H11.2331C11.2845 8.42937 11.3355 8.41925 11.383 8.39957C11.4305 8.37989 11.4736 8.35106 11.51 8.3147C11.5463 8.27834 11.5752 8.23518 11.5948 8.18768C11.6145 8.14018 11.6246 8.08926 11.6246 8.03785V2.33715ZM49.8157 2.34476C49.8157 2.2385 49.7735 2.13659 49.6983 2.06145C49.6232 1.98631 49.5213 1.9441 49.415 1.9441H49.3998C49.2935 1.9441 49.1916 1.98631 49.1165 2.06145C49.0414 2.13659 48.9991 2.2385 48.9991 2.34476V8.02718C48.9991 8.13345 49.0414 8.23536 49.1165 8.3105C49.1916 8.38564 49.2935 8.42785 49.3998 8.42785H49.415C49.5213 8.42785 49.6232 8.38564 49.6983 8.3105C49.7735 8.23536 49.8157 8.13345 49.8157 8.02718V2.34476ZM13.2319 8.07898C13.1679 10.7663 9.1643 10.6231 9.1841 8.00738C9.18918 7.34926 9.18969 6.69824 9.18563 6.05433C9.18563 6.03858 9.1792 6.02346 9.16778 6.01232C9.15635 6.00118 9.14085 5.99492 9.12469 5.99492C7.76578 5.99797 6.40891 5.99797 5.05406 5.99492C4.26898 5.9939 3.70684 6.06144 3.36762 6.19754C2.20066 6.66675 1.8777 7.64176 1.87617 8.8864C1.87312 10.6241 1.87312 12.3558 1.87617 14.0813C1.87617 14.0939 1.88115 14.1059 1.89 14.1147C1.89886 14.1236 1.91087 14.1286 1.9234 14.1286H58.6608C58.7105 14.1286 58.7354 14.1037 58.7354 14.0539C58.7578 12.2887 58.7598 10.5246 58.7415 8.76148C58.7293 7.59301 58.3698 6.67437 57.2958 6.21734C56.9393 6.06601 56.3167 5.99187 55.428 5.99492C54.1138 5.99898 52.8062 5.99898 51.5052 5.99492C51.4585 5.99492 51.4351 6.01828 51.4351 6.065C51.4351 6.72312 51.4285 7.38277 51.4153 8.04394C51.3879 9.40285 50.1052 10.3809 48.8346 9.97871C47.0293 9.40894 47.3873 7.55187 47.3721 6.09242C47.3721 6.07626 47.3655 6.06076 47.3538 6.04933C47.3421 6.0379 47.3262 6.03148 47.3096 6.03148H13.3004C13.2883 6.03148 13.2767 6.03614 13.2681 6.04442C13.2595 6.05271 13.2547 6.06394 13.2547 6.07566C13.2557 6.73988 13.2481 7.40765 13.2319 8.07898ZM44.2399 48.1698C45.2027 40.9685 51.3909 35.6882 58.6943 36.0889C58.701 36.0893 58.7076 36.0884 58.7139 36.0861C58.7202 36.0838 58.7259 36.0803 58.7308 36.0758C58.7356 36.0712 58.7395 36.0657 58.7421 36.0595C58.7448 36.0534 58.7461 36.0468 58.7461 36.0401V15.8043C58.7461 15.7657 58.7268 15.7464 58.6882 15.7464H1.95234C1.93174 15.7464 1.91198 15.7546 1.8974 15.7692C1.88283 15.7838 1.87465 15.8035 1.87465 15.8241C1.87465 25.6828 1.87465 35.5105 1.87465 45.3072C1.87465 46.5625 2.1641 47.533 3.32648 48.0266C3.68195 48.1779 4.27406 48.2536 5.10281 48.2536C18.113 48.2536 31.1267 48.2536 44.1439 48.2536C44.2008 48.2536 44.2328 48.2256 44.2399 48.1698ZM70.1216 49.876C70.1216 46.6449 68.8381 43.5461 66.5533 41.2614C64.2686 38.9766 61.1698 37.6931 57.9387 37.6931C54.7076 37.6931 51.6088 38.9766 49.324 41.2614C47.0393 43.5461 45.7557 46.6449 45.7557 49.876C45.7557 53.1071 47.0393 56.2059 49.324 58.4906C51.6088 60.7754 54.7076 62.0589 57.9387 62.0589C61.1698 62.0589 64.2686 60.7754 66.5533 58.4906C68.8381 56.2059 70.1216 53.1071 70.1216 49.876Z"/>
</mask>
<path d="M44.0556 49.876C31.0657 49.8669 18.0652 49.8659 5.05406 49.873C4.10852 49.873 3.41992 49.7998 2.98828 49.6536C1.34754 49.096 0.258281 47.5421 0.256758 45.7871C0.249648 33.3203 0.246094 20.8535 0.246094 8.38672C0.246094 6.67742 1.40695 5.13875 2.99742 4.60097C3.42297 4.45676 4.05266 4.38312 4.88648 4.38007C6.30531 4.37601 7.7216 4.37601 9.13535 4.38007C9.14869 4.38007 9.16147 4.37494 9.1709 4.3658C9.18033 4.35665 9.18563 4.34425 9.18563 4.33132C9.18867 3.50562 9.07594 2.33258 9.32121 1.64398C10.0753 -0.473596 13.2151 0.085505 13.2425 2.36914C13.2507 3.01711 13.2547 3.66 13.2547 4.29781C13.2547 4.30993 13.2595 4.32156 13.2681 4.33013C13.2767 4.3387 13.2883 4.34351 13.3004 4.34351H47.3127C47.3293 4.34351 47.3451 4.33693 47.3569 4.32522C47.3686 4.3135 47.3752 4.29762 47.3752 4.28105C47.3873 3.4782 47.2807 2.4057 47.4833 1.73996C48.0607 -0.143011 50.745 -0.150628 51.3254 1.73234C51.5326 2.4057 51.4275 3.49648 51.4351 4.31C51.4351 4.32858 51.4427 4.34641 51.4561 4.35955C51.4695 4.37269 51.4877 4.38007 51.5067 4.38007C52.8565 4.37601 54.2123 4.37601 55.5743 4.38007C56.5432 4.38312 57.246 4.46082 57.6827 4.61316C59.2702 5.16769 60.3427 6.67437 60.3457 8.38672C60.365 17.6604 60.3762 26.9341 60.3792 36.2077C60.3792 36.2626 60.4061 36.2956 60.46 36.3068C64.9495 37.268 68.4336 39.8655 70.4004 43.9651C74.4588 52.4156 68.9577 62.4398 59.6282 63.5915C51.3696 64.6122 44.2323 58.2031 44.1257 49.9461C44.1253 49.9274 44.1177 49.9096 44.1046 49.8965C44.0915 49.8834 44.0739 49.876 44.0556 49.876ZM11.6246 2.33715C11.6246 2.23331 11.5834 2.13372 11.51 2.0603C11.4365 1.98687 11.337 1.94562 11.2331 1.94562H11.2057C11.1019 1.94562 11.0023 1.98687 10.9289 2.0603C10.8554 2.13372 10.8142 2.23331 10.8142 2.33715V8.03785C10.8142 8.08926 10.8243 8.14018 10.844 8.18768C10.8637 8.23518 10.8925 8.27834 10.9289 8.3147C10.9652 8.35106 11.0084 8.37989 11.0559 8.39957C11.1034 8.41925 11.1543 8.42937 11.2057 8.42937H11.2331C11.2845 8.42937 11.3355 8.41925 11.383 8.39957C11.4305 8.37989 11.4736 8.35106 11.51 8.3147C11.5463 8.27834 11.5752 8.23518 11.5948 8.18768C11.6145 8.14018 11.6246 8.08926 11.6246 8.03785V2.33715ZM49.8157 2.34476C49.8157 2.2385 49.7735 2.13659 49.6983 2.06145C49.6232 1.98631 49.5213 1.9441 49.415 1.9441H49.3998C49.2935 1.9441 49.1916 1.98631 49.1165 2.06145C49.0414 2.13659 48.9991 2.2385 48.9991 2.34476V8.02718C48.9991 8.13345 49.0414 8.23536 49.1165 8.3105C49.1916 8.38564 49.2935 8.42785 49.3998 8.42785H49.415C49.5213 8.42785 49.6232 8.38564 49.6983 8.3105C49.7735 8.23536 49.8157 8.13345 49.8157 8.02718V2.34476ZM13.2319 8.07898C13.1679 10.7663 9.1643 10.6231 9.1841 8.00738C9.18918 7.34926 9.18969 6.69824 9.18563 6.05433C9.18563 6.03858 9.1792 6.02346 9.16778 6.01232C9.15635 6.00118 9.14085 5.99492 9.12469 5.99492C7.76578 5.99797 6.40891 5.99797 5.05406 5.99492C4.26898 5.9939 3.70684 6.06144 3.36762 6.19754C2.20066 6.66675 1.8777 7.64176 1.87617 8.8864C1.87312 10.6241 1.87312 12.3558 1.87617 14.0813C1.87617 14.0939 1.88115 14.1059 1.89 14.1147C1.89886 14.1236 1.91087 14.1286 1.9234 14.1286H58.6608C58.7105 14.1286 58.7354 14.1037 58.7354 14.0539C58.7578 12.2887 58.7598 10.5246 58.7415 8.76148C58.7293 7.59301 58.3698 6.67437 57.2958 6.21734C56.9393 6.06601 56.3167 5.99187 55.428 5.99492C54.1138 5.99898 52.8062 5.99898 51.5052 5.99492C51.4585 5.99492 51.4351 6.01828 51.4351 6.065C51.4351 6.72312 51.4285 7.38277 51.4153 8.04394C51.3879 9.40285 50.1052 10.3809 48.8346 9.97871C47.0293 9.40894 47.3873 7.55187 47.3721 6.09242C47.3721 6.07626 47.3655 6.06076 47.3538 6.04933C47.3421 6.0379 47.3262 6.03148 47.3096 6.03148H13.3004C13.2883 6.03148 13.2767 6.03614 13.2681 6.04442C13.2595 6.05271 13.2547 6.06394 13.2547 6.07566C13.2557 6.73988 13.2481 7.40765 13.2319 8.07898ZM44.2399 48.1698C45.2027 40.9685 51.3909 35.6882 58.6943 36.0889C58.701 36.0893 58.7076 36.0884 58.7139 36.0861C58.7202 36.0838 58.7259 36.0803 58.7308 36.0758C58.7356 36.0712 58.7395 36.0657 58.7421 36.0595C58.7448 36.0534 58.7461 36.0468 58.7461 36.0401V15.8043C58.7461 15.7657 58.7268 15.7464 58.6882 15.7464H1.95234C1.93174 15.7464 1.91198 15.7546 1.8974 15.7692C1.88283 15.7838 1.87465 15.8035 1.87465 15.8241C1.87465 25.6828 1.87465 35.5105 1.87465 45.3072C1.87465 46.5625 2.1641 47.533 3.32648 48.0266C3.68195 48.1779 4.27406 48.2536 5.10281 48.2536C18.113 48.2536 31.1267 48.2536 44.1439 48.2536C44.2008 48.2536 44.2328 48.2256 44.2399 48.1698ZM70.1216 49.876C70.1216 46.6449 68.8381 43.5461 66.5533 41.2614C64.2686 38.9766 61.1698 37.6931 57.9387 37.6931C54.7076 37.6931 51.6088 38.9766 49.324 41.2614C47.0393 43.5461 45.7557 46.6449 45.7557 49.876C45.7557 53.1071 47.0393 56.2059 49.324 58.4906C51.6088 60.7754 54.7076 62.0589 57.9387 62.0589C61.1698 62.0589 64.2686 60.7754 66.5533 58.4906C68.8381 56.2059 70.1216 53.1071 70.1216 49.876Z" fill="#3B3B58"/>
<path d="M44.0556 49.876C31.0657 49.8669 18.0652 49.8659 5.05406 49.873C4.10852 49.873 3.41992 49.7998 2.98828 49.6536C1.34754 49.096 0.258281 47.5421 0.256758 45.7871C0.249648 33.3203 0.246094 20.8535 0.246094 8.38672C0.246094 6.67742 1.40695 5.13875 2.99742 4.60097C3.42297 4.45676 4.05266 4.38312 4.88648 4.38007C6.30531 4.37601 7.7216 4.37601 9.13535 4.38007C9.14869 4.38007 9.16147 4.37494 9.1709 4.3658C9.18033 4.35665 9.18563 4.34425 9.18563 4.33132C9.18867 3.50562 9.07594 2.33258 9.32121 1.64398C10.0753 -0.473596 13.2151 0.085505 13.2425 2.36914C13.2507 3.01711 13.2547 3.66 13.2547 4.29781C13.2547 4.30993 13.2595 4.32156 13.2681 4.33013C13.2767 4.3387 13.2883 4.34351 13.3004 4.34351H47.3127C47.3293 4.34351 47.3451 4.33693 47.3569 4.32522C47.3686 4.3135 47.3752 4.29762 47.3752 4.28105C47.3873 3.4782 47.2807 2.4057 47.4833 1.73996C48.0607 -0.143011 50.745 -0.150628 51.3254 1.73234C51.5326 2.4057 51.4275 3.49648 51.4351 4.31C51.4351 4.32858 51.4427 4.34641 51.4561 4.35955C51.4695 4.37269 51.4877 4.38007 51.5067 4.38007C52.8565 4.37601 54.2123 4.37601 55.5743 4.38007C56.5432 4.38312 57.246 4.46082 57.6827 4.61316C59.2702 5.16769 60.3427 6.67437 60.3457 8.38672C60.365 17.6604 60.3762 26.9341 60.3792 36.2077C60.3792 36.2626 60.4061 36.2956 60.46 36.3068C64.9495 37.268 68.4336 39.8655 70.4004 43.9651C74.4588 52.4156 68.9577 62.4398 59.6282 63.5915C51.3696 64.6122 44.2323 58.2031 44.1257 49.9461C44.1253 49.9274 44.1177 49.9096 44.1046 49.8965C44.0915 49.8834 44.0739 49.876 44.0556 49.876ZM11.6246 2.33715C11.6246 2.23331 11.5834 2.13372 11.51 2.0603C11.4365 1.98687 11.337 1.94562 11.2331 1.94562H11.2057C11.1019 1.94562 11.0023 1.98687 10.9289 2.0603C10.8554 2.13372 10.8142 2.23331 10.8142 2.33715V8.03785C10.8142 8.08926 10.8243 8.14018 10.844 8.18768C10.8637 8.23518 10.8925 8.27834 10.9289 8.3147C10.9652 8.35106 11.0084 8.37989 11.0559 8.39957C11.1034 8.41925 11.1543 8.42937 11.2057 8.42937H11.2331C11.2845 8.42937 11.3355 8.41925 11.383 8.39957C11.4305 8.37989 11.4736 8.35106 11.51 8.3147C11.5463 8.27834 11.5752 8.23518 11.5948 8.18768C11.6145 8.14018 11.6246 8.08926 11.6246 8.03785V2.33715ZM49.8157 2.34476C49.8157 2.2385 49.7735 2.13659 49.6983 2.06145C49.6232 1.98631 49.5213 1.9441 49.415 1.9441H49.3998C49.2935 1.9441 49.1916 1.98631 49.1165 2.06145C49.0414 2.13659 48.9991 2.2385 48.9991 2.34476V8.02718C48.9991 8.13345 49.0414 8.23536 49.1165 8.3105C49.1916 8.38564 49.2935 8.42785 49.3998 8.42785H49.415C49.5213 8.42785 49.6232 8.38564 49.6983 8.3105C49.7735 8.23536 49.8157 8.13345 49.8157 8.02718V2.34476ZM13.2319 8.07898C13.1679 10.7663 9.1643 10.6231 9.1841 8.00738C9.18918 7.34926 9.18969 6.69824 9.18563 6.05433C9.18563 6.03858 9.1792 6.02346 9.16778 6.01232C9.15635 6.00118 9.14085 5.99492 9.12469 5.99492C7.76578 5.99797 6.40891 5.99797 5.05406 5.99492C4.26898 5.9939 3.70684 6.06144 3.36762 6.19754C2.20066 6.66675 1.8777 7.64176 1.87617 8.8864C1.87312 10.6241 1.87312 12.3558 1.87617 14.0813C1.87617 14.0939 1.88115 14.1059 1.89 14.1147C1.89886 14.1236 1.91087 14.1286 1.9234 14.1286H58.6608C58.7105 14.1286 58.7354 14.1037 58.7354 14.0539C58.7578 12.2887 58.7598 10.5246 58.7415 8.76148C58.7293 7.59301 58.3698 6.67437 57.2958 6.21734C56.9393 6.06601 56.3167 5.99187 55.428 5.99492C54.1138 5.99898 52.8062 5.99898 51.5052 5.99492C51.4585 5.99492 51.4351 6.01828 51.4351 6.065C51.4351 6.72312 51.4285 7.38277 51.4153 8.04394C51.3879 9.40285 50.1052 10.3809 48.8346 9.97871C47.0293 9.40894 47.3873 7.55187 47.3721 6.09242C47.3721 6.07626 47.3655 6.06076 47.3538 6.04933C47.3421 6.0379 47.3262 6.03148 47.3096 6.03148H13.3004C13.2883 6.03148 13.2767 6.03614 13.2681 6.04442C13.2595 6.05271 13.2547 6.06394 13.2547 6.07566C13.2557 6.73988 13.2481 7.40765 13.2319 8.07898ZM44.2399 48.1698C45.2027 40.9685 51.3909 35.6882 58.6943 36.0889C58.701 36.0893 58.7076 36.0884 58.7139 36.0861C58.7202 36.0838 58.7259 36.0803 58.7308 36.0758C58.7356 36.0712 58.7395 36.0657 58.7421 36.0595C58.7448 36.0534 58.7461 36.0468 58.7461 36.0401V15.8043C58.7461 15.7657 58.7268 15.7464 58.6882 15.7464H1.95234C1.93174 15.7464 1.91198 15.7546 1.8974 15.7692C1.88283 15.7838 1.87465 15.8035 1.87465 15.8241C1.87465 25.6828 1.87465 35.5105 1.87465 45.3072C1.87465 46.5625 2.1641 47.533 3.32648 48.0266C3.68195 48.1779 4.27406 48.2536 5.10281 48.2536C18.113 48.2536 31.1267 48.2536 44.1439 48.2536C44.2008 48.2536 44.2328 48.2256 44.2399 48.1698ZM70.1216 49.876C70.1216 46.6449 68.8381 43.5461 66.5533 41.2614C64.2686 38.9766 61.1698 37.6931 57.9387 37.6931C54.7076 37.6931 51.6088 38.9766 49.324 41.2614C47.0393 43.5461 45.7557 46.6449 45.7557 49.876C45.7557 53.1071 47.0393 56.2059 49.324 58.4906C51.6088 60.7754 54.7076 62.0589 57.9387 62.0589C61.1698 62.0589 64.2686 60.7754 66.5533 58.4906C68.8381 56.2059 70.1216 53.1071 70.1216 49.876Z" stroke="#3B3B58" stroke-width="0.4" mask="url(#path-14-outside-1_1521_3733)"/>
<path d="M23.002 24.6784C23.002 24.8953 22.9158 25.1034 22.7624 25.2568C22.609 25.4103 22.4009 25.4965 22.1839 25.4965H17.3181C17.1011 25.4965 16.893 25.4103 16.7396 25.2568C16.5862 25.1034 16.5 24.8953 16.5 24.6784V19.8217C16.5 19.6047 16.5862 19.3966 16.7396 19.2432C16.893 19.0898 17.1011 19.0036 17.3181 19.0036H22.1839C22.4009 19.0036 22.609 19.0898 22.7624 19.2432C22.9158 19.3966 23.002 19.6047 23.002 19.8217V24.6784ZM21.375 20.6885C21.375 20.6707 21.3679 20.6537 21.3554 20.6411C21.3428 20.6285 21.3257 20.6215 21.308 20.6215H18.1941C18.1763 20.6215 18.1592 20.6285 18.1467 20.6411C18.1341 20.6537 18.127 20.6707 18.127 20.6885V23.8115C18.127 23.8293 18.1341 23.8464 18.1467 23.8589C18.1592 23.8715 18.1763 23.8786 18.1941 23.8786H21.308C21.3257 23.8786 21.3428 23.8715 21.3554 23.8589C21.3679 23.8464 21.375 23.8293 21.375 23.8115V20.6885Z" fill="#3B3B58"/>
<path d="M33.5626 24.6784C33.5626 24.8953 33.4764 25.1034 33.323 25.2568C33.1695 25.4103 32.9615 25.4965 32.7445 25.4965H27.8786C27.6617 25.4965 27.4536 25.4103 27.3002 25.2568C27.1467 25.1034 27.0605 24.8953 27.0605 24.6784V19.8217C27.0605 19.6047 27.1467 19.3966 27.3002 19.2432C27.4536 19.0898 27.6617 19.0036 27.8786 19.0036H32.7445C32.9615 19.0036 33.1695 19.0898 33.323 19.2432C33.4764 19.3966 33.5626 19.6047 33.5626 19.8217V24.6784ZM31.934 20.687C31.934 20.6696 31.9271 20.6529 31.9148 20.6406C31.9025 20.6284 31.8859 20.6215 31.8685 20.6215H28.7546C28.7372 20.6215 28.7206 20.6284 28.7083 20.6406C28.696 20.6529 28.6891 20.6696 28.6891 20.687V23.8131C28.6891 23.8304 28.696 23.8471 28.7083 23.8594C28.7206 23.8717 28.7372 23.8786 28.7546 23.8786H31.8685C31.8859 23.8786 31.9025 23.8717 31.9148 23.8594C31.9271 23.8471 31.934 23.8304 31.934 23.8131V20.687Z" fill="#3B3B58"/>
<path d="M44.1218 24.689C44.1218 24.7951 44.1009 24.9001 44.0603 24.998C44.0198 25.096 43.9603 25.185 43.8853 25.26C43.8103 25.3349 43.7213 25.3944 43.6234 25.435C43.5254 25.4756 43.4204 25.4965 43.3144 25.4965H38.4363C38.3303 25.4965 38.2253 25.4756 38.1273 25.435C38.0294 25.3944 37.9404 25.3349 37.8654 25.26C37.7904 25.185 37.7309 25.096 37.6904 24.998C37.6498 24.9001 37.6289 24.7951 37.6289 24.689V19.811C37.6289 19.5969 37.714 19.3915 37.8654 19.2401C38.0168 19.0886 38.2222 19.0036 38.4363 19.0036H43.3144C43.5285 19.0036 43.7339 19.0886 43.8853 19.2401C44.0367 19.3915 44.1218 19.5969 44.1218 19.811V24.689ZM42.5039 20.6961C42.5039 20.6863 42.502 20.6766 42.4982 20.6675C42.4945 20.6585 42.489 20.6503 42.482 20.6433C42.4751 20.6364 42.4669 20.6309 42.4578 20.6271C42.4488 20.6234 42.4391 20.6215 42.4293 20.6215H39.3214C39.3116 20.6215 39.3019 20.6234 39.2929 20.6271C39.2838 20.6309 39.2756 20.6364 39.2687 20.6433C39.2617 20.6503 39.2562 20.6585 39.2525 20.6675C39.2487 20.6766 39.2468 20.6863 39.2468 20.6961V23.8039C39.2468 23.8237 39.2547 23.8427 39.2687 23.8567C39.2827 23.8707 39.3016 23.8786 39.3214 23.8786H42.4293C42.4491 23.8786 42.468 23.8707 42.482 23.8567C42.496 23.8427 42.5039 23.8237 42.5039 23.8039V20.6961Z" fill="#3B3B58"/>
<path d="M54.6895 24.6784C54.6895 24.8953 54.6033 25.1034 54.4499 25.2568C54.2965 25.4103 54.0884 25.4965 53.8714 25.4965H49.0056C48.7886 25.4965 48.5805 25.4103 48.4271 25.2568C48.2737 25.1034 48.1875 24.8953 48.1875 24.6784V19.8217C48.1875 19.6047 48.2737 19.3966 48.4271 19.2432C48.5805 19.0898 48.7886 19.0036 49.0056 19.0036H53.8714C54.0884 19.0036 54.2965 19.0898 54.4499 19.2432C54.6033 19.3966 54.6895 19.6047 54.6895 19.8217V24.6784ZM53.0625 20.6885C53.0625 20.6707 53.0554 20.6537 53.0429 20.6411C53.0303 20.6285 53.0132 20.6215 52.9955 20.6215H49.8816C49.8638 20.6215 49.8467 20.6285 49.8342 20.6411C49.8216 20.6537 49.8145 20.6707 49.8145 20.6885V23.8115C49.8145 23.8293 49.8216 23.8464 49.8342 23.8589C49.8467 23.8715 49.8638 23.8786 49.8816 23.8786H52.9955C53.0132 23.8786 53.0303 23.8715 53.0429 23.8589C53.0554 23.8464 53.0625 23.8293 53.0625 23.8115V20.6885Z" fill="#3B3B58"/>
<path d="M12.4343 34.439C12.4343 34.6532 12.3492 34.8585 12.1978 35.0099C12.0464 35.1614 11.841 35.2464 11.6269 35.2464H6.74883C6.53469 35.2464 6.32932 35.1614 6.17789 35.0099C6.02647 34.8585 5.94141 34.6532 5.94141 34.439V29.561C5.94141 29.3468 6.02647 29.1414 6.17789 28.99C6.32932 28.8386 6.53469 28.7535 6.74883 28.7535H11.6269C11.841 28.7535 12.0464 28.8386 12.1978 28.99C12.3492 29.1414 12.4343 29.3468 12.4343 29.561V34.439ZM10.8164 30.4461C10.8164 30.4263 10.8085 30.4073 10.7945 30.3933C10.7805 30.3793 10.7616 30.3714 10.7418 30.3714H7.63395C7.61415 30.3714 7.59516 30.3793 7.58116 30.3933C7.56716 30.4073 7.5593 30.4263 7.5593 30.4461V33.5539C7.5593 33.5737 7.56716 33.5927 7.58116 33.6067C7.59516 33.6207 7.61415 33.6285 7.63395 33.6285H10.7418C10.7616 33.6285 10.7805 33.6207 10.7945 33.6067C10.8085 33.5927 10.8164 33.5737 10.8164 33.5539V30.4461Z" fill="#3B3B58"/>
<path d="M23.002 34.4283C23.002 34.6453 22.9158 34.8534 22.7624 35.0068C22.609 35.1602 22.4009 35.2464 22.1839 35.2464H17.3181C17.1011 35.2464 16.893 35.1602 16.7396 35.0068C16.5862 34.8534 16.5 34.6453 16.5 34.4283V29.5716C16.5 29.3547 16.5862 29.1466 16.7396 28.9932C16.893 28.8397 17.1011 28.7535 17.3181 28.7535H22.1839C22.4009 28.7535 22.609 28.8397 22.7624 28.9932C22.9158 29.1466 23.002 29.3547 23.002 29.5716V34.4283ZM21.375 30.4385C21.375 30.4207 21.3679 30.4036 21.3554 30.3911C21.3428 30.3785 21.3257 30.3714 21.308 30.3714H18.1941C18.1763 30.3714 18.1592 30.3785 18.1467 30.3911C18.1341 30.4036 18.127 30.4207 18.127 30.4385V33.5615C18.127 33.5793 18.1341 33.5963 18.1467 33.6089C18.1592 33.6215 18.1763 33.6285 18.1941 33.6285H21.308C21.3257 33.6285 21.3428 33.6215 21.3554 33.6089C21.3679 33.5963 21.375 33.5793 21.375 33.5615V30.4385Z" fill="#3B3B58"/>
<path d="M33.5626 34.4283C33.5626 34.6453 33.4764 34.8534 33.323 35.0068C33.1695 35.1602 32.9615 35.2464 32.7445 35.2464H27.8786C27.6617 35.2464 27.4536 35.1602 27.3002 35.0068C27.1467 34.8534 27.0605 34.6453 27.0605 34.4283V29.5716C27.0605 29.3547 27.1467 29.1466 27.3002 28.9932C27.4536 28.8397 27.6617 28.7535 27.8786 28.7535H32.7445C32.9615 28.7535 33.1695 28.8397 33.323 28.9932C33.4764 29.1466 33.5626 29.3547 33.5626 29.5716V34.4283ZM31.934 30.4369C31.934 30.4196 31.9271 30.4029 31.9148 30.3906C31.9025 30.3783 31.8859 30.3714 31.8685 30.3714H28.7546C28.7372 30.3714 28.7206 30.3783 28.7083 30.3906C28.696 30.4029 28.6891 30.4196 28.6891 30.4369V33.563C28.6891 33.5804 28.696 33.5971 28.7083 33.6094C28.7206 33.6216 28.7372 33.6285 28.7546 33.6285H31.8685C31.8859 33.6285 31.9025 33.6216 31.9148 33.6094C31.9271 33.5971 31.934 33.5804 31.934 33.563V30.4369Z" fill="#3B3B58"/>
<path d="M44.1218 34.439C44.1218 34.6532 44.0367 34.8585 43.8853 35.0099C43.7339 35.1614 43.5285 35.2464 43.3144 35.2464H38.4363C38.2222 35.2464 38.0168 35.1614 37.8654 35.0099C37.714 34.8585 37.6289 34.6532 37.6289 34.439V29.561C37.6289 29.3468 37.714 29.1414 37.8654 28.99C38.0168 28.8386 38.2222 28.7535 38.4363 28.7535H43.3144C43.5285 28.7535 43.7339 28.8386 43.8853 28.99C44.0367 29.1414 44.1218 29.3468 44.1218 29.561V34.439ZM42.5039 30.4461C42.5039 30.4263 42.496 30.4073 42.482 30.3933C42.468 30.3793 42.4491 30.3714 42.4293 30.3714H39.3214C39.3016 30.3714 39.2827 30.3793 39.2687 30.3933C39.2547 30.4073 39.2468 30.4263 39.2468 30.4461V33.5539C39.2468 33.5737 39.2547 33.5927 39.2687 33.6067C39.2827 33.6207 39.3016 33.6285 39.3214 33.6285H42.4293C42.4491 33.6285 42.468 33.6207 42.482 33.6067C42.496 33.5927 42.5039 33.5737 42.5039 33.5539V30.4461Z" fill="#3B3B58"/>
<path d="M54.6895 34.4283C54.6895 34.6453 54.6033 34.8534 54.4499 35.0068C54.2965 35.1602 54.0884 35.2464 53.8714 35.2464H49.0056C48.7886 35.2464 48.5805 35.1602 48.4271 35.0068C48.2737 34.8534 48.1875 34.6453 48.1875 34.4283V29.5716C48.1875 29.3547 48.2737 29.1466 48.4271 28.9932C48.5805 28.8397 48.7886 28.7535 49.0056 28.7535H53.8714C54.0884 28.7535 54.2965 28.8397 54.4499 28.9932C54.6033 29.1466 54.6895 29.3547 54.6895 29.5716V34.4283ZM53.0625 30.4385C53.0625 30.4207 53.0554 30.4036 53.0429 30.3911C53.0303 30.3785 53.0132 30.3714 52.9955 30.3714H49.8816C49.8638 30.3714 49.8467 30.3785 49.8342 30.3911C49.8216 30.4036 49.8145 30.4207 49.8145 30.4385V33.5615C49.8145 33.5793 49.8216 33.5963 49.8342 33.6089C49.8467 33.6215 49.8638 33.6285 49.8816 33.6285H52.9955C53.0132 33.6285 53.0303 33.6215 53.0429 33.6089C53.0554 33.5963 53.0625 33.5793 53.0625 33.5615V30.4385Z" fill="#3B3B58"/>
<path d="M12.4343 44.189C12.4343 44.4032 12.3492 44.6085 12.1978 44.7599C12.0464 44.9114 11.841 44.9964 11.6269 44.9964H6.74883C6.53469 44.9964 6.32932 44.9114 6.17789 44.7599C6.02647 44.6085 5.94141 44.4032 5.94141 44.189V39.311C5.94141 39.2049 5.96229 39.0999 6.00287 39.002C6.04344 38.904 6.10292 38.815 6.17789 38.74C6.25287 38.6651 6.34188 38.6056 6.43984 38.565C6.5378 38.5244 6.6428 38.5035 6.74883 38.5035H11.6269C11.7329 38.5035 11.8379 38.5244 11.9359 38.565C12.0338 38.6056 12.1228 38.6651 12.1978 38.74C12.2728 38.815 12.3323 38.904 12.3728 39.002C12.4134 39.0999 12.4343 39.2049 12.4343 39.311V44.189ZM10.8164 40.1961C10.8164 40.1763 10.8085 40.1573 10.7945 40.1433C10.7805 40.1293 10.7616 40.1214 10.7418 40.1214H7.63395C7.61415 40.1214 7.59516 40.1293 7.58116 40.1433C7.56716 40.1573 7.5593 40.1763 7.5593 40.1961V43.3039C7.5593 43.3237 7.56716 43.3427 7.58116 43.3567C7.59516 43.3707 7.61415 43.3785 7.63395 43.3785H10.7418C10.7616 43.3785 10.7805 43.3707 10.7945 43.3567C10.8085 43.3427 10.8164 43.3237 10.8164 43.3039V40.1961Z" fill="#3B3B58"/>
<path d="M23.002 44.1783C23.002 44.3953 22.9158 44.6034 22.7624 44.7568C22.609 44.9102 22.4009 44.9964 22.1839 44.9964H17.3181C17.1011 44.9964 16.893 44.9102 16.7396 44.7568C16.5862 44.6034 16.5 44.3953 16.5 44.1783V39.3216C16.5 39.1047 16.5862 38.8966 16.7396 38.7432C16.893 38.5897 17.1011 38.5035 17.3181 38.5035H22.1839C22.4009 38.5035 22.609 38.5897 22.7624 38.7432C22.9158 38.8966 23.002 39.1047 23.002 39.3216V44.1783ZM21.375 40.1885C21.375 40.1707 21.3679 40.1536 21.3554 40.1411C21.3428 40.1285 21.3257 40.1214 21.308 40.1214H18.1941C18.1763 40.1214 18.1592 40.1285 18.1467 40.1411C18.1341 40.1536 18.127 40.1707 18.127 40.1885V43.3115C18.127 43.3293 18.1341 43.3463 18.1467 43.3589C18.1592 43.3715 18.1763 43.3785 18.1941 43.3785H21.308C21.3257 43.3785 21.3428 43.3715 21.3554 43.3589C21.3679 43.3463 21.375 43.3293 21.375 43.3115V40.1885Z" fill="#3B3B58"/>
<path d="M33.5626 44.1783C33.5626 44.3953 33.4764 44.6034 33.323 44.7568C33.1695 44.9102 32.9615 44.9964 32.7445 44.9964H27.8786C27.6617 44.9964 27.4536 44.9102 27.3002 44.7568C27.1467 44.6034 27.0605 44.3953 27.0605 44.1783V39.3216C27.0605 39.1047 27.1467 38.8966 27.3002 38.7432C27.4536 38.5897 27.6617 38.5035 27.8786 38.5035H32.7445C32.9615 38.5035 33.1695 38.5897 33.323 38.7432C33.4764 38.8966 33.5626 39.1047 33.5626 39.3216V44.1783ZM31.934 40.1869C31.934 40.1696 31.9271 40.1529 31.9148 40.1406C31.9025 40.1283 31.8859 40.1214 31.8685 40.1214H28.7546C28.7372 40.1214 28.7206 40.1283 28.7083 40.1406C28.696 40.1529 28.6891 40.1696 28.6891 40.1869V43.313C28.6891 43.3304 28.696 43.3471 28.7083 43.3594C28.7206 43.3716 28.7372 43.3785 28.7546 43.3785H31.8685C31.8859 43.3785 31.9025 43.3716 31.9148 43.3594C31.9271 43.3471 31.934 43.3304 31.934 43.313V40.1869Z" fill="#3B3B58"/>
<path d="M60.8886 53.6953L58.6766 51.6414L57.7287 51.4834L57.2547 51.7994L57.0967 53.0634L62.1525 57.9612L62.7845 57.4872L64.3645 56.5393L66.2604 54.4853L67.2084 53.0634V52.4314L66.7344 51.4834L65.6284 51.6414L63.2585 53.6953H60.8886Z" fill="#FB8A9D"/>
<path d="M55.321 45.526L57.5984 47.5071L58.551 47.6343L59.0145 47.3031L59.1314 46.0347L53.9193 41.3034L53.303 41.7976L51.7547 42.7963L49.9263 44.9107L49.025 46.3626L49.0455 46.9943L49.5499 47.9264L50.6502 47.7326L52.9523 45.6029L55.321 45.526Z" fill="#FAB094"/>
<path d="M66.4099 51.8392C66.6661 51.8915 66.9838 52.2058 67.0299 52.4625M66.4099 51.8392L66.3813 51.9864C66.3811 51.9864 66.3808 51.9863 66.3805 51.9863M66.4099 51.8392C66.0051 51.7606 65.8873 51.8444 64.6473 53.1067L66.4099 51.8392ZM67.0299 52.4625L59.7231 55.139C60.3272 55.7565 60.8785 56.3109 61.2901 56.7159C61.496 56.9186 61.6663 57.0832 61.7905 57.1995C61.8527 57.2577 61.9024 57.3029 61.9387 57.3344C61.957 57.3503 61.9708 57.3616 61.9804 57.369C61.9824 57.3706 61.984 57.3718 61.9853 57.3728C62.1562 57.4447 62.348 57.4395 62.5027 57.3654C62.5042 57.3642 62.5062 57.3626 62.5089 57.3605C62.5187 57.3525 62.5327 57.3405 62.551 57.3241C62.5876 57.2915 62.6379 57.2449 62.7007 57.1853C62.826 57.0663 62.9983 56.8986 63.2051 56.6939C63.6187 56.2849 64.1689 55.7303 64.7551 55.1285L64.7553 55.1283L64.8643 55.0169C65.9504 53.9067 66.4782 53.3672 66.7272 53.0484C66.855 52.8848 66.8939 52.7979 66.9056 52.7362C66.9168 52.6772 66.9078 52.6277 66.8873 52.5162C66.8857 52.5077 66.884 52.4987 66.8823 52.4894L66.8823 52.489C66.8667 52.4026 66.7986 52.2862 66.6926 52.1803C66.5872 52.0749 66.4692 52.0046 66.3805 51.9863M67.0299 52.4625C67.0458 52.5494 67.0606 52.6182 67.0603 52.6869M67.0299 52.4625L67.0603 52.6869M66.3805 51.9863C66.2846 51.9677 66.2244 51.9629 66.166 51.9739C66.1079 51.9849 66.0368 52.0147 65.9293 52.0919C65.7074 52.2514 65.3788 52.576 64.7543 53.2118L64.7541 53.212C64.1547 53.8195 63.8169 54.1564 63.6036 54.311C63.499 54.3869 63.3932 54.4432 63.2814 54.4364C63.1629 54.4291 63.084 54.3539 63.0323 54.2997L63.1409 54.1961L63.0337 54.301C63.0332 54.3005 63.0325 54.2998 63.0317 54.2991C63.0247 54.292 63.0074 54.2747 62.9926 54.2529C62.9742 54.2257 62.9618 54.1963 62.9529 54.1633C62.937 54.1043 62.9286 54.0192 62.9228 53.8877C62.911 53.6188 62.9083 53.0986 62.9083 52.0587C62.9083 47.1557 62.907 44.6125 62.8942 43.2686C62.8878 42.5958 62.8785 42.227 62.8654 42.014C62.8522 41.8003 62.8356 41.7598 62.8237 41.7327C62.7638 41.5967 62.6875 41.5058 62.5969 41.4476C62.5059 41.3892 62.3884 41.3561 62.2334 41.3561C62.1215 41.3561 62.0602 41.3629 62.013 41.3772C61.9687 41.3906 61.9265 41.4137 61.8594 41.4658M66.3805 51.9863L59.7229 55.1388L59.6172 55.0303C58.5291 53.9131 58.0004 53.3703 57.7511 53.0499C57.6233 52.8857 57.5844 52.7984 57.5726 52.7364C57.5613 52.6772 57.5704 52.6277 57.5909 52.5163C57.5925 52.5077 57.5941 52.4988 57.5958 52.4894L57.596 52.4885C57.6119 52.3982 57.6788 52.2817 57.781 52.1784C57.8834 52.0749 57.9981 52.0079 58.0852 51.9919L58.0877 51.9915L58.0877 51.9914C58.1875 51.9713 58.2496 51.9654 58.3093 51.9758C58.3679 51.986 58.439 52.0147 58.5462 52.091C58.7684 52.249 59.0966 52.5732 59.7239 53.2118L59.7241 53.212C60.3235 53.8195 60.6613 54.1564 60.8746 54.311C60.9791 54.3869 61.085 54.4432 61.1968 54.4364C61.3149 54.4291 61.3936 54.3544 61.4453 54.3002C61.4928 54.2512 61.5145 54.1901 61.5278 54.1179C61.5409 54.0467 61.5491 53.9451 61.5548 53.796C61.5663 53.4957 61.5687 52.971 61.5687 52.0377C61.5687 51.1815 61.5685 50.3955 61.5683 49.6737C61.5674 45.6116 61.567 43.5859 61.6006 42.5551C61.6105 42.252 61.6233 42.0383 61.6394 41.8856C61.6558 41.7308 61.6747 41.6486 61.6925 41.6028C61.7069 41.5659 61.7178 41.5582 61.7289 41.5504C61.7375 41.5444 61.7457 41.5396 61.7595 41.5316C61.7645 41.5286 61.7703 41.5253 61.7771 41.5213C61.7999 41.5078 61.8283 41.4902 61.8594 41.4658M61.8594 41.4658C61.8596 41.4656 61.8597 41.4655 61.8599 41.4654L61.7671 41.3475L61.859 41.4661C61.8592 41.466 61.8593 41.4659 61.8594 41.4658ZM67.0603 52.6869C67.0588 52.9951 66.752 53.3018 64.8625 55.2332L67.0603 52.6869ZM67.6355 53.3833L67.6355 53.3833L65.2263 55.7517L65.3334 55.8568C65.3333 55.8568 65.3333 55.8569 65.3332 55.857C64.3404 56.8692 63.7672 57.4461 63.3985 57.7839C63.0299 58.1218 62.8506 58.2353 62.6459 58.3032C62.5075 58.351 62.2939 58.3511 62.1019 58.3312C61.9053 58.3109 61.6922 58.2653 61.5492 58.1969L61.5492 58.1969L61.5457 58.1951C61.5118 58.1778 61.4732 58.1494 61.4345 58.1183C61.3933 58.0853 61.3433 58.0422 61.2847 57.9893C61.1672 57.8834 61.0103 57.7342 60.8115 57.5396C60.4138 57.15 59.844 56.5742 59.0779 55.7884L59.0778 55.7883C59.0325 55.7418 58.9881 55.6962 58.9444 55.6514C57.8329 54.5104 57.2639 53.9264 56.9755 53.5595C56.8239 53.3666 56.7392 53.221 56.6967 53.0757C56.6574 52.9416 56.6576 52.8168 56.6578 52.6841C56.6578 52.6749 56.6578 52.6656 56.6578 52.6562C56.6578 51.7366 57.4815 50.9506 58.3729 51.0564L58.3734 51.0565C58.6283 51.0877 58.8197 51.143 59.0656 51.3166C59.3 51.4821 59.5861 51.7568 60.0398 52.2154C60.0399 52.2154 60.0399 52.2155 60.04 52.2155L60.6564 52.8346L60.6641 51.4666L60.6641 51.466L60.6794 41.6249L60.6795 41.5885L60.6962 41.5562L60.8343 41.2895C60.8344 41.2894 60.8344 41.2894 60.8345 41.2893C61.4964 40.0001 63.3335 40.1811 63.7402 41.5672L63.7403 41.5672L63.7407 41.5686C63.7631 41.6481 63.7762 41.786 63.7863 42.0605C63.7967 42.3417 63.8043 42.7824 63.8097 43.4814C63.8206 44.8799 63.8232 47.3188 63.8232 51.5977C63.8232 51.5977 63.8232 51.5977 63.8232 51.5978L63.8236 52.8364L64.4274 52.2266C64.4275 52.2265 64.4276 52.2264 64.4277 52.2262C64.9182 51.7249 65.219 51.4332 65.4727 51.2709C65.7431 51.0979 65.9603 51.0711 66.2613 51.0711C66.4081 51.0711 66.5234 51.0776 66.6322 51.1014C66.7427 51.1256 66.8391 51.1659 66.9509 51.2244L66.9515 51.2247C67.7372 51.6407 68.0298 52.5943 67.6355 53.3833Z" fill="#3B3B58" stroke="#3B3B58" stroke-width="0.3"/>
<path d="M58.9041 46.8034C58.92 46.7167 58.9348 46.648 58.9346 46.5794C58.9337 46.2708 58.6277 45.9631 56.7384 44.0207L56.6311 44.1256L56.7368 44.2342C57.8242 45.3521 58.3525 45.8952 58.6016 46.2157C58.7293 46.38 58.7682 46.4673 58.7799 46.5293C58.7911 46.5885 58.782 46.6381 58.7615 46.7495C58.7599 46.758 58.7582 46.767 58.7565 46.7763L58.7563 46.7773C58.7404 46.8675 58.6735 46.9839 58.5711 47.0872C58.4687 47.1906 58.354 47.2575 58.2669 47.2735L58.2643 47.2739L58.2643 47.274C58.1645 47.294 58.1024 47.2999 58.0427 47.2894C57.9841 47.2792 57.9131 47.2504 57.8058 47.1741C57.5838 47.016 57.2558 46.6915 56.6289 46.0525L56.6287 46.0523C56.0297 45.4444 55.6921 45.1073 55.479 44.9526C55.3744 44.8767 55.2686 44.8203 55.1568 44.827C55.0387 44.8342 54.9599 44.9089 54.9082 44.963C54.8606 45.012 54.8389 45.0731 54.8256 45.1453C54.8125 45.2165 54.8042 45.3181 54.7984 45.4671C54.7867 45.7675 54.784 46.2922 54.7834 47.2254C54.7828 48.0816 54.7825 48.8677 54.7822 49.5894C54.7805 53.6516 54.7797 55.6773 54.7454 56.708C54.7353 57.0111 54.7224 57.2248 54.7062 57.3775C54.6897 57.5324 54.6707 57.6145 54.6529 57.6603C54.6385 57.6972 54.6276 57.7049 54.6164 57.7127C54.6078 57.7186 54.5996 57.7234 54.5858 57.7315C54.5808 57.7344 54.5751 57.7378 54.5683 57.7418C54.5454 57.7553 54.517 57.7728 54.4859 57.7972C54.4187 57.8492 54.3766 57.8723 54.3323 57.8857C54.285 57.9 54.2237 57.9067 54.1119 57.9066C53.9568 57.9065 53.8393 57.8733 53.7484 57.8149C53.6578 57.7567 53.5816 57.6657 53.5218 57.5297C53.5099 57.5026 53.4934 57.4621 53.4803 57.2484C53.4672 57.0353 53.4582 56.6665 53.4522 55.9937C53.4403 54.6499 53.4406 52.1066 53.4438 47.2036C53.4444 46.1637 53.4421 45.6435 53.4304 45.3746C53.4247 45.2431 53.4164 45.158 53.4005 45.099C53.3916 45.066 53.3793 45.0365 53.3609 45.0094C53.3461 44.9876 53.3288 44.9702 53.3218 44.9632C53.321 44.9624 53.3204 44.9617 53.3198 44.9612L53.2126 45.066L53.3212 44.9626C53.2695 44.9084 53.1907 44.833 53.0722 44.8257C52.9604 44.8188 52.8545 44.8751 52.7499 44.9508C52.5365 45.1053 52.1985 45.442 51.5987 46.0491L51.5985 46.0493C50.9736 46.6847 50.6448 47.0091 50.4228 47.1685C50.3152 47.2456 50.2441 47.2753 50.186 47.2863C50.1276 47.2973 50.0674 47.2925 49.9715 47.2738C49.8828 47.2554 49.7648 47.1851 49.6595 47.0796C49.5536 46.9736 49.4856 46.8572 49.4701 46.7708L49.47 46.7704C49.4683 46.761 49.4667 46.7521 49.4651 46.7435C49.4447 46.6321 49.4356 46.5826 49.4469 46.5235C49.4587 46.4619 49.4976 46.375 49.6255 46.2115C49.8747 45.8929 50.4029 45.3536 51.4897 44.2442L51.5988 44.1328L51.599 44.1326C52.1855 43.5312 52.736 42.977 53.1499 42.5682C53.3569 42.3637 53.5293 42.196 53.6547 42.0772C53.7175 42.0176 53.7678 41.9711 53.8044 41.9385C53.8228 41.9221 53.8368 41.9101 53.8466 41.9021C53.8493 41.8999 53.8513 41.8983 53.8528 41.8972C54.0075 41.8232 54.1993 41.8181 54.3702 41.8901C54.3715 41.8911 54.3731 41.8923 54.3751 41.8939C54.3847 41.9013 54.3984 41.9127 54.4167 41.9285C54.453 41.96 54.5027 42.0053 54.5649 42.0636C54.689 42.1799 54.8592 42.3447 55.065 42.5474C55.4763 42.9527 56.0272 43.5074 56.6309 44.1253L58.9041 46.8034ZM58.9041 46.8034C58.8578 47.0652 58.5501 47.374 58.2939 47.421L58.9041 46.8034ZM49.942 47.4209C50.3468 47.4997 50.4647 47.416 51.7054 46.1545L49.942 47.4209ZM49.942 47.4209C49.6859 47.3684 49.3684 47.0539 49.3224 46.7972M49.942 47.4209L49.3224 46.7972M49.3224 46.7972C49.3066 46.7103 49.2918 46.6415 49.2922 46.5728M49.3224 46.7972L49.2922 46.5728M49.2922 46.5728C49.2938 46.2646 49.6009 45.9581 51.4916 44.0279L49.2922 46.5728ZM48.7175 45.876L48.7174 45.876L51.1281 43.5091L51.0211 43.404C51.0212 43.4039 51.0212 43.4039 51.0213 43.4038C52.0148 42.3922 52.5883 41.8157 52.9572 41.4781C53.3261 41.1405 53.5054 41.0271 53.7101 40.9593C53.8486 40.9116 54.0622 40.9116 54.2541 40.9316C54.4508 40.9521 54.6638 40.9978 54.8068 41.0663L54.8068 41.0663L54.8103 41.068C54.8442 41.0854 54.8828 41.1139 54.9215 41.145C54.9626 41.178 55.0126 41.2212 55.0712 41.2741C55.1886 41.3801 55.3454 41.5293 55.544 41.7241C55.9415 42.1139 56.5109 42.6901 57.2766 43.4764L57.2766 43.4765C57.3219 43.523 57.3663 43.5686 57.4099 43.6134C58.5208 44.7551 59.0893 45.3395 59.3775 45.7066C59.529 45.8996 59.6136 46.0453 59.6561 46.1906C59.6952 46.3247 59.695 46.4495 59.6947 46.5822C59.6947 46.5915 59.6947 46.6007 59.6947 46.6101C59.6941 47.5297 58.8699 48.3152 57.9785 48.2088L57.978 48.2087C57.7232 48.1774 57.5318 48.122 57.286 47.9482C57.0517 47.7825 56.7658 47.5076 56.3123 47.0488C56.3123 47.0487 56.3122 47.0487 56.3122 47.0486L55.6961 46.4292L55.6876 47.7972L55.6876 47.7978L55.666 57.6388L55.6659 57.6753L55.6491 57.7076L55.5109 57.9741C55.5108 57.9742 55.5108 57.9743 55.5107 57.9743C54.848 59.2631 53.011 59.0809 52.6051 57.6946L52.6051 57.6946L52.6047 57.6932C52.5823 57.6136 52.5693 57.4758 52.5594 57.2013C52.5491 56.9201 52.5419 56.4793 52.5369 55.7803C52.5269 54.3818 52.5259 51.943 52.5286 47.664C52.5286 47.664 52.5286 47.664 52.5286 47.664L52.5289 46.4253L51.9248 47.0347C51.9247 47.0349 51.9246 47.035 51.9244 47.0351C51.4336 47.5362 51.1326 47.8276 50.8788 47.9898C50.6084 48.1626 50.3912 48.1893 50.0901 48.1891C49.9433 48.189 49.828 48.1824 49.7193 48.1585C49.6087 48.1343 49.5124 48.0939 49.4007 48.0353L49.4 48.035C48.6146 47.6185 48.3226 46.6647 48.7175 45.876Z" fill="#3B3B58" stroke="#3B3B58" stroke-width="0.3"/>
</svg>
