<svg width="52" height="52" viewBox="0 0 52 52" fill="none" xmlns="http://www.w3.org/2000/svg">
<path d="M6.50041 10.2143C1.67184 16.5286 1.08375 25.5357 1.39327 29.25C25.0719 39.4643 44.5718 11.1429 36.2146 4.17857C27.8575 -2.78572 12.5361 2.32142 6.50041 10.2143Z" fill="#EF5E7F"/>
<path d="M25.544 0H26.4895C40.2472 0.382891 51.6486 11.7884 52 25.5267V26.4916C51.6161 40.2482 40.2106 51.6476 26.4723 52H25.6344C21.0031 51.8883 16.3191 50.6909 12.3155 48.3377C12.2973 48.3268 12.277 48.32 12.256 48.3178C12.2349 48.3155 12.2137 48.3178 12.1936 48.3245L1.1375 52H0.904922C0.391693 51.8964 0.0900521 51.5877 0 51.0738V50.8503L3.67859 39.7962C3.68875 39.7658 3.68604 39.7367 3.67047 39.7089C3.30281 39.0477 2.9118 38.3612 2.60711 37.698C1.14461 34.5143 0.302995 31.1645 0.0822656 27.6484C0.0551823 27.2164 0.0277604 26.7837 0 26.3504V25.5105C0.365625 11.7721 11.7711 0.361562 25.544 0ZM2.76961 49.3259C5.76435 48.3319 8.75807 47.3346 11.7508 46.3338C12.1966 46.1855 12.546 46.1084 12.9259 46.3369C19.629 50.3557 27.9713 51.1763 35.2219 48.038C44.005 44.2366 49.9312 35.6017 49.9677 25.9746C49.9911 19.6838 47.2834 13.5586 42.8137 9.10914C38.3713 4.68609 32.4675 2.11148 26.1777 2.03328C16.4978 1.91242 7.6568 8.0925 3.90406 16.9162C1.09484 23.5198 1.55797 31.0527 4.72164 37.4014C4.95727 37.8747 5.25891 38.3734 5.53516 38.8588C5.66177 39.0816 5.74268 39.2597 5.77789 39.393C5.83815 39.6205 5.83781 39.8199 5.77688 39.9913C4.67797 43.0652 3.66438 46.1659 2.73609 49.2934C2.72661 49.3259 2.73779 49.3367 2.76961 49.3259Z" fill="#3B3B58"/>
<circle cx="26.4639" cy="15.3214" r="3.25" fill="#FAB094"/>
<path d="M30.0498 14.8281C30.0498 15.9021 29.6231 16.932 28.8638 17.6914C28.1044 18.4508 27.0744 18.8774 26.0005 18.8774C24.9265 18.8774 23.8966 18.4508 23.1372 17.6914C22.3778 16.932 21.9512 15.9021 21.9512 14.8281C21.9512 13.7542 22.3778 12.7242 23.1372 11.9649C23.8966 11.2055 24.9265 10.7788 26.0005 10.7788C27.0744 10.7788 28.1044 11.2055 28.8638 11.9649C29.6231 12.7242 30.0498 13.7542 30.0498 14.8281ZM28.0256 14.8281C28.0256 14.291 27.8123 13.7759 27.4325 13.3961C27.0527 13.0163 26.5376 12.803 26.0005 12.803C25.4634 12.803 24.9483 13.0163 24.5685 13.3961C24.1887 13.7759 23.9753 14.291 23.9753 14.8281C23.9753 15.3652 24.1887 15.8803 24.5685 16.2601C24.9483 16.6399 25.4634 16.8533 26.0005 16.8533C26.5376 16.8533 27.0527 16.6399 27.4325 16.2601C27.8123 15.8803 28.0256 15.3652 28.0256 14.8281Z" fill="#3B3B58"/>
<path d="M21.9373 35.0878V27.0674C21.9373 27.0336 21.9204 27.0166 21.8865 27.0166C20.683 27.0075 19.9111 27.1121 19.9071 25.6394C19.905 24.552 19.905 23.4647 19.9071 22.3773C19.9091 21.3342 20.1833 20.9239 21.2355 20.9229C23.6805 20.9208 26.1251 20.9208 28.5693 20.9229C29.6601 20.9229 30.0623 21.189 30.0623 22.2879C30.0623 26.5555 30.0623 30.8218 30.0623 35.0868C30.0623 35.1008 30.0678 35.1142 30.0775 35.1241C30.0872 35.134 30.1004 35.1396 30.1141 35.1396C30.7966 35.1416 31.6924 34.9923 32.0022 35.7754C32.0617 35.9257 32.0919 36.1837 32.0925 36.5493C32.0953 37.6387 32.0949 38.7278 32.0915 39.8166C32.0885 40.8098 31.8061 41.2313 30.8007 41.2323C27.6543 41.235 24.5082 41.2354 21.3625 41.2333C20.3174 41.2323 19.9101 40.9571 19.9081 39.9059C19.9047 38.7711 19.9044 37.6367 19.9071 36.5026C19.9111 35.0482 20.6962 35.1426 21.8855 35.1396C21.92 35.1396 21.9373 35.1223 21.9373 35.0878ZM29.1391 37.1708C28.4952 37.1769 28.0311 36.726 28.0311 36.0801C28.0311 31.7115 28.0311 27.3535 28.0311 23.0059C28.0311 22.9919 28.0255 22.9785 28.0156 22.9686C28.0057 22.9587 27.9923 22.9531 27.9783 22.9531H21.9881C21.9542 22.9531 21.9373 22.97 21.9373 23.0039V24.9346C21.9373 24.941 21.9386 24.9473 21.941 24.9533C21.9435 24.9592 21.9471 24.9645 21.9516 24.9691C21.9561 24.9736 21.9615 24.9772 21.9674 24.9796C21.9733 24.9821 21.9797 24.9833 21.9861 24.9833C23.1733 24.9813 23.9665 24.895 23.9675 26.3494C23.9689 29.4904 23.9689 32.6313 23.9675 35.7723C23.9675 36.1285 23.9384 36.381 23.8802 36.53C23.5715 37.3212 22.6696 37.1729 21.9891 37.1719C21.9546 37.1719 21.9373 37.1891 21.9373 37.2237V39.1269C21.9373 39.1471 21.9453 39.1665 21.9596 39.1808C21.9739 39.1951 21.9933 39.2031 22.0135 39.2031H30.0369C30.0539 39.2031 30.0623 39.1947 30.0623 39.1777V37.2247C30.0623 37.1915 30.0457 37.1746 30.0125 37.1739C29.7167 37.1692 29.4255 37.1681 29.1391 37.1708Z" fill="#3B3B58"/>
</svg>
