<svg width="82" height="78" viewBox="0 0 82 78" fill="none" xmlns="http://www.w3.org/2000/svg">
<g filter="url(#filter0_d_1519_4458)">
<rect x="13" y="9" width="55.1034" height="51.6594" rx="7.74891" fill="white" shape-rendering="crispEdges"/>
<path d="M50.1182 46.6415L44.3461 40.5656C37.6626 42.9959 37.055 48.1605 39.7892 49.6794C41.9765 50.8946 43.536 51.1984 44.0423 51.1984C48.417 50.7123 49.9157 47.9579 50.1182 46.6415Z" fill="#FAB094"/>
<path d="M22.1689 30.7099V30.0094C22.3032 27.9529 23.0909 26.2 24.5321 24.7508C25.0044 24.2759 25.4778 23.8021 25.9522 23.3293C26.4719 22.8117 27.4269 22.7638 28.0463 23.0761C28.2314 23.1692 28.4776 23.3692 28.7846 23.6762C30.4663 25.3571 32.1468 27.0395 33.8259 28.7235C34.5974 29.4971 34.6087 30.682 33.8325 31.4595C33.0856 32.2069 32.3384 32.9543 31.591 33.7017C31.249 34.0437 31.1254 34.4422 31.2202 34.8972C31.2565 35.0705 31.3537 35.2778 31.5119 35.5192C31.8079 35.9689 32.1162 36.4095 32.437 36.841C32.5685 37.0178 32.6463 37.1543 32.6702 37.2504C32.8317 37.9023 31.9492 38.3522 31.5146 37.798C30.947 37.0728 30.5016 36.4385 30.1781 35.8954C29.5967 34.9192 29.8605 33.5502 30.6413 32.7707C31.3405 32.0724 32.0391 31.3738 32.7373 30.6747C33.1693 30.242 33.2092 29.9782 32.7766 29.5456C31.0558 27.8257 29.3355 26.1054 27.6156 24.3847C27.2853 24.0544 26.9564 24.2039 26.658 24.5016C26.2291 24.9309 25.8027 25.3627 25.3787 25.7968C23.6722 27.5446 23.0422 30.1098 23.8396 32.4351C23.9451 32.7425 24.1254 33.1466 24.3806 33.6472C27.9785 40.7001 33.5621 46.3668 40.617 49.9347C41.1065 50.1824 41.5126 50.3581 41.8351 50.4617C44.1909 51.2207 46.7441 50.5647 48.4879 48.8396C48.9062 48.4262 49.3233 48.0113 49.7393 47.5949C50.1008 47.2327 50.1679 46.9389 49.7958 46.5661C48.091 44.8596 46.3853 43.1541 44.6787 41.4497C44.3265 41.0982 44.0308 41.053 43.6752 41.4079C43.0931 41.9896 42.5112 42.5713 41.9294 43.153C41.4736 43.6084 41.1402 43.8977 40.9293 44.0209C40.1033 44.5027 39.0592 44.508 38.2332 43.985C37.2257 43.3475 36.3833 42.7396 35.7059 42.1615C35.3344 41.8438 35.4946 41.1999 35.9584 41.049C36.2608 40.9513 36.4628 41.0696 36.7167 41.2723C37.3396 41.7703 37.9829 42.2399 38.6466 42.6811C38.9328 42.8712 39.168 42.9851 39.3523 43.0227C39.9856 43.1503 40.3511 42.8493 40.8176 42.3834C41.5128 41.6883 42.2086 40.9934 42.905 40.2987C43.0144 40.1897 43.1635 40.0934 43.3523 40.0096C44.0899 39.6833 44.9366 39.8276 45.5008 40.3911C47.1825 42.0729 48.8641 43.7546 50.5454 45.4364C50.8719 45.7633 51.0826 46.021 51.1774 46.2093C51.5455 46.9423 51.3781 47.8454 50.7893 48.4329C50.1201 49.1014 49.3904 49.8869 48.7139 50.4165C46.5827 52.0852 43.6985 52.5657 41.1446 51.6274C40.8389 51.5153 40.4355 51.3323 39.9345 51.0784C32.4775 47.3018 26.4553 41.0743 22.872 33.5987C22.4609 32.7401 22.2265 31.7771 22.1689 30.7099Z" fill="#3B3B58"/>
<path d="M33.9604 40.3233C34.3263 40.3233 34.623 40.0267 34.623 39.6608C34.623 39.2949 34.3263 38.9982 33.9604 38.9982C33.5945 38.9982 33.2978 39.2949 33.2978 39.6608C33.2978 40.0267 33.5945 40.3233 33.9604 40.3233Z" fill="#3B3B58"/>
<path d="M41.3076 18.3885V18.9961C39.3633 24.5859 51.8392 24.1606 58.3202 23.2492L58.0164 19.2999L57.7126 18.3885H49.2063L46.4721 18.0847H44.6494L42.5228 18.3885H41.3076Z" fill="#FB8A9D"/>
<path d="M43.942 31.7785C43.8935 31.5842 43.726 31.4593 43.51 31.4578C43.1586 31.455 42.807 31.452 42.4553 31.449C41.3801 31.4398 40.4615 30.7683 40.2631 29.8014C40.2347 29.6635 40.2205 29.4089 40.2205 29.0377C40.2207 25.8952 40.2242 22.7527 40.2309 19.6102C40.232 19.0369 40.4441 18.5545 40.8671 18.1631C41.1723 17.8808 41.5327 17.6966 41.9482 17.6105C42.1169 17.5755 42.3939 17.558 42.779 17.558C47.4124 17.5593 52.0457 17.5603 56.6788 17.561C57.7666 17.561 58.6973 18.2421 58.8936 19.2201C58.9209 19.356 58.9346 19.6106 58.9346 19.9838C58.9346 23.1199 58.9346 26.2561 58.9346 29.3922C58.9346 30.369 58.1785 31.2478 57.1154 31.4194C56.9703 31.4427 56.6926 31.4543 56.2824 31.4543C53.8663 31.4541 51.4503 31.4537 49.0345 31.4532C48.8894 31.4529 48.7698 31.5022 48.6756 31.6011C48.0468 32.261 47.419 32.9217 46.7921 33.5832C46.5908 33.7957 46.4323 33.9359 46.3167 34.0036C45.6668 34.3853 44.7816 34.1684 44.4253 33.5414C44.3654 33.4361 44.3021 33.2458 44.2352 32.9704C44.1389 32.5726 44.0411 32.1753 43.942 31.7785ZM42.0664 18.4279C41.5121 18.5785 41.1136 19.0449 41.1131 19.6006C41.1117 22.8611 41.1108 26.1218 41.1102 29.3826C41.1102 29.9298 41.4603 30.3935 42.0229 30.5748C42.1494 30.6154 42.2656 30.636 42.3717 30.6365C42.6939 30.6375 43.0164 30.6379 43.3392 30.6377C43.5762 30.6377 43.7579 30.6546 43.8843 30.6886C44.2335 30.7824 44.4957 30.9735 44.6709 31.2619C44.738 31.3728 44.8004 31.5467 44.858 31.7835C44.9594 32.2 45.0598 32.6165 45.1592 33.0332C45.2444 33.39 45.6973 33.4931 45.9575 33.218C46.5635 32.5769 47.1696 31.936 47.7759 31.2953C48.0076 31.05 48.1795 30.894 48.2917 30.8274C48.5051 30.7009 48.7457 30.6377 49.0136 30.6377C51.4801 30.6377 53.9468 30.6377 56.4136 30.6377C56.7369 30.6377 56.9672 30.6185 57.1045 30.5802C57.6793 30.4192 58.0456 29.9306 58.0456 29.3826C58.0448 26.1282 58.0444 22.8739 58.0444 19.6198C58.0444 18.9529 57.4675 18.3743 56.7311 18.3743C52.0414 18.3743 47.3517 18.3743 42.6621 18.3743C42.3969 18.3743 42.1984 18.3921 42.0664 18.4279Z" fill="#3B3B58"/>
<path d="M42.8267 24.0728C42.8267 23.7857 43.0595 23.553 43.3466 23.553H48.5449C48.832 23.553 49.0648 23.7857 49.0648 24.0728C49.0648 24.3599 48.832 24.5927 48.5449 24.5927H43.3466C43.0595 24.5927 42.8267 24.3599 42.8267 24.0728Z" fill="#3B3B58"/>
<path d="M42.8267 26.1521C42.8267 25.865 43.0595 25.6323 43.3466 25.6323H54.783C55.0701 25.6323 55.3028 25.865 55.3028 26.1521C55.3028 26.4392 55.0701 26.6719 54.783 26.6719H43.3466C43.0595 26.6719 42.8267 26.4392 42.8267 26.1521Z" fill="#3B3B58"/>
<path d="M42.8267 28.2315C42.8267 27.9444 43.0595 27.7117 43.3466 27.7117H54.783C55.0701 27.7117 55.3028 27.9444 55.3028 28.2315C55.3028 28.5186 55.0701 28.7513 54.783 28.7513H43.3466C43.0595 28.7513 42.8267 28.5186 42.8267 28.2315Z" fill="#3B3B58"/>
</g>
<defs>
<filter id="filter0_d_1519_4458" x="0.0851512" y="0.3901" width="80.9332" height="77.4891" filterUnits="userSpaceOnUse" color-interpolation-filters="sRGB">
<feFlood flood-opacity="0" result="BackgroundImageFix"/>
<feColorMatrix in="SourceAlpha" type="matrix" values="0 0 0 0 0 0 0 0 0 0 0 0 0 0 0 0 0 0 127 0" result="hardAlpha"/>
<feMorphology radius="6.02693" operator="erode" in="SourceAlpha" result="effect1_dropShadow_1519_4458"/>
<feOffset dy="4.30495"/>
<feGaussianBlur stdDeviation="9.47089"/>
<feComposite in2="hardAlpha" operator="out"/>
<feColorMatrix type="matrix" values="0 0 0 0 0.608333 0 0 0 0 0.565243 0 0 0 0 0.575417 0 0 0 0.18 0"/>
<feBlend mode="normal" in2="BackgroundImageFix" result="effect1_dropShadow_1519_4458"/>
<feBlend mode="normal" in="SourceGraphic" in2="effect1_dropShadow_1519_4458" result="shape"/>
</filter>
</defs>
</svg>
