<svg width="82" height="78" viewBox="0 0 82 78" fill="none" xmlns="http://www.w3.org/2000/svg">
<g filter="url(#filter0_d_1519_4473)">
<rect x="13" y="9" width="55.1034" height="51.6594" rx="7.74891" fill="white" shape-rendering="crispEdges"/>
<path d="M34.5199 25.7827L33.7843 23.7967L34.1521 23.2818H35.5496L36.5794 21.7372L37.6091 23.429H39.4479L38.2711 25.1942L38.5653 27.6215C37.8053 27.2047 36.2704 26.3711 36.2116 26.3711C36.1527 26.3711 35.9419 26.6653 35.8438 26.8124L34.1521 27.1066L34.5199 25.7827Z" fill="#F6A36A"/>
<path d="M42.9049 25.7827L42.1694 23.7967L42.5371 23.2818H43.9347L44.9644 21.7372L45.9942 23.429H47.833L46.6561 25.1942L46.9503 27.6215C46.1903 27.2047 44.6555 26.3711 44.5966 26.3711C44.5378 26.3711 44.3269 26.6653 44.2289 26.8124L42.5371 27.1066L42.9049 25.7827Z" fill="#F6A36A"/>
<path d="M50.5549 25.7827L49.8193 23.7967L50.1871 23.2818H51.5846L52.6144 21.7372L53.6441 23.429H55.483L54.3061 25.1942L54.6003 27.6215C53.8403 27.2047 52.3055 26.3711 52.2466 26.3711C52.1878 26.3711 51.9769 26.6653 51.8788 26.8124L50.1871 27.1066L50.5549 25.7827Z" fill="#F6A36A"/>
<path d="M26.5762 52.409C24.1048 50.1142 25.2522 41.4005 26.1348 37.3305H23.2663L22.3836 37.6248V51.3057L23.0456 52.409H26.5762Z" fill="#EF5E7F"/>
<path d="M44.6704 36.5951C44.5842 36.595 44.499 36.576 44.4209 36.5394C44.3428 36.5028 44.2737 36.4495 44.2185 36.3832L41.7571 33.4296C41.5644 33.1983 41.2788 33.0645 40.9777 33.0645H40.5514C40.2264 33.0645 39.963 32.8011 39.963 32.4761C39.963 32.1511 40.2264 31.8876 40.5514 31.8876H41.7283C41.8145 31.8877 41.8997 31.9067 41.9778 31.9433C42.0559 31.9799 42.125 32.0332 42.1802 32.0995L43.2928 33.4345C44.0098 34.2948 45.3311 34.2948 46.048 33.4345L47.1607 32.0995C47.2159 32.0332 47.2849 31.9799 47.363 31.9433C47.4411 31.9067 47.5263 31.8877 47.6126 31.8876H57.6159C57.7719 31.8876 57.9216 31.8256 58.0319 31.7153C58.1423 31.6049 58.2043 31.4553 58.2043 31.2992V18.3538C58.2043 18.1977 58.1423 18.0481 58.0319 17.9377C57.9216 17.8274 57.7719 17.7654 57.6159 17.7654H31.725C31.5689 17.7654 31.4193 17.8274 31.3089 17.9377C31.1986 18.0481 31.1366 18.1977 31.1366 18.3538V31.2992C31.1366 31.4553 31.1986 31.6049 31.3089 31.7153C31.4193 31.8256 31.5689 31.8876 31.725 31.8876H32.9019C33.2268 31.8876 33.4903 32.1511 33.4903 32.4761C33.4903 32.8011 33.2268 33.0645 32.9019 33.0645H31.725C31.2568 33.0645 30.8078 32.8785 30.4768 32.5475C30.1457 32.2164 29.9597 31.7674 29.9597 31.2992V18.3538C29.9597 17.8856 30.1457 17.4366 30.4768 17.1055C30.8078 16.7745 31.2568 16.5885 31.725 16.5885H57.6159C58.084 16.5885 58.533 16.7745 58.8641 17.1055C59.1952 17.4366 59.3811 17.8856 59.3811 18.3538V31.2992C59.3811 31.7674 59.1952 32.2164 58.8641 32.5475C58.533 32.8785 58.084 33.0645 57.6159 33.0645H48.7279C48.1957 33.0645 47.691 33.3009 47.3502 33.7098L45.1223 36.3832C45.0671 36.4495 44.998 36.5028 44.92 36.5394C44.8419 36.576 44.7567 36.595 44.6704 36.5951Z" fill="#3B3B58"/>
<path d="M31.7246 38.9487H28.194V37.7719H31.5181L32.9744 36.6074C33.3196 36.3323 33.5982 35.9827 33.7893 35.5848C33.9805 35.1869 34.0793 34.751 34.0783 34.3096V30.7107C34.0783 30.5547 34.1403 30.405 34.2507 30.2947C34.361 30.1843 34.5107 30.1223 34.6668 30.1223C39.3206 30.1223 39.3742 33.6176 39.3742 33.6529V38.3603H38.1973V33.6529C38.1932 33.431 38.0732 31.5522 35.2552 31.3221V34.3096C35.2566 34.9275 35.1183 35.5378 34.8507 36.0948C34.583 36.6518 34.1928 37.141 33.7094 37.5259L32.0924 38.8205C31.9879 38.9037 31.8582 38.949 31.7246 38.9487Z" fill="#3B3B58"/>
<path d="M45.2589 42.4793H40.5515C40.2265 42.4793 39.963 42.2159 39.963 41.8909C39.963 41.5659 40.2265 41.3025 40.5515 41.3025H45.2589C45.571 41.3025 45.8703 41.1785 46.091 40.9578C46.3117 40.7371 46.4357 40.4378 46.4357 40.1256C46.4357 39.8135 46.3117 39.5142 46.091 39.2935C45.8703 39.0728 45.571 38.9488 45.2589 38.9488H37.6093C37.2843 38.9488 37.0209 38.6853 37.0209 38.3603C37.0209 38.0354 37.2843 37.7719 37.6093 37.7719H45.2589C45.8831 37.7719 46.4818 38.0199 46.9232 38.4613C47.3646 38.9027 47.6126 39.5014 47.6126 40.1256C47.6126 40.7499 47.3646 41.3485 46.9232 41.79C46.4818 42.2314 45.8831 42.4793 45.2589 42.4793Z" fill="#3B3B58"/>
<path d="M45.8473 46.0099H40.5515V44.8331H45.8473C46.1594 44.8331 46.4588 44.7091 46.6795 44.4884C46.9002 44.2677 47.0242 43.9683 47.0242 43.6562C47.0242 43.3441 46.9002 43.0448 46.6795 42.824C46.4588 42.6033 46.1594 42.4794 45.8473 42.4794L40.5515 42.4793V41.3025L45.8473 41.3025C46.4716 41.3025 47.0702 41.5505 47.5116 41.9919C47.9531 42.4333 48.201 43.032 48.201 43.6562C48.201 44.2805 47.9531 44.8791 47.5116 45.3205C47.0702 45.7619 46.4716 46.0099 45.8473 46.0099Z" fill="#3B3B58"/>
<path d="M45.2585 49.5405H40.5511C40.2261 49.5405 39.9627 49.2771 39.9627 48.9521C39.9627 48.6271 40.2261 48.3637 40.5511 48.3637H45.2585C45.5706 48.3637 45.87 48.2397 46.0907 48.019C46.3114 47.7983 46.4354 47.4989 46.4354 47.1868C46.4354 46.8747 46.3114 46.5753 46.0907 46.3546C45.87 46.1339 45.5706 46.0099 45.2585 46.0099L40.5515 46.0099C40.2265 46.0099 39.9627 45.7465 39.9627 45.4215C39.9627 45.0965 40.2265 44.8331 40.5515 44.8331L45.2585 44.8331C45.8828 44.8331 46.4814 45.0811 46.9228 45.5225C47.3642 45.9639 47.6122 46.5626 47.6122 47.1868C47.6122 47.811 47.3642 48.4097 46.9228 48.8511C46.4814 49.2925 45.8828 49.5405 45.2585 49.5405Z" fill="#3B3B58"/>
<path d="M44.0816 53.0711H32.9015C32.1323 53.0113 31.3991 52.7392 30.7812 52.2906C30.4625 52.0592 30.0918 51.8942 29.6979 51.8942H28.7825C28.4575 51.8942 28.194 51.6307 28.194 51.3058C28.194 50.9808 28.4575 50.7173 28.7825 50.7173H30.5478C30.7038 50.7174 30.8534 50.7794 30.9638 50.8897C31.4676 51.4505 32.1591 51.8077 32.9079 51.8942H44.0816C44.3937 51.8942 44.6931 51.7702 44.9138 51.5495C45.1345 51.3288 45.2585 51.0295 45.2585 50.7173C45.2585 50.4052 45.1345 50.1059 44.9138 49.8852C44.6931 49.6645 44.3937 49.5405 44.0816 49.5405L40.5511 49.5405C40.2261 49.5405 39.9627 49.2771 39.9627 48.9521C39.9627 48.6271 40.2261 48.3637 40.5511 48.3637L44.0816 48.3636C44.7059 48.3636 45.3045 48.6116 45.7459 49.053C46.1873 49.4944 46.4353 50.0931 46.4353 50.7173C46.4353 51.3416 46.1873 51.9403 45.7459 52.3817C45.3045 52.8231 44.7059 53.0711 44.0816 53.0711Z" fill="#3B3B58"/>
<path d="M27.0175 53.0711H23.487C23.0188 53.0711 22.5698 52.8851 22.2387 52.554C21.9077 52.223 21.7217 51.7739 21.7217 51.3058V38.3603C21.7217 37.8922 21.9077 37.4432 22.2387 37.1121C22.5698 36.781 23.0188 36.5951 23.487 36.5951H27.0175C27.4857 36.5951 27.9347 36.781 28.2658 37.1121C28.5968 37.4432 28.7828 37.8922 28.7828 38.3603V51.3058C28.7828 51.7739 28.5968 52.223 28.2658 52.554C27.9347 52.8851 27.4857 53.0711 27.0175 53.0711ZM23.487 37.7719C23.3309 37.7719 23.1812 37.8339 23.0709 37.9443C22.9605 38.0546 22.8985 38.2043 22.8985 38.3603V51.3058C22.8985 51.4618 22.9605 51.6115 23.0709 51.7218C23.1812 51.8322 23.3309 51.8942 23.487 51.8942H27.0175C27.1736 51.8942 27.3233 51.8322 27.4336 51.7218C27.544 51.6115 27.606 51.4618 27.606 51.3058V38.3603C27.606 38.2043 27.544 38.0546 27.4336 37.9443C27.3233 37.8339 27.1736 37.7719 27.0175 37.7719H23.487Z" fill="#3B3B58"/>
<path d="M47.0244 28.3571C46.9331 28.357 46.8431 28.3359 46.7613 28.2953L44.6706 27.2497L42.58 28.2983C42.4793 28.3486 42.3662 28.369 42.2543 28.357C42.1424 28.345 42.0362 28.3012 41.9484 28.2307C41.8606 28.1602 41.7949 28.066 41.7591 27.9593C41.7232 27.8526 41.7187 27.7378 41.7462 27.6286L42.271 25.5279L41.2389 23.9792C41.179 23.8905 41.1444 23.7872 41.1388 23.6804C41.1332 23.5735 41.1569 23.4672 41.2072 23.3728C41.2576 23.2783 41.3327 23.1995 41.4246 23.1446C41.5164 23.0897 41.6215 23.0609 41.7285 23.0612H43.179L44.1793 21.5578C44.2362 21.4817 44.3101 21.4199 44.3951 21.3773C44.4801 21.3348 44.5738 21.3126 44.6689 21.3126C44.7639 21.3126 44.8577 21.3348 44.9426 21.3773C45.0276 21.4199 45.1015 21.4817 45.1585 21.5578L46.1623 23.0612H47.6128C47.7193 23.0612 47.8239 23.0901 47.9152 23.1449C48.0066 23.1996 48.0815 23.2781 48.1317 23.3721C48.182 23.466 48.2058 23.5718 48.2006 23.6782C48.1954 23.7846 48.1615 23.8876 48.1024 23.9762L47.0703 25.525L47.5951 27.6257C47.6169 27.7124 47.6185 27.803 47.6 27.8905C47.5815 27.978 47.5433 28.0602 47.4882 28.1307C47.4332 28.2012 47.3628 28.2582 47.2825 28.2975C47.2021 28.3367 47.1138 28.3571 47.0244 28.3571ZM44.6706 26.0034C44.7619 26.0033 44.852 26.0245 44.9337 26.0652L46.1417 26.6701L45.864 25.5579C45.8439 25.4782 45.8407 25.395 45.8547 25.314C45.8687 25.2329 45.8995 25.1556 45.9452 25.0872L46.513 24.2381H45.8475C45.7507 24.2381 45.6553 24.2142 45.5699 24.1685C45.4845 24.1229 45.4117 24.0568 45.3579 23.9762L44.6706 22.9436L43.9834 23.9745C43.9298 24.0554 43.8571 24.1218 43.7717 24.1678C43.6863 24.2138 43.5908 24.2379 43.4938 24.2381H42.8283L43.3949 25.0884C43.4406 25.1568 43.4715 25.2341 43.4855 25.3151C43.4994 25.3962 43.4963 25.4793 43.4761 25.5591L43.1984 26.6713L44.4076 26.0663C44.4892 26.0252 44.5793 26.0037 44.6706 26.0034Z" fill="#3B3B58"/>
<path d="M55.2624 28.3571C55.1711 28.357 55.0811 28.3359 54.9994 28.2953L52.9087 27.2497L50.818 28.2983C50.7173 28.3486 50.6043 28.369 50.4923 28.357C50.3804 28.345 50.2742 28.3012 50.1864 28.2307C50.0987 28.1602 50.033 28.066 49.9971 27.9593C49.9613 27.8526 49.9568 27.7378 49.9842 27.6286L50.5091 25.5279L49.477 23.9792C49.417 23.8905 49.3824 23.7872 49.3768 23.6804C49.3713 23.5735 49.3949 23.4672 49.4453 23.3728C49.4956 23.2783 49.5708 23.1995 49.6626 23.1446C49.7545 23.0897 49.8595 23.0609 49.9665 23.0612H51.417L52.4173 21.5578C52.4743 21.4817 52.5482 21.4199 52.6331 21.3773C52.7181 21.3348 52.8119 21.3126 52.9069 21.3126C53.002 21.3126 53.0957 21.3348 53.1807 21.3773C53.2657 21.4199 53.3396 21.4817 53.3965 21.5578L54.4003 23.0612H55.8508C55.9573 23.0612 56.0619 23.0901 56.1533 23.1449C56.2447 23.1996 56.3195 23.2781 56.3697 23.3721C56.42 23.466 56.4438 23.5718 56.4386 23.6782C56.4335 23.7846 56.3995 23.8876 56.3404 23.9762L55.3083 25.525L55.8332 27.6257C55.8549 27.7124 55.8566 27.803 55.838 27.8905C55.8195 27.978 55.7813 28.0602 55.7263 28.1307C55.6712 28.2012 55.6009 28.2582 55.5205 28.2975C55.4401 28.3367 55.3518 28.3571 55.2624 28.3571ZM52.9087 26.0034C53 26.0033 53.09 26.0245 53.1717 26.0652L54.3797 26.6701L54.102 25.5579C54.0819 25.4782 54.0787 25.395 54.0927 25.314C54.1067 25.2329 54.1375 25.1556 54.1832 25.0872L54.751 24.2381H54.0855C53.9887 24.2381 53.8933 24.2142 53.8079 24.1685C53.7225 24.1229 53.6497 24.0568 53.596 23.9762L52.9087 22.9436L52.2214 23.9745C52.1678 24.0554 52.0951 24.1218 52.0097 24.1678C51.9243 24.2138 51.8288 24.2379 51.7318 24.2381H51.0663L51.633 25.0884C51.6787 25.1568 51.7095 25.2341 51.7235 25.3151C51.7375 25.3962 51.7343 25.4793 51.7142 25.5591L51.4364 26.6713L52.6457 26.0663C52.7272 26.0252 52.8173 26.0037 52.9087 26.0034Z" fill="#3B3B58"/>
<path d="M38.7863 28.3571C38.6951 28.357 38.6051 28.3359 38.5233 28.2953L36.4326 27.2497L34.3419 28.2983C34.2412 28.3486 34.1282 28.369 34.0163 28.357C33.9043 28.345 33.7982 28.3012 33.7104 28.2307C33.6226 28.1602 33.5569 28.066 33.521 27.9593C33.4852 27.8526 33.4807 27.7378 33.5081 27.6286L34.033 25.5279L33.0009 23.9792C32.941 23.8905 32.9064 23.7872 32.9008 23.6804C32.8952 23.5735 32.9189 23.4672 32.9692 23.3728C33.0196 23.2783 33.0947 23.1995 33.1866 23.1446C33.2784 23.0897 33.3835 23.0609 33.4905 23.0612H34.941L35.9413 21.5578C35.9982 21.4817 36.0721 21.4199 36.1571 21.3773C36.2421 21.3348 36.3358 21.3126 36.4309 21.3126C36.5259 21.3126 36.6196 21.3348 36.7046 21.3773C36.7896 21.4199 36.8635 21.4817 36.9204 21.5578L37.9243 23.0612H39.3748C39.4813 23.0612 39.5858 23.0901 39.6772 23.1449C39.7686 23.1996 39.8434 23.2781 39.8937 23.3721C39.9439 23.466 39.9678 23.5718 39.9626 23.6782C39.9574 23.7846 39.9235 23.8876 39.8643 23.9762L38.8322 25.525L39.3571 27.6257C39.3788 27.7124 39.3805 27.803 39.362 27.8905C39.3435 27.978 39.3052 28.0602 39.2502 28.1307C39.1952 28.2012 39.1248 28.2582 39.0444 28.2975C38.964 28.3367 38.8758 28.3571 38.7863 28.3571ZM36.4326 26.0034C36.5239 26.0033 36.6139 26.0245 36.6956 26.0652L37.9037 26.6701L37.6259 25.5579C37.6058 25.4782 37.6026 25.395 37.6166 25.314C37.6306 25.2329 37.6615 25.1556 37.7072 25.0872L38.275 24.2381H37.6095C37.5126 24.2381 37.4173 24.2142 37.3319 24.1685C37.2465 24.1229 37.1737 24.0568 37.1199 23.9762L36.4326 22.9436L35.7453 23.9745C35.6918 24.0554 35.6191 24.1218 35.5336 24.1678C35.4482 24.2138 35.3528 24.2379 35.2558 24.2381H34.5902L35.1569 25.0884C35.2026 25.1568 35.2334 25.2341 35.2474 25.3151C35.2614 25.3962 35.2582 25.4793 35.2381 25.5591L34.9604 26.6713L36.1696 26.0663C36.2512 26.0252 36.3412 26.0037 36.4326 26.0034Z" fill="#3B3B58"/>
<path d="M53.4965 38.9488H49.966C49.641 38.9488 49.3776 39.2122 49.3776 39.5372C49.3776 39.8622 49.641 40.1256 49.966 40.1256H53.4965C53.8215 40.1256 54.085 39.8622 54.085 39.5372C54.085 39.2122 53.8215 38.9488 53.4965 38.9488Z" fill="#3B3B58"/>
<path d="M51.1933 35.124L49.3775 36.9398C49.1477 37.1696 49.1477 37.5421 49.3775 37.7719C49.6073 38.0017 49.9798 38.0017 50.2096 37.7719L52.0254 35.9562C52.2552 35.7264 52.2552 35.3538 52.0254 35.124C51.7956 34.8942 51.423 34.8942 51.1933 35.124Z" fill="#3B3B58"/>
<path d="M52.0262 43.4126L50.2104 41.5968C49.9806 41.367 49.608 41.367 49.3782 41.5968C49.1484 41.8266 49.1484 42.1992 49.3782 42.429L51.194 44.2447C51.4238 44.4745 51.7964 44.4745 52.0262 44.2447C52.256 44.0149 52.256 43.6424 52.0262 43.4126Z" fill="#3B3B58"/>
</g>
<defs>
<filter id="filter0_d_1519_4473" x="0.0851512" y="0.3901" width="80.9332" height="77.4891" filterUnits="userSpaceOnUse" color-interpolation-filters="sRGB">
<feFlood flood-opacity="0" result="BackgroundImageFix"/>
<feColorMatrix in="SourceAlpha" type="matrix" values="0 0 0 0 0 0 0 0 0 0 0 0 0 0 0 0 0 0 127 0" result="hardAlpha"/>
<feMorphology radius="6.02693" operator="erode" in="SourceAlpha" result="effect1_dropShadow_1519_4473"/>
<feOffset dy="4.30495"/>
<feGaussianBlur stdDeviation="9.47089"/>
<feComposite in2="hardAlpha" operator="out"/>
<feColorMatrix type="matrix" values="0 0 0 0 0.608333 0 0 0 0 0.565243 0 0 0 0 0.575417 0 0 0 0.18 0"/>
<feBlend mode="normal" in2="BackgroundImageFix" result="effect1_dropShadow_1519_4473"/>
<feBlend mode="normal" in="SourceGraphic" in2="effect1_dropShadow_1519_4473" result="shape"/>
</filter>
</defs>
</svg>
