<svg width="67" height="67" viewBox="0 0 67 67" fill="none" xmlns="http://www.w3.org/2000/svg">
<path d="M43.5 47.5L36.5 41L33.5 40.5L32 41.5L31.5 45.5L47.5 61L49.5 59.5L54.5 56.5L60.5 50L63.5 45.5V43.5L62 40.5L58.5 41L51 47.5H43.5Z" fill="#FB8A9D"/>
<path d="M25.8828 21.647L33.0899 27.9166L36.1046 28.319L37.5713 27.2709L37.9413 23.2568L21.447 8.28387L19.4967 9.84795L14.5967 13.0085L8.81065 19.6997L5.95818 24.2947L6.02305 26.2936L7.61956 29.2434L11.1015 28.6301L18.3867 21.8903L25.8828 21.647Z" fill="#FAB094"/>
<path d="M48.91 61.6326C50.0126 61.2679 50.9369 60.4225 57.2284 54.0078C62.1578 49.002 64.1198 46.8969 64.4279 46.3002C65.563 44.0293 64.7198 41.2944 62.4659 40.1009C61.8011 39.7529 61.4119 39.67 60.5038 39.67C58.6877 39.67 58.1689 39.9849 55.0393 43.184L52.3152 45.9355L52.3133 40.862C52.3133 13.7776 52.2809 9.99834 52.0701 9.25244C50.9026 5.27431 45.6488 4.76047 43.7517 8.45681L43.3139 9.30217L43.2652 40.4476L43.2347 45.919L40.4781 43.1508C37.5918 40.2336 36.9756 39.8026 35.4838 39.6203C32.9705 39.3219 30.5868 41.5596 30.5868 44.2117C30.5868 46.1013 30.4895 45.9687 38.1107 53.7923C42.959 58.765 45.3102 61.069 45.7967 61.3176C46.5588 61.6823 48.2452 61.8646 48.91 61.6326ZM46.7534 59.5606C46.4615 59.428 43.2995 56.3118 39.4727 52.4C32.1597 44.8913 32.3381 45.1068 32.6137 43.5984C32.7597 42.7696 33.7326 41.7917 34.5433 41.6425C35.8568 41.3773 36.2135 41.6259 40.1538 45.6372C43.9806 49.5158 44.2887 49.7479 44.9211 49.0849C45.1481 48.8528 45.1786 48.1689 45.1786 42.2543C45.1786 6.35172 45.0813 9.36847 46.2812 8.42366C46.7515 8.059 47.0271 7.97612 47.7568 7.97612C48.8757 7.97612 49.6216 8.45681 50.0594 9.45134C50.3513 10.1144 50.3675 11.2912 50.3675 42.3206C50.3675 48.9133 50.4018 48.8528 50.6288 49.0849C51.2612 49.7479 51.5693 49.5158 55.3961 45.6372C59.3201 41.6425 59.6931 41.3773 60.9741 41.6259C61.7848 41.7916 62.7902 42.7862 62.9361 43.5984C63.2118 45.1068 63.3901 44.8913 56.0771 52.3668C52.3638 56.1792 49.1046 59.3949 48.8451 59.5275C48.2127 59.8424 47.4344 59.859 46.7534 59.5606Z" fill="#3B3B58"/>
<path d="M20.9342 7.64479C19.8313 8.00875 18.9065 8.85351 12.6109 15.2642C7.67833 20.2669 5.71495 22.3707 5.40648 22.9672C4.26996 25.2373 5.1114 27.9729 7.36455 29.1677C8.02915 29.5162 8.41826 29.5994 9.32631 29.5999C11.1424 29.6011 11.6615 29.2865 14.7931 26.0894L17.519 23.3396L17.5176 28.4132C17.5003 55.4976 17.5303 59.2768 17.7406 60.0229C18.9056 64.0017 24.159 64.5189 26.0585 60.8238L26.4969 59.9787L26.5654 28.8334L26.5995 23.362L29.3543 26.1319C32.2387 29.051 32.8546 29.4824 34.3463 29.6657C36.8595 29.9656 39.2445 27.7295 39.2462 25.0774C39.2474 23.1878 39.3446 23.3204 31.7285 15.4919C26.8833 10.5162 24.5336 8.21067 24.0473 7.96172C23.2854 7.59657 21.5992 7.41316 20.9342 7.64479ZM23.0895 9.71811C23.3813 9.8509 26.5413 12.9691 30.3655 16.8834C37.6738 24.3968 37.4956 24.1812 37.2189 25.6894C37.0725 26.5181 36.0989 27.4954 35.2881 27.6441C33.9745 27.9084 33.6179 27.6596 29.6802 23.6458C25.8559 19.7646 25.5479 19.5324 24.9151 20.195C24.688 20.4269 24.657 21.1109 24.6532 27.0254C24.6302 62.928 24.7295 59.9113 23.5289 60.8554C23.0585 61.2197 22.7827 61.3024 22.0531 61.3019C20.9342 61.3012 20.1886 60.8201 19.7514 59.8253C19.46 59.162 19.4445 57.9852 19.4644 26.9558C19.4686 20.3631 19.4342 20.4236 19.2074 20.1914C18.5754 19.5279 18.2672 19.7598 14.4379 23.636C10.5113 27.6282 10.1382 27.8932 8.85732 27.6437C8.04667 27.4775 7.04197 26.4823 6.89655 25.67C6.62185 24.1614 6.44335 24.3768 13.7612 16.9059C17.4769 13.0959 20.7382 9.88236 20.9977 9.74993C21.6303 9.4354 22.4087 9.41932 23.0895 9.71811Z" fill="#3B3B58"/>
</svg>
