<svg width="82" height="78" viewBox="0 0 82 78" fill="none" xmlns="http://www.w3.org/2000/svg">
<g filter="url(#filter0_d_1739_3795)">
<rect x="13" y="9" width="55.1034" height="51.6594" rx="7.74891" fill="white" shape-rendering="crispEdges"/>
<path d="M40.7873 15.0575C49.4198 14.1912 56.6548 21.5773 55.8813 30.4105C55.8594 30.6637 55.8148 30.8466 55.7475 30.9593C55.4256 31.5015 54.5295 31.23 54.584 30.595C54.868 27.2837 54.1331 24.3341 52.3794 21.7463C50.0836 18.3568 46.2679 16.3372 42.2528 16.2962C41.8404 16.2921 41.3727 16.3413 40.9315 16.3651C40.7243 16.3766 40.5722 16.3653 40.475 16.3314C39.9545 16.151 39.9049 15.3963 40.3997 15.1461C40.4814 15.1045 40.6106 15.075 40.7873 15.0575Z" fill="#3B3B58"/>
<path d="M42.8882 29.3094C42.8882 29.0333 42.6643 28.8094 42.3882 28.8094C42.112 28.8094 41.8882 29.0333 41.8882 29.3094C41.8882 29.5856 42.112 29.8094 42.3882 29.8094C42.6643 29.8094 42.8882 29.5856 42.8882 29.3094Z" fill="#FB8B9E"/>
<path d="M50.6044 30.5327C51.4525 24.7528 46.8103 19.6841 41.0807 20.4224C40.7818 20.4606 40.5816 20.4661 40.4802 20.4388C40.0181 20.3116 39.8972 19.5938 40.2872 19.2928C40.4633 19.1566 40.7732 19.1107 40.9806 19.0885C43.3088 18.843 45.4322 19.3303 47.3509 20.5503C50.6188 22.6282 52.3982 26.4771 51.9121 30.3826C51.8795 30.6435 51.8254 30.831 51.7495 30.9453C51.4084 31.4629 50.5099 31.1783 50.6044 30.5327Z" fill="#3B3B58"/>
<path d="M26.3882 49.8094V24.3094C46.3882 35.9094 48.3882 46.1428 46.8882 49.8094H26.3882Z" fill="#FB8B9E"/>
<path d="M26.888 20.3095C25.288 20.7095 25.888 22.4761 26.388 23.3095C37.3879 23.3095 36.8882 21.3095 36.3882 20.3095C35.8882 19.3095 28.888 19.8095 26.888 20.3095Z" fill="#FAB094"/>
<path d="M26.4476 24.2573V49.6484C26.4476 49.6774 26.4617 49.6919 26.49 49.6919H46.5232C46.5499 49.6919 46.5632 49.678 46.5632 49.6501C46.5392 44.4832 46.5141 39.307 46.4879 34.1216C46.4831 33.2208 47.7644 33.1618 47.7692 34.2241C47.7937 40.0281 47.8228 45.8318 47.8565 51.6352C47.8645 52.9805 47.1878 54.1585 45.8857 54.5449C45.6023 54.6291 45.0786 54.6712 44.3146 54.6712C38.8592 54.6701 33.404 54.6682 27.949 54.6655C26.6998 54.6655 25.63 53.8419 25.284 52.636C25.2061 52.3631 25.1669 51.9245 25.1663 51.3202C25.1663 41.5815 25.1661 31.8427 25.1655 22.104C25.1655 20.8284 25.9559 19.7193 27.1322 19.3592C27.4109 19.2739 27.9194 19.2315 28.6577 19.2321C31.3911 19.2337 34.1244 19.2353 36.8577 19.237C37.343 19.237 37.6545 19.7078 37.4527 20.1738C37.3086 20.5093 37.0083 20.5454 36.6511 20.5454C33.8367 20.5454 31.0222 20.5454 28.2077 20.5454C27.8452 20.5454 27.5708 20.5828 27.3845 20.6578C26.9617 20.8278 26.6761 21.1393 26.5277 21.5921C26.4067 21.9604 26.446 22.4518 26.4484 22.866C26.4485 22.8705 26.4494 22.8748 26.4511 22.8788C26.4528 22.8829 26.4553 22.8865 26.4583 22.8896C26.4614 22.8926 26.465 22.895 26.4689 22.8966C26.4728 22.8982 26.477 22.899 26.4812 22.8989C29.978 22.8967 33.4768 22.8969 36.9779 22.8997C37.1369 22.8997 37.2824 22.9976 37.4143 23.1933C37.7338 23.6683 37.3198 24.2335 36.7777 24.231C33.3492 24.2152 29.9211 24.2086 26.4932 24.2114C26.4628 24.2114 26.4476 24.2267 26.4476 24.2573ZM46.5232 51.0044H26.4812C26.4716 51.0044 26.4622 51.0063 26.4533 51.0101C26.4445 51.0138 26.4365 51.0193 26.4297 51.0263C26.4229 51.0332 26.4175 51.0414 26.4139 51.0505C26.4102 51.0595 26.4083 51.0692 26.4083 51.0791V51.7402C26.4083 52.1712 26.5782 52.5845 26.8805 52.8893C27.1828 53.1941 27.5928 53.3653 28.0203 53.3653H44.9841C45.4116 53.3653 45.8216 53.1941 46.1239 52.8893C46.4262 52.5845 46.596 52.1712 46.596 51.7402V51.0791C46.596 51.0692 46.5942 51.0595 46.5905 51.0505C46.5868 51.0414 46.5815 51.0332 46.5747 51.0263C46.5679 51.0193 46.5599 51.0138 46.5511 51.0101C46.5422 51.0063 46.5327 51.0044 46.5232 51.0044Z" fill="#3B3B58"/>
<path d="M43.5669 23.2409C46.774 24.076 48.6622 27.3384 47.8662 30.6229C47.775 30.9986 47.6076 31.2579 47.2208 31.2817C46.6923 31.3136 46.4929 30.8526 46.6114 30.3891C47.5123 26.8528 44.4557 23.7528 41.0268 24.574C40.8111 24.6259 40.6453 24.6374 40.5295 24.6084C39.8985 24.4517 39.8616 23.5059 40.4798 23.314C41.5038 22.9957 42.5328 22.9713 43.5669 23.2409Z" fill="#3B3B58"/>
<path d="M44.1141 29.0767C44.1141 29.6084 43.9079 30.1183 43.5409 30.4943C43.1738 30.8703 42.6761 31.0815 42.157 31.0815C41.6379 31.0815 41.1401 30.8703 40.7731 30.4943C40.4061 30.1183 40.1999 29.6084 40.1999 29.0767C40.1999 28.5449 40.4061 28.035 40.7731 27.659C41.1401 27.283 41.6379 27.0718 42.157 27.0718C42.6761 27.0718 43.1738 27.283 43.5409 27.659C43.9079 28.035 44.1141 28.5449 44.1141 29.0767ZM42.8329 29.0767C42.8329 28.8928 42.7616 28.7165 42.6347 28.5865C42.5078 28.4565 42.3357 28.3835 42.1562 28.3835C41.9767 28.3835 41.8046 28.4565 41.6777 28.5865C41.5508 28.7165 41.4795 28.8928 41.4795 29.0767C41.4795 29.2605 41.5508 29.4368 41.6777 29.5668C41.8046 29.6968 41.9767 29.7698 42.1562 29.7698C42.3357 29.7698 42.5078 29.6968 42.6347 29.5668C42.7616 29.4368 42.8329 29.2605 42.8329 29.0767Z" fill="#3B3B58"/>
<path d="M36.5054 52.7911C36.8296 52.7911 37.0924 52.5219 37.0924 52.1898C37.0924 51.8577 36.8296 51.5885 36.5054 51.5885C36.1813 51.5885 35.9185 51.8577 35.9185 52.1898C35.9185 52.5219 36.1813 52.7911 36.5054 52.7911Z" fill="#3B3B58"/>
</g>
<defs>
<filter id="filter0_d_1739_3795" x="0.0851512" y="0.3901" width="80.933" height="77.4891" filterUnits="userSpaceOnUse" color-interpolation-filters="sRGB">
<feFlood flood-opacity="0" result="BackgroundImageFix"/>
<feColorMatrix in="SourceAlpha" type="matrix" values="0 0 0 0 0 0 0 0 0 0 0 0 0 0 0 0 0 0 127 0" result="hardAlpha"/>
<feMorphology radius="6.02693" operator="erode" in="SourceAlpha" result="effect1_dropShadow_1739_3795"/>
<feOffset dy="4.30495"/>
<feGaussianBlur stdDeviation="9.47089"/>
<feComposite in2="hardAlpha" operator="out"/>
<feColorMatrix type="matrix" values="0 0 0 0 0.608333 0 0 0 0 0.565243 0 0 0 0 0.575417 0 0 0 0.18 0"/>
<feBlend mode="normal" in2="BackgroundImageFix" result="effect1_dropShadow_1739_3795"/>
<feBlend mode="normal" in="SourceGraphic" in2="effect1_dropShadow_1739_3795" result="shape"/>
</filter>
</defs>
</svg>
