<svg width="20" height="20" viewBox="0 0 20 20" fill="none" xmlns="http://www.w3.org/2000/svg">
<path fill-rule="evenodd" clip-rule="evenodd" d="M2.05764 5.80764C2.1157 5.74944 2.18467 5.70326 2.2606 5.67175C2.33653 5.64024 2.41793 5.62402 2.50014 5.62402C2.58235 5.62402 2.66375 5.64024 2.73968 5.67175C2.81561 5.70326 2.88458 5.74944 2.94264 5.80764L10.0001 12.8664L17.0576 5.80764C17.1158 5.74953 17.1847 5.70343 17.2607 5.67199C17.3366 5.64054 17.418 5.62435 17.5001 5.62435C17.5823 5.62435 17.6637 5.64054 17.7396 5.67199C17.8155 5.70343 17.8845 5.74953 17.9426 5.80764C18.0007 5.86575 18.0468 5.93474 18.0783 6.01066C18.1097 6.08659 18.1259 6.16796 18.1259 6.25014C18.1259 6.33232 18.1097 6.4137 18.0783 6.48962C18.0468 6.56554 18.0007 6.63453 17.9426 6.69264L10.4426 14.1926C10.3846 14.2508 10.3156 14.297 10.2397 14.3285C10.1638 14.36 10.0823 14.3763 10.0001 14.3763C9.91793 14.3763 9.83653 14.36 9.7606 14.3285C9.68467 14.297 9.6157 14.2508 9.55764 14.1926L2.05764 6.69264C1.99944 6.63458 1.95326 6.56561 1.92175 6.48968C1.89024 6.41375 1.87402 6.33235 1.87402 6.25014C1.87402 6.16793 1.89024 6.08653 1.92175 6.0106C1.95326 5.93467 1.99944 5.8657 2.05764 5.80764Z" fill="#212529"/>
</svg>
