<svg width="70" height="70" viewBox="0 0 70 70" fill="none" xmlns="http://www.w3.org/2000/svg">
<g clip-path="url(#clip0_698_1563)">
<path d="M3.40234 15.668V52.9518C3.40234 58.3577 6.13852 63.4373 10.7362 66.2811C10.8504 66.3518 10.9665 66.4218 11.0842 66.4912C13.5062 67.9174 16.2835 68.6276 19.0942 68.6276H26.1248C26.3981 68.6276 26.6196 68.4061 26.6196 68.1328V48.5547C26.6196 48.2814 26.3981 48.0599 26.1248 48.0599H17.072C15.9337 48.0599 15.011 47.1371 15.011 45.9989V24.2364C15.011 22.8988 16.0953 21.8144 17.433 21.8144H25.8725C26.1458 21.8144 26.3673 21.5929 26.3673 21.3196V1.86791C26.3673 1.59464 26.1458 1.37311 25.8725 1.37311L16.7676 1.37256C16.7595 1.37256 16.7757 1.37215 16.7676 1.37256C16.4684 1.38628 10.1663 1.10601 5.99976 7.15155C4.27803 9.6496 3.40234 12.6341 3.40234 15.668Z" fill="#FD6050"/>
<path d="M25.8732 1.37311L17.0293 1.37256V21.8512C17.1608 21.8282 17.2954 21.8144 17.4337 21.8144H25.8732C26.1465 21.8144 26.368 21.5929 26.368 21.3196V1.86791C26.368 1.59464 26.1465 1.37311 25.8732 1.37311Z" fill="#D63B78"/>
<path d="M26.1256 48.06H17.0728C17.0581 48.06 17.0438 48.0587 17.0293 48.0583V68.4939C17.7128 68.5805 18.4025 68.6276 19.095 68.6276H26.1256C26.3989 68.6276 26.6204 68.4061 26.6204 68.1328V48.5547C26.6204 48.2814 26.3989 48.06 26.1256 48.06Z" fill="#D63B78"/>
<path d="M36.6815 21.8468H51.7177V27.9255C51.7177 28.3661 52.2232 28.615 52.5724 28.3465L66.2068 17.8632C66.7267 17.4635 66.7314 16.6813 66.2164 16.2753L52.2791 5.28762C51.9907 5.06019 51.5671 5.26566 51.5671 5.63296V11.4622H36.6508C35.9305 11.4622 35.3458 12.0443 35.3423 12.7646L35.3067 20.4656C35.3032 21.2273 35.9198 21.8468 36.6815 21.8468Z" fill="#FDCB50"/>
<path d="M65.2248 48.1531H50.1886V42.0742C50.1886 41.6336 49.6831 41.3848 49.3339 41.6533L35.6996 52.1365C35.1796 52.5362 35.175 53.3184 35.6899 53.7244L49.6272 64.7121C49.9156 64.9394 50.3392 64.7341 50.3392 64.3668V58.5376H65.2554C65.9757 58.5376 66.5604 57.9555 66.5639 57.2352L66.5995 49.5342C66.6031 48.7724 65.9866 48.1531 65.2248 48.1531Z" fill="#67CCD1"/>
<path d="M26.1248 46.6873H17.072C16.6922 46.6873 16.3834 46.3785 16.3834 45.9989V24.2364C16.3834 23.6577 16.8543 23.1871 17.4328 23.1871H25.8722C26.9019 23.1871 27.7396 22.3494 27.7396 21.3197V1.86791C27.7396 0.838219 26.9019 0.000550227 25.8724 0.000550227L16.7885 1.2063e-06C14.9235 -0.000822325 9.01742 0.418355 4.86929 6.37262C3.01168 9.06818 2.02976 12.2824 2.02976 15.668V52.9518C1.98474 58.8902 5.24098 64.7234 10.3876 67.6738C12.972 69.1957 15.9826 70 19.094 70H26.1248C27.1545 70 27.9921 69.1623 27.9921 68.1326V48.5547C27.992 47.525 27.1545 46.6873 26.1248 46.6873ZM25.2469 67.2549H19.094C11.2883 67.4174 4.67988 60.7699 4.775 52.9517L4.77486 15.668C4.77486 12.8413 5.5892 10.1658 7.12961 7.93033C10.5088 3.07781 15.2664 2.75252 16.7773 2.7451L24.9945 2.74552V20.4418H17.4328C15.3405 20.4418 13.6383 22.1441 13.6383 24.2362V45.9989C13.6383 47.8922 15.1787 49.4324 17.072 49.4324H25.247V67.2549H25.2469Z" fill="#052A75"/>
<path d="M36.6811 23.2193H50.3447V27.9255C50.3298 29.485 52.1739 30.4016 53.4086 29.4346L67.043 18.9514C67.6288 18.5009 67.9673 17.8189 67.9718 17.0799C67.9762 16.341 67.646 15.6549 67.0659 15.1976L53.1281 4.20961C51.9617 3.27257 50.1796 4.13151 50.1941 5.63295V10.0896H36.6503C35.1789 10.0896 33.9763 11.2868 33.9694 12.7581L33.9336 20.4593C33.9303 21.1955 34.2144 21.8884 34.7338 22.4101C35.2532 22.9319 35.9447 23.2193 36.6811 23.2193ZM36.7143 12.8347H51.5667C52.3246 12.8347 52.9392 12.2202 52.9392 11.4622V7.55631L64.9968 17.0619L53.0898 26.2171V21.8468C53.0898 21.0887 52.4751 20.4742 51.7172 20.4742H36.6811L36.6787 20.472L36.7143 12.8347Z" fill="#052A75"/>
<path d="M65.2243 46.7805H51.5606V42.0742C51.576 40.5142 49.7287 39.5983 48.4968 40.5652L34.8623 51.0485C34.2765 51.4988 33.9382 52.1808 33.9336 52.9198C33.9291 53.6587 34.2593 54.3449 34.8397 54.8024L48.7772 65.7902C49.9465 66.7287 51.7258 65.8661 51.7113 64.3669V59.9102H65.255C66.7265 59.9102 67.9291 58.7131 67.936 57.2417L67.9717 49.5407C67.9751 48.8045 67.6909 48.1116 67.1715 47.5898C66.652 47.0678 65.9605 46.7805 65.2243 46.7805ZM65.191 57.165H50.3387C49.5806 57.165 48.9661 57.7795 48.9661 58.5375V62.4436L36.9085 52.9377L48.8154 43.7828V48.1528C48.8154 48.9109 49.43 49.5254 50.1879 49.5254H65.2241L65.2264 49.5277L65.191 57.165Z" fill="#052A75"/>
</g>
<defs>
<clipPath id="clip0_698_1563">
<rect width="70" height="70" fill="white"/>
</clipPath>
</defs>
</svg>
