<svg width="69" height="69" viewBox="0 0 69 69" fill="none" xmlns="http://www.w3.org/2000/svg">
<rect width="68.2" height="68.2" rx="5.68333" fill="#DCE8FF"/>
<path d="M34.0999 25.1487C29.7231 25.1487 26.1426 28.7292 26.1426 33.106C26.1426 34.8962 26.7393 36.4869 27.7333 37.7812C27.7333 37.7812 28.0316 38.1784 28.1305 38.2791C29.0256 39.3738 31.2131 42.4563 31.2131 45.0429H37.1806C37.1806 42.4563 39.368 39.3738 40.2631 38.2791C40.362 38.1803 40.6603 37.7812 40.6603 37.7812C41.6543 36.4888 42.251 34.7974 42.251 33.106C42.0571 28.7292 38.4766 25.1487 34.0999 25.1487H34.0999Z" fill="black"/>
<path d="M31.1162 47.0288H37.0837V51.0065H31.1162V47.0288Z" fill="black"/>
<path d="M18.1875 32.1099H24.155V34.0997H18.1875V32.1099Z" fill="black"/>
<path d="M44.0449 32.1099H50.0124V34.0997H44.0449V32.1099Z" fill="black"/>
<path d="M44.6606 21.1484L46.0666 22.5545L41.8465 26.7746L40.4404 25.3686L44.6606 21.1484Z" fill="black"/>
<path d="M33.1064 17.1912H35.0963V23.1587H33.1064V17.1912Z" fill="black"/>
<path d="M23.5506 21.1394L27.7707 25.3595L26.3647 26.7656L22.1445 22.5455L23.5506 21.1394Z" fill="black"/>
</svg>
