<svg width="26" height="24" viewBox="0 0 26 24" fill="none" xmlns="http://www.w3.org/2000/svg">
<path d="M10.1178 24C8.69699 24 7.54102 22.8441 7.54102 21.4233C7.54102 20.0025 8.69699 18.8469 10.1178 18.8469C11.5386 18.8469 12.6946 20.0025 12.6946 21.4233C12.6946 22.8441 11.5386 24 10.1178 24ZM10.1178 20.4642C9.58893 20.4642 9.15832 20.8944 9.15832 21.4233C9.15832 21.9525 9.58852 22.3827 10.1178 22.3827C10.6471 22.3827 11.0773 21.9525 11.0773 21.4233C11.0773 20.8944 10.6471 20.4642 10.1178 20.4642Z" fill="black"/>
<path d="M19.0754 24C17.6546 24 16.499 22.844 16.499 21.4232C16.499 20.0024 17.6546 18.8469 19.0754 18.8469C20.4962 18.8469 21.6522 20.0024 21.6522 21.4232C21.6522 22.844 20.4958 24 19.0754 24ZM19.0754 20.4642C18.5465 20.4642 18.1163 20.8944 18.1163 21.4232C18.1163 21.9525 18.5465 22.3827 19.0754 22.3827C19.6047 22.3827 20.0349 21.9525 20.0349 21.4232C20.0349 20.8944 19.6042 20.4642 19.0754 20.4642Z" fill="black"/>
<path d="M20.9619 16.8495H8.25836C7.02234 16.8495 5.96664 16.0081 5.69089 14.8032L3.05428 3.28919C3.01951 3.13717 2.91438 3.00697 2.77287 2.94147L0.585867 1.92783C0.0796509 1.69332 -0.140707 1.09249 0.0938023 0.585867C0.328312 0.0796509 0.929545 -0.140707 1.43576 0.0938023L3.62276 1.10745C4.3275 1.43374 4.85191 2.08066 5.02497 2.83797L7.66158 14.3528C7.72546 14.6326 7.97089 14.8283 8.25836 14.8283H20.9619C21.2482 14.8283 21.4932 14.6338 21.5587 14.3548L23.6086 5.53523C23.6672 5.28454 23.5605 5.10219 23.4922 5.01607C23.4234 4.92955 23.2698 4.7848 23.0126 4.7848H8.05256C7.49419 4.7848 7.04175 4.33236 7.04175 3.77398C7.04175 3.21561 7.49419 2.76316 8.05256 2.76316H23.0126C23.8209 2.76316 24.5721 3.12585 25.0751 3.75862C25.5781 4.39139 25.7608 5.2057 25.5781 5.99292L23.5277 14.8129C23.2484 16.0117 22.1935 16.8495 20.9619 16.8495Z" fill="black"/>
</svg>
