<svg width="24" height="24" viewBox="0 0 24 24" fill="none" xmlns="http://www.w3.org/2000/svg">
<path d="M5.74609 21.75C5.74609 22.1646 6.08191 22.5 6.49609 22.5H18.7883C20.2151 22.5 21.376 21.3391 21.376 19.9124V7.48499C21.376 7.0708 21.0402 6.73499 20.626 6.73499C20.2118 6.73499 19.876 7.0708 19.876 7.48499V19.9124C19.876 20.5122 19.3882 21 18.7883 21H6.49609C6.08191 21 5.74609 21.3354 5.74609 21.75Z" fill="black"/>
<path d="M9.69812 11.25H8.07031C7.65613 11.25 7.32031 11.5858 7.32031 12C7.32031 12.4142 7.65613 12.75 8.07031 12.75H9.69812C10.1123 12.75 10.4481 12.4142 10.4481 12C10.4481 11.5858 10.1123 11.25 9.69812 11.25Z" fill="black"/>
<path d="M15.9297 16.6802C16.3439 16.6802 16.6797 16.3447 16.6797 15.9302C16.6797 15.5156 16.3439 15.1802 15.9297 15.1802H12.3145C11.9003 15.1802 11.5645 15.5156 11.5645 15.9302C11.5645 16.3447 11.9003 16.6802 12.3145 16.6802H15.9297Z" fill="black"/>
<path d="M12.0004 7.31799H8.06836C7.65417 7.31799 7.31836 7.65381 7.31836 8.06799C7.31836 8.48218 7.65417 8.81799 8.06836 8.81799H12.0004C12.4146 8.81799 12.7504 8.48218 12.7504 8.06799C12.7504 7.65381 12.4146 7.31799 12.0004 7.31799Z" fill="black"/>
<path d="M21.2197 1.71973L18.4563 4.48315L15.4003 1.69592C15.2619 1.56435 15.0764 1.52083 14.8949 1.5H5.21265C3.78589 1.5 2.625 2.66089 2.625 4.08765C2.625 4.08765 2.6385 20.1594 2.65681 20.2826L1.71973 21.2197C1.42676 21.5127 1.42676 21.9873 1.71973 22.2803C1.86621 22.4268 2.05811 22.5 2.25 22.5C2.44189 22.5 2.63379 22.4268 2.78027 22.2803L22.2803 2.78027C22.5732 2.4873 22.5732 2.0127 22.2803 1.71973C21.9873 1.42676 21.5127 1.42676 21.2197 1.71973ZM16.3013 6.63817C15.9147 6.46944 15.6449 6.09558 15.6449 5.65503V3.94922L17.3946 5.54489L16.3013 6.63817ZM4.125 4.08765C4.125 3.48779 4.61279 3 5.21265 3H14.1449V5.65503C14.1449 6.5045 14.5605 7.2616 15.2049 7.73451L4.125 18.8145V4.08765Z" fill="black"/>
</svg>
