<svg width="19" height="21" viewBox="0 0 19 21" fill="none" xmlns="http://www.w3.org/2000/svg">
<path d="M17.3301 3.23926H1.66992C0.750277 3.23926 0 4.0137 0 4.96484V16.4688C0 17.4167 0.746938 18.1943 1.66992 18.1943H17.3301C18.2474 18.1943 19 17.4225 19 16.4688V4.96484C19 4.01692 18.2531 3.23926 17.3301 3.23926ZM17.0995 4.38965L9.5354 12.2059L1.9059 4.38965H17.0995ZM1.11328 16.2305V5.19757L6.47481 10.6903L1.11328 16.2305ZM1.90048 17.0439L7.26539 11.5002L9.14523 13.426C9.36284 13.649 9.71401 13.6483 9.93073 13.4243L11.7637 11.5302L17.0995 17.0439H1.90048ZM17.8867 16.2305L12.5509 10.7168L17.8867 5.20305V16.2305Z" fill="#EF5E7F"/>
</svg>
