<svg width="40" height="41" viewBox="0 0 40 41" fill="none" xmlns="http://www.w3.org/2000/svg">
<path d="M24.6236 2.7558L22.225 2.75195C19.5303 2.75195 17.7888 4.53864 17.7888 7.30402V9.40283H15.3772C15.1688 9.40283 15 9.57178 15 9.78018V12.8211C15 13.0295 15.1689 13.1983 15.3772 13.1983H17.7888V20.8715C17.7888 21.0799 17.9576 21.2487 18.166 21.2487H21.3125C21.5209 21.2487 21.6897 21.0797 21.6897 20.8715V13.1983H24.5095C24.7179 13.1983 24.8866 13.0295 24.8866 12.8211L24.8878 9.78018C24.8878 9.68011 24.848 9.58429 24.7773 9.51347C24.7067 9.44266 24.6105 9.40283 24.5104 9.40283H21.6897V7.62364C21.6897 6.76849 21.8935 6.33438 23.0074 6.33438L24.6232 6.3338C24.8314 6.3338 25.0002 6.16485 25.0002 5.95664V3.13296C25.0002 2.92495 24.8316 2.75619 24.6236 2.7558Z" fill="black"/>
</svg>
