<svg width="57" height="57" viewBox="0 0 57 57" fill="none" xmlns="http://www.w3.org/2000/svg">
<g clip-path="url(#clip0_1097_1891)">
<path d="M24.0469 8.90625H56.1094V48.0938H24.0469V8.90625Z" fill="#A0EB3C"/>
<path d="M26.7188 11.5781H56.1094V48.0938H26.7188V11.5781Z" fill="#BEFF6E"/>
<path d="M49.7334 8.90625H27.7617L38.752 19.8877L49.7334 8.90625Z" fill="#96FAFA"/>
<path d="M44.0236 25.1691L56.1094 13.0833V8.90625H49.7325L38.7511 19.8877L27.7608 8.90625H24.0469V15.7463L33.3895 25.0889L24.0469 34.4316V44.9855L38.6709 30.3703L44.3531 36.0525L32.3119 48.0938H42.8658L49.6345 41.325L56.1094 47.8088V37.2548L44.0236 25.1691Z" fill="#FAC35A"/>
<path d="M24.0469 44.9855V48.0937H32.3119L44.3531 36.0525L38.6709 30.3703L24.0469 44.9855Z" fill="#96FAFA"/>
<path d="M24.0469 34.4316V44.9855L26.7188 42.3136V31.7597L24.0469 34.4316Z" fill="#FAAA2D"/>
<path d="M30.4327 11.5781L27.7608 8.90625H24.0469V15.7463L26.7187 18.4181V11.5781H30.4327Z" fill="#FAAA2D"/>
<path d="M49.7324 8.90625L47.0605 11.5781H56.1093V8.90625H49.7324Z" fill="#FAAA2D"/>
<path d="M49.7334 8.90625H27.7617L30.4336 11.5781H47.0616L49.7334 8.90625Z" fill="#85EBEB"/>
<path d="M24.0469 44.9855V48.0938H26.7188V42.3136L24.0469 44.9855Z" fill="#85EBEB"/>
<path d="M11.5625 38.7912L8.41414 35.6428L14.0812 29.9758L17.2295 33.1242L11.5625 38.7912Z" fill="#FFFF86"/>
<path d="M11.5625 38.7877L9.67348 36.8986L15.3405 31.2316L17.2295 33.1206L11.5625 38.7877Z" fill="#FFF546"/>
<path d="M11.3906 32.6681C11.8181 33.2649 12.2812 33.8438 12.8245 34.387C13.3589 34.9214 13.9378 35.3934 14.5434 35.8209L17.242 33.1224L14.0892 29.9695L11.3906 32.6681Z" fill="#FAE11E"/>
<path d="M14.0814 29.9695L11.3828 32.6681C11.7212 33.1491 12.1042 33.6122 12.5139 34.0575L15.3372 31.2342L14.0814 29.9695Z" fill="#FFF546"/>
<path d="M11.5689 38.7867L8.41613 35.6339C8.06879 35.2866 7.50769 35.2866 7.16035 35.6339L1.8077 40.9866C0.587539 42.2067 0.587539 44.175 1.8077 45.3952C3.02785 46.6153 4.99613 46.6153 6.21629 45.3952L11.5689 40.0425C11.9163 39.6952 11.9163 39.1341 11.5689 38.7867Z" fill="#7D87A0"/>
<path d="M8.4157 38.1544C8.06836 37.807 7.50727 37.807 7.15992 38.1544L1.80727 43.507C1.53117 43.7831 1.31742 44.1126 1.16602 44.4511C1.31742 44.7895 1.52227 45.1191 1.80727 45.3951C3.02742 46.6153 4.9957 46.6153 6.21586 45.3951L10.9362 40.6748L8.4157 38.1544Z" fill="#6E788C"/>
<path d="M22.2656 36.5156C28.66 36.5156 33.8438 31.3319 33.8438 24.9375C33.8438 18.5431 28.66 13.3594 22.2656 13.3594C15.8712 13.3594 10.6875 18.5431 10.6875 24.9375C10.6875 31.3319 15.8712 36.5156 22.2656 36.5156Z" fill="#7D87A0"/>
<path d="M30.4504 19.2731C25.926 14.7487 18.5962 14.7487 14.0807 19.2731C12.1391 21.2147 11.0437 23.6728 10.7676 26.2022C11.0437 28.7315 12.148 31.1897 14.0807 33.1312C18.6051 37.6556 25.9349 37.6556 30.4504 33.1312C32.392 31.1897 33.4874 28.7315 33.7635 26.2022C33.4963 23.6639 32.392 21.2058 30.4504 19.2731Z" fill="#6E788C"/>
<path d="M22.2656 32.9531C26.6925 32.9531 30.2812 29.3644 30.2812 24.9375C30.2812 20.5106 26.6925 16.9219 22.2656 16.9219C17.8387 16.9219 14.25 20.5106 14.25 24.9375C14.25 29.3644 17.8387 32.9531 22.2656 32.9531Z" fill="white"/>
<path d="M27.9299 21.7847C29.1768 23.0316 29.916 24.5813 30.1743 26.1933C30.5662 23.7441 29.818 21.1524 27.9299 19.2642C24.8038 16.1382 19.7273 16.1382 16.5923 19.2642C14.7041 21.1524 13.9649 23.7441 14.3479 26.1933C14.6062 24.5813 15.3454 23.0316 16.5923 21.7847C19.7273 18.6586 24.8038 18.6586 27.9299 21.7847Z" fill="#E6E6F5"/>
<path d="M24.0469 51.6562C24.0469 53.6245 25.6411 55.2188 27.6094 55.2188H52.5469C54.5152 55.2188 56.1094 53.6245 56.1094 51.6562V48.0938H24.0469V51.6562Z" fill="#7D87A0"/>
<path d="M56.1094 5.34375C56.1094 3.37547 54.5152 1.78125 52.5469 1.78125H27.6094C25.6411 1.78125 24.0469 3.37547 24.0469 5.34375V8.90625H56.1094V5.34375Z" fill="#7D87A0"/>
<path d="M51.6562 3.5625H30.2812C28.313 3.5625 26.7188 5.15672 26.7188 7.125V8.90625H56.1094V8.01562C56.1094 5.5575 54.1144 3.5625 51.6562 3.5625Z" fill="#6E788C"/>
<path d="M26.7188 48.0938V51.6562C26.7188 53.6245 28.313 55.2188 30.2812 55.2188H52.5469C54.5152 55.2188 56.1094 53.6245 56.1094 51.6562V48.0938H26.7188Z" fill="#6E788C"/>
<path d="M37.4062 52.5469H42.75C43.2398 52.5469 43.6406 52.1461 43.6406 51.6562C43.6406 51.1664 43.2398 50.7656 42.75 50.7656H37.4062C36.9164 50.7656 36.5156 51.1664 36.5156 51.6562C36.5156 52.1461 36.9164 52.5469 37.4062 52.5469Z" fill="black"/>
<path d="M52.5461 0.890625H27.6086C25.1504 0.890625 23.1554 2.88563 23.1554 5.34375V12.5133C22.8615 12.4955 22.5676 12.4688 22.2648 12.4688C15.3892 12.4688 9.79605 18.0619 9.79605 24.9375C9.79605 27.2442 10.4373 29.3995 11.5328 31.2609L8.23746 34.5562C7.64074 34.4048 6.99059 34.5473 6.52746 35.0105L1.1748 40.3631C-0.383789 41.9217 -0.383789 44.4689 1.1748 46.0275C2.7334 47.5861 5.28059 47.5861 6.83918 46.0275L12.1918 40.6748C12.655 40.2117 12.8064 39.5527 12.6461 38.9559L15.9414 35.6606C17.7939 36.765 19.9581 37.4062 22.2648 37.4062C22.5676 37.4062 22.8615 37.3795 23.1554 37.3617V51.6562C23.1554 54.1144 25.1504 56.1094 27.6086 56.1094H52.5461C55.0042 56.1094 56.9992 54.1144 56.9992 51.6562V5.34375C56.9992 2.88563 55.0042 0.890625 52.5461 0.890625ZM5.5834 44.7717C4.71949 45.6356 3.3034 45.6445 2.43059 44.7717C1.55777 43.8989 1.56668 42.4917 2.43059 41.6189L7.78324 36.2663L10.9361 39.4191L5.5834 44.7717ZM11.5595 37.5309L9.67137 35.6428L12.557 32.7572C13.1181 33.4519 13.7504 34.0842 14.4451 34.6453L11.5595 37.5309ZM22.2648 35.625C16.3689 35.625 11.5773 30.8334 11.5773 24.9375C11.5773 19.0416 16.3689 14.25 22.2648 14.25C28.1607 14.25 32.9523 19.0416 32.9523 24.9375C32.9523 30.8334 28.1518 35.625 22.2648 35.625ZM24.9367 45.3595L38.6701 31.6261L43.0965 36.0525L31.9459 47.2031H24.9367V45.3595ZM55.2179 51.6562C55.2179 53.1258 54.0156 54.3281 52.5461 54.3281H27.6086C26.139 54.3281 24.9367 53.1258 24.9367 51.6562V48.9844H55.2179V51.6562ZM45.0203 47.2031L49.6337 42.5897L54.2472 47.2031H45.0203ZM55.2179 35.0995L45.2875 25.1691L55.2179 15.2297V35.0995ZM55.2179 12.7092L43.3904 24.5367C43.0431 24.8841 43.0431 25.4452 43.3904 25.7925L55.2179 37.62V45.6534L50.2571 40.6927C49.9098 40.3453 49.3487 40.3453 49.0014 40.6927L42.4998 47.1942H34.4664L44.9846 36.6759C45.332 36.3286 45.332 35.7675 44.9846 35.4202L39.3025 29.738C38.9551 29.3906 38.394 29.3906 38.0467 29.738L24.9367 42.8391V37.1123C30.5298 35.8833 34.7336 30.8958 34.7336 24.9375C34.7336 18.9792 30.5298 13.9917 24.9367 12.7627V9.79688H27.3948L38.1179 20.52C38.4653 20.8673 39.0264 20.8673 39.3737 20.52L50.0968 9.79688H55.2179V12.7092ZM29.9153 9.79688H47.5764L38.7414 18.6319L29.9153 9.79688ZM55.2179 8.01562H24.9367V5.34375C24.9367 3.87422 26.139 2.67188 27.6086 2.67188H52.5461C54.0156 2.67188 55.2179 3.87422 55.2179 5.34375V8.01562Z" fill="black"/>
<path d="M42.75 4.45312H37.4062C36.9164 4.45312 36.5156 4.85391 36.5156 5.34375C36.5156 5.83359 36.9164 6.23438 37.4062 6.23438H42.75C43.2398 6.23438 43.6406 5.83359 43.6406 5.34375C43.6406 4.85391 43.2398 4.45312 42.75 4.45312Z" fill="black"/>
<path d="M46.3125 6.23438C46.8044 6.23438 47.2031 5.83563 47.2031 5.34375C47.2031 4.85187 46.8044 4.45312 46.3125 4.45312C45.8206 4.45312 45.4219 4.85187 45.4219 5.34375C45.4219 5.83563 45.8206 6.23438 46.3125 6.23438Z" fill="black"/>
<path d="M22.2656 16.0312C17.3583 16.0312 13.3594 20.0302 13.3594 24.9375C13.3594 29.8448 17.3583 33.8438 22.2656 33.8438C27.173 33.8438 31.1719 29.8448 31.1719 24.9375C31.1719 20.0302 27.173 16.0312 22.2656 16.0312ZM22.2656 32.0625C18.338 32.0625 15.1406 28.8652 15.1406 24.9375C15.1406 21.0098 18.338 17.8125 22.2656 17.8125C26.1933 17.8125 29.3906 21.0098 29.3906 24.9375C29.3906 28.8652 26.1933 32.0625 22.2656 32.0625Z" fill="black"/>
</g>
<defs>
<clipPath id="clip0_1097_1891">
<rect width="57" height="57" fill="white"/>
</clipPath>
</defs>
</svg>
