<svg width="19" height="21" viewBox="0 0 19 21" fill="none" xmlns="http://www.w3.org/2000/svg">
<g clip-path="url(#clip0_59_1221)">
<path d="M17.6659 9.4929C17.5931 7.35133 16.7539 5.34873 15.2802 3.82592C13.7355 2.22948 11.6827 1.35059 9.50003 1.35059C5.09173 1.35059 1.48975 4.97631 1.33448 9.4929C0.661762 9.80182 0.190918 10.4976 0.190918 11.3062V13.534C0.190918 14.6279 1.05215 15.5182 2.11111 15.5182C2.79629 15.5182 3.35353 14.9424 3.35353 14.2343V10.6056C3.35353 9.94078 2.86012 9.39872 2.23282 9.3343C2.46439 5.39935 5.63442 2.2709 9.50003 2.2709C11.4452 2.2709 13.2742 3.05439 14.6508 4.47689C15.9149 5.78312 16.6547 7.48569 16.766 9.3346C16.1393 9.39964 15.6468 9.9414 15.6468 10.6056V14.234C15.6468 14.9043 16.1479 15.4498 16.7827 15.5065V16.4235C16.7827 17.4561 15.9695 18.296 14.9702 18.296H13.6281C13.5622 18.1015 13.4589 17.9217 13.314 17.7726C13.0602 17.5091 12.7217 17.364 12.3613 17.364H10.9779C10.7793 17.364 10.5887 17.4076 10.4141 17.4916C9.93792 17.7177 9.63035 18.2141 9.63035 18.7561C9.63035 19.1286 9.77078 19.4783 10.0252 19.74C10.2796 20.0035 10.6181 20.1486 10.9779 20.1486H12.3613C12.9349 20.1486 13.4404 19.7654 13.629 19.2163H14.9702C16.4609 19.2163 17.6733 17.9635 17.6733 16.4235V15.3427C18.3419 15.0319 18.8091 14.3386 18.8091 13.5334V11.3056C18.8091 10.4976 18.3383 9.80182 17.6659 9.4929ZM2.46261 10.6056V14.234C2.46261 14.4344 2.30496 14.5976 2.11081 14.5976C1.54318 14.5976 1.08125 14.1202 1.08125 13.5337V11.3059C1.08125 10.7191 1.54318 10.242 2.11081 10.242C2.30496 10.242 2.46261 10.4052 2.46261 10.6056ZM12.8081 18.8549C12.7639 19.0715 12.5757 19.2289 12.361 19.2289H10.9776C10.8559 19.2289 10.7416 19.1798 10.6543 19.0896C10.5682 19.001 10.5207 18.8825 10.5207 18.7568C10.5207 18.573 10.6249 18.4052 10.7882 18.3276C10.8464 18.2994 10.9102 18.2849 10.9776 18.2849H12.361C12.4827 18.2849 12.597 18.3337 12.684 18.4239C12.7701 18.5126 12.8176 18.631 12.8176 18.7568C12.8179 18.7905 12.8143 18.8243 12.8081 18.8549ZM17.9185 13.5337C17.9185 14.1202 17.4566 14.5976 16.8889 14.5976C16.6951 14.5976 16.5372 14.4347 16.5372 14.234V10.6056C16.5372 10.4052 16.6948 10.242 16.8889 10.242C17.4566 10.242 17.9185 10.7194 17.9185 11.3059V13.5337Z" fill="#EE5E7F"/>
<path d="M12.3835 13.692C13.4241 13.692 14.2705 12.8171 14.2705 11.7422V7.76917C14.2705 7.2495 14.0739 6.7599 13.7171 6.39116C13.3602 6.02242 12.8867 5.81934 12.3835 5.81934H6.61643C5.57588 5.81934 4.72949 6.69394 4.72949 7.76917V11.7422C4.72949 12.8174 5.57588 13.692 6.61643 13.692H6.65176V14.7215C6.65176 15.1142 6.87827 15.4627 7.22859 15.6096C7.3417 15.6566 7.45926 15.6799 7.57563 15.6799C7.81818 15.6799 8.05449 15.5805 8.22757 15.3955L9.88502 13.692H12.3835ZM9.38776 12.9054L7.59404 14.7488C7.58602 14.7574 7.58009 14.7639 7.56316 14.7562C7.54268 14.7476 7.54268 14.7338 7.54268 14.7215V13.2318C7.54268 12.9778 7.34348 12.7717 7.09737 12.7717H6.61673C6.06721 12.7717 5.62041 12.3097 5.62041 11.7422V7.76917C5.62041 7.20134 6.06721 6.73965 6.61673 6.73965H12.3838C12.6492 6.73965 12.8989 6.84702 13.0877 7.04182C13.2765 7.23692 13.3801 7.49522 13.3801 7.76917V11.7422C13.3801 12.31 12.933 12.7717 12.3838 12.7717H9.70185C9.58399 12.7717 9.47118 12.8198 9.38776 12.9054Z" fill="#EE5E7F"/>
<path d="M7.33667 9.15039C6.97448 9.15039 6.67969 9.45532 6.67969 9.82927C6.67969 10.2032 6.97478 10.5082 7.33667 10.5082C7.69916 10.5082 7.99425 10.2032 7.99425 9.82927C7.99425 9.45532 7.69945 9.15039 7.33667 9.15039Z" fill="#EE5E7F"/>
<path d="M9.49927 9.15039C9.13708 9.15039 8.84229 9.45532 8.84229 9.82927C8.84229 10.2032 9.13738 10.5082 9.49927 10.5082C9.86205 10.5082 10.1568 10.2032 10.1568 9.82927C10.1568 9.45532 9.86205 9.15039 9.49927 9.15039Z" fill="#EE5E7F"/>
<path d="M11.6628 9.15039C11.3007 9.15039 11.0059 9.45532 11.0059 9.82927C11.0059 10.2032 11.301 10.5082 11.6628 10.5082C12.0253 10.5082 12.3204 10.2032 12.3204 9.82927C12.3204 9.45532 12.0253 9.15039 11.6628 9.15039Z" fill="#EE5E7F"/>
</g>
<defs>
<clipPath id="clip0_59_1221">
<rect width="19" height="19.6333" fill="white" transform="translate(0 0.933105)"/>
</clipPath>
</defs>
</svg>
