<svg width="30" height="30" viewBox="0 0 30 30" fill="none" xmlns="http://www.w3.org/2000/svg">
<g clip-path="url(#clip0_698_1489)">
<path d="M15 0C9.1841 0 4.45312 4.73098 4.45312 10.5469C4.45312 12.3227 4.90289 14.0797 5.77664 15.6624L14.2516 29.5812C14.4112 29.8412 14.6944 30 15 30C15.3056 30 15.5888 29.8412 15.7484 29.5812L24.2457 15.6264C25.0971 14.0797 25.5469 12.3227 25.5469 10.5469C25.5469 4.73098 20.8159 0 15 0Z" fill="url(#paint0_linear_698_1489)"/>
<path d="M20.8886 10.8106L15.6152 5.53717C15.2812 5.18561 14.7188 5.18561 14.3848 5.53717L9.11133 10.8106C8.75977 11.1446 8.75977 11.707 9.11133 12.041C9.42762 12.3927 10.0256 12.3926 10.3417 12.041L10.6055 11.795V14.9414C10.6055 15.4337 10.9921 15.8203 11.4844 15.8203H14.1211V13.1836C14.1211 12.6913 14.5078 12.3047 15 12.3047C15.4922 12.3047 15.8789 12.6913 15.8789 13.1836V15.8203H18.5156C19.0079 15.8203 19.3945 15.4337 19.3945 14.9414V11.795L19.6583 12.041C19.9746 12.3927 20.5725 12.3926 20.8887 12.041C21.2402 11.707 21.2402 11.1446 20.8886 10.8106Z" fill="url(#paint1_linear_698_1489)"/>
</g>
<defs>
<linearGradient id="paint0_linear_698_1489" x1="15" y1="30" x2="15" y2="0" gradientUnits="userSpaceOnUse">
<stop stop-color="#5558FF"/>
<stop offset="1" stop-color="#EE5E7F"/>
</linearGradient>
<linearGradient id="paint1_linear_698_1489" x1="15" y1="15.8203" x2="15" y2="5.2735" gradientUnits="userSpaceOnUse">
<stop stop-color="#ADDCFF"/>
<stop offset="0.5028" stop-color="#EAF6FF"/>
<stop offset="1" stop-color="#EAF6FF"/>
</linearGradient>
<clipPath id="clip0_698_1489">
<rect width="30" height="30" fill="white"/>
</clipPath>
</defs>
</svg>
