<svg width="48" height="48" viewBox="0 0 48 48" fill="none" xmlns="http://www.w3.org/2000/svg">
<g clip-path="url(#clip0_89_1178)">
<path d="M10.5 33C9.672 33 9 33.672 9 34.5V46.5C9 47.328 9.672 48 10.5 48C11.328 48 12 47.328 12 46.5V34.5C12 33.672 11.328 33 10.5 33Z" fill="#EE5E7F"/>
<path d="M46.5 33C45.672 33 45 33.672 45 34.5V46.5C45 47.328 45.672 48 46.5 48C47.328 48 48 47.328 48 46.5V34.5C48 33.672 47.328 33 46.5 33Z" fill="#EE5E7F"/>
<path d="M40.5 36C41.328 36 42 35.328 42 34.5C42 33.672 41.328 33 40.5 33H34.5C33.672 33 33 33.672 33 34.5V46.5C33 47.328 33.672 48 34.5 48H40.5C41.328 48 42 47.328 42 46.5C42 45.672 41.328 45 40.5 45H36V42H40.5C41.328 42 42 41.328 42 40.5C42 39.672 41.328 39 40.5 39H36V36H40.5Z" fill="#EE5E7F"/>
<path d="M29.073 33.114C28.518 32.883 27.87 33.009 27.438 33.438L22.5 38.379L17.562 33.441C17.13 33.009 16.491 32.883 15.927 33.117C15.366 33.345 15 33.894 15 34.5V46.5C15 47.328 15.672 48 16.5 48C17.328 48 18 47.328 18 46.5V38.121L21.438 41.559C22.023 42.144 22.974 42.144 23.559 41.559L27 38.121V46.5C27 47.328 27.672 48 28.5 48C29.328 48 30 47.328 30 46.5V34.5C30 33.894 29.634 33.345 29.073 33.114Z" fill="#EE5E7F"/>
<path d="M9 0H12V30H9V0Z" fill="black"/>
<path d="M33 0H36V30H33V0Z" fill="black"/>
<path d="M27 0H30V30H27V0Z" fill="black"/>
<path d="M39 0H48V30H39V0Z" fill="black"/>
<path d="M15 0H24V30H15V0Z" fill="black"/>
<path d="M0 0H6V42H0V0Z" fill="black"/>
</g>
<defs>
<clipPath id="clip0_89_1178">
<rect width="48" height="48" fill="white"/>
</clipPath>
</defs>
</svg>
