<svg width="108" height="215" viewBox="0 0 108 215" fill="none" xmlns="http://www.w3.org/2000/svg">
<path d="M107.059 119.224L83.7536 104.1L79.6049 -0.00012207L0.872866 50.331L-8.70557 56.4706L0.872866 62.7174L32.0312 82.9409L0.878213 198.872L-2.61407 211.846L0.878213 214.76L4.37049 211.846L95.7214 135.494L83.0314 130.602L107.059 119.224ZM73.1042 97.1978L44.924 78.9162L70.4072 29.2419L73.1042 97.1978ZM10.4815 56.542L61.4479 23.9339L36.1764 73.228L10.4815 56.542ZM13.94 190.267L41.188 88.8717L85.7587 117.796L56.6106 131.575L75.49 138.824L13.94 190.267Z" fill="#E8E8E8"/>
<path d="M-30.2822 82.9391L0.867294 62.7156L10.4742 56.4689L0.867294 50.3292L-77.8612 -0.00012207L-82.0117 104.101L-105.282 119.224L-81.2503 130.602L-93.9403 135.492L-2.62143 211.842L0.87085 214.757L4.36313 211.842L0.87085 198.868L-30.2822 82.9391ZM-8.70579 56.5403L-34.3971 73.2263L-59.6739 23.9339L-8.70579 56.5403ZM-68.6279 29.233L-43.1465 78.9144L-71.3267 97.196L-68.6279 29.233ZM-73.7106 138.819L-54.8313 131.569L-83.9829 117.796L-39.4105 88.8717L-12.1643 190.259L-73.7106 138.819Z" fill="#E8E8E8"/>
</svg>
