<svg width="40" height="41" viewBox="0 0 40 41" fill="none" xmlns="http://www.w3.org/2000/svg">
<path d="M28.7497 20.7497V14.3404C28.7497 11.1904 28.0716 8.78418 24.3966 8.78418C22.6248 8.78418 21.4435 9.74667 20.9623 10.6654H20.9185V9.06855H17.4404V20.7497H21.0717V14.9529C21.0717 13.4216 21.356 11.956 23.2373 11.956C25.0966 11.956 25.1185 13.6841 25.1185 15.0404V20.7279H28.7497V20.7497Z" fill="black"/>
<path d="M11.5342 9.06934H15.1654V20.7505H11.5342V9.06934Z" fill="black"/>
<path d="M13.35 3.25C12.1906 3.25 11.25 4.19062 11.25 5.34999C11.25 6.50935 12.1906 7.47185 13.35 7.47185C14.5094 7.47185 15.45 6.50935 15.45 5.34999C15.45 4.19062 14.5094 3.25 13.35 3.25Z" fill="black"/>
</svg>
