<svg width="21" height="21" viewBox="0 0 21 21" fill="none" xmlns="http://www.w3.org/2000/svg">
<g clip-path="url(#clip0_916_1946)">
<path d="M21 13.1255C21 13.6654 20.79 14.1729 20.4067 14.5553L18.5938 16.3691C18.4231 16.5398 18.1991 16.6255 17.9751 16.6255C17.7511 16.6255 17.5271 16.5398 17.3565 16.3691C17.0144 16.027 17.0144 15.474 17.3565 15.1319L18.487 14.0005H13.125C12.6411 14.0005 12.25 13.6094 12.25 13.1255C12.25 12.6416 12.6411 12.2505 13.125 12.2505H18.487L17.3565 11.1191C17.0144 10.777 17.0144 10.224 17.3565 9.88189C17.6986 9.53977 18.2516 9.53977 18.5938 9.88189L20.4076 11.6966C20.79 12.0781 21 12.5856 21 13.1255ZM5.6875 9.62552C4.963 9.62552 4.375 10.2135 4.375 10.938C4.375 11.6625 4.963 12.2505 5.6875 12.2505C6.412 12.2505 7 11.6625 7 10.938C7 10.2135 6.412 9.62552 5.6875 9.62552ZM14 16.6255V18.3755C14 19.8228 12.8223 21.0005 11.375 21.0005H2.625C1.17775 21.0005 0 19.8228 0 18.3755V4.91889C0 2.84077 1.47875 1.03652 3.51662 0.628767L6.314 0.0696425C7.34737 -0.136858 8.40613 0.127392 9.21987 0.795017C9.548 1.06364 9.80175 1.39439 10.0091 1.75052H10.5C12.4303 1.75052 14 3.32027 14 5.25052V9.62552C14 10.1094 13.6089 10.5005 13.125 10.5005C12.6411 10.5005 12.25 10.1094 12.25 9.62552V5.25052C12.25 4.28539 11.4651 3.50052 10.5 3.50052V19.2496H11.375C11.858 19.2496 12.25 18.8576 12.25 18.3746V16.6246C12.25 16.1408 12.6411 15.7496 13.125 15.7496C13.6089 15.7496 14 16.1416 14 16.6255ZM8.75 3.50139C8.75 2.97464 8.51637 2.48202 8.11038 2.14864C7.79362 1.88877 7.40338 1.75139 7.00263 1.75139C6.888 1.75139 6.77163 1.76277 6.65613 1.78552L3.85962 2.34464C2.63725 2.58877 1.75 3.67202 1.75 4.91889V18.3755C1.75 18.8585 2.14287 19.2505 2.625 19.2505H8.75V3.50139Z" fill="#ee5e7f"/>
</g>
<defs>
<clipPath id="clip0_916_1946">
<rect width="21" height="21" fill="white"/>
</clipPath>
</defs>
</svg>
