<svg width="178" height="12" viewBox="0 0 178 12" fill="none" xmlns="http://www.w3.org/2000/svg">
<path d="M1 6H177" stroke="#9C9AA5" stroke-opacity="0.3" stroke-linecap="round"/>
<rect width="22.7213" height="12" transform="translate(78.0002)" fill="white"/>
<path d="M89.1928 6.656C89.1928 9.296 87.4648 11.144 85.0048 11.144C82.5568 11.144 80.8528 9.296 80.8528 6.656C80.8528 4.028 82.5688 2.168 85.0168 2.168C87.4768 2.168 89.1928 4.016 89.1928 6.656ZM87.9568 6.656C87.9568 4.64 86.7808 3.308 85.0168 3.308C83.2528 3.308 82.0888 4.64 82.0888 6.656C82.0888 8.672 83.2528 10.016 85.0168 10.016C86.7808 10.016 87.9568 8.66 87.9568 6.656ZM91.873 11H90.697V2.324H93.973C95.833 2.324 96.937 3.308 96.937 4.928C96.937 6.128 96.337 6.992 95.257 7.34L97.021 11H95.713L94.093 7.568H91.873V11ZM91.873 3.38V6.524H93.985C95.077 6.524 95.701 5.936 95.701 4.94C95.701 3.932 95.053 3.38 93.973 3.38H91.873Z" fill="#9C9AA5" fill-opacity="0.3"/>
</svg>
