<svg width="30" height="30" viewBox="0 0 30 30" fill="none" xmlns="http://www.w3.org/2000/svg">
<g clip-path="url(#clip0_698_1497)">
<path d="M22.3828 22.0312V25.5469C22.3828 27.0762 21.1342 28.1836 19.7584 28.1836C14.6953 28.1836 9.75586 25.79 6.08203 22.1309C2.4082 18.4717 0 13.5469 0 8.48379C0 7.02949 1.18301 5.85938 2.63672 5.85938H6.15234C6.53086 5.85938 6.8666 6.10137 6.98555 6.45996L8.74336 11.7211C8.82949 11.9789 8.79141 12.2613 8.64141 12.4869L7.15078 14.7234C7.71563 15.9082 8.71523 17.2031 9.86953 18.3434C11.0244 19.483 12.334 20.468 13.5188 21.0328L15.7553 19.5422C15.982 19.3928 16.2633 19.3535 16.5211 19.4402L21.7945 21.198C22.1531 21.317 22.3828 21.6527 22.3828 22.0312Z" fill="#EE5E7F"/>
<path d="M22.3828 22.0312V25.5469C22.3828 27.0762 21.1342 28.1836 19.7584 28.1836C14.6953 28.1836 9.75586 25.79 6.08203 22.1309L9.86953 18.3434C11.0244 19.483 12.334 20.468 13.5187 21.0328L15.7553 19.5422C15.982 19.3928 16.2633 19.3535 16.5211 19.4402L21.7945 21.198C22.1531 21.317 22.3828 21.6527 22.3828 22.0312Z" fill="#EE400B"/>
</g>
<defs>
<clipPath id="clip0_698_1497">
<rect width="30" height="30" fill="white"/>
</clipPath>
</defs>
</svg>
