<svg width="21" height="22" viewBox="0 0 21 22" fill="none" xmlns="http://www.w3.org/2000/svg">
<path d="M11.0244 9.99951V10.3388H11.3637H13.079C13.2165 10.3388 13.3483 10.3934 13.4455 10.4906C13.5427 10.5878 13.5973 10.7197 13.5973 10.8572C13.5973 10.9946 13.5427 11.1265 13.4455 11.2237C13.3483 11.3209 13.2165 11.3755 13.079 11.3755H11.3637H11.0244V11.7148V13.4301C11.0244 13.5675 10.9698 13.6994 10.8726 13.7966C10.7754 13.8938 10.6436 13.9484 10.5061 13.9484C10.3686 13.9484 10.2368 13.8938 10.1395 13.7966C10.0423 13.6994 9.98772 13.5675 9.98772 13.4301V11.7148V11.3755H9.64844H7.93316C7.79568 11.3755 7.66384 11.3209 7.56663 11.2237C7.46942 11.1265 7.41481 10.9946 7.41481 10.8572C7.41481 10.7197 7.46942 10.5878 7.56663 10.4906C7.66384 10.3934 7.79568 10.3388 7.93316 10.3388H9.64844H9.98772V9.99951V8.28423C9.98772 8.14676 10.0423 8.01491 10.1395 7.9177C10.2368 7.82049 10.3686 7.76588 10.5061 7.76588C10.6436 7.76588 10.7754 7.82049 10.8726 7.9177C10.9698 8.01491 11.0244 8.14676 11.0244 8.28423V9.99951ZM4.5026 18.0575H7.07552C7.213 18.0575 7.34484 18.1122 7.44205 18.2094C7.53926 18.3066 7.59387 18.4384 7.59387 18.5759C7.59387 18.7134 7.53926 18.8452 7.44205 18.9424C7.34484 19.0396 7.213 19.0943 7.07552 19.0943H4.5026C3.91021 19.0943 3.34208 18.8589 2.92319 18.44C2.5043 18.0212 2.26897 17.453 2.26897 16.8606V14.2877C2.26897 14.1502 2.32359 14.0184 2.4208 13.9212C2.518 13.824 2.64985 13.7694 2.78733 13.7694C2.9248 13.7694 3.05665 13.824 3.15386 13.9212C3.25107 14.0184 3.30568 14.1502 3.30568 14.2877V16.8606C3.30568 17.1781 3.43178 17.4825 3.65625 17.707C3.88072 17.9314 4.18516 18.0575 4.5026 18.0575ZM3.15386 7.79313C3.05665 7.89034 2.9248 7.94495 2.78733 7.94495C2.64985 7.94495 2.51801 7.89034 2.4208 7.79313C2.32359 7.69592 2.26897 7.56407 2.26897 7.42659V4.85368C2.26897 4.26128 2.5043 3.69315 2.92319 3.27426C3.34208 2.85538 3.91021 2.62005 4.5026 2.62005H7.07552C7.213 2.62005 7.34484 2.67466 7.44205 2.77187C7.53926 2.86908 7.59387 3.00092 7.59387 3.1384C7.59387 3.27588 7.53926 3.40772 7.44205 3.50493C7.34484 3.60214 7.213 3.65675 7.07552 3.65675H4.5026C4.18516 3.65675 3.88072 3.78286 3.65625 4.00732C3.43178 4.23179 3.30568 4.53623 3.30568 4.85368V7.42659C3.30568 7.56407 3.25107 7.69592 3.15386 7.79313ZM13.9366 2.62005H16.5095C17.1019 2.62005 17.6701 2.85538 18.089 3.27426C18.5079 3.69315 18.7432 4.26128 18.7432 4.85368V7.42659C18.7432 7.56407 18.6886 7.69592 18.5914 7.79313C18.4941 7.89034 18.3623 7.94495 18.2248 7.94495C18.0873 7.94495 17.9555 7.89034 17.8583 7.79313C17.7611 7.69592 17.7065 7.56407 17.7065 7.42659V4.85368C17.7065 4.53623 17.5804 4.23179 17.3559 4.00733C17.1314 3.78286 16.827 3.65675 16.5095 3.65675H13.9366C13.7992 3.65675 13.6673 3.60214 13.5701 3.50493C13.4729 3.40772 13.4183 3.27588 13.4183 3.1384C13.4183 3.00092 13.4729 2.86908 13.5701 2.77187C13.6673 2.67466 13.7992 2.62005 13.9366 2.62005ZM17.8583 13.9212C17.9555 13.824 18.0873 13.7694 18.2248 13.7694C18.3623 13.7694 18.4941 13.824 18.5914 13.9212C18.6886 14.0184 18.7432 14.1502 18.7432 14.2877V16.8606C18.7432 17.453 18.5079 18.0212 18.089 18.44C17.6701 18.8589 17.1019 19.0943 16.5095 19.0943H13.9366C13.7992 19.0943 13.6673 19.0396 13.5701 18.9424C13.4729 18.8452 13.4183 18.7134 13.4183 18.5759C13.4183 18.4384 13.4729 18.3066 13.5701 18.2094C13.6673 18.1122 13.7992 18.0575 13.9366 18.0575H16.5095C16.827 18.0575 17.1314 17.9314 17.3559 17.707C17.5804 17.4825 17.7065 17.1781 17.7065 16.8606V14.2877C17.7065 14.1502 17.7611 14.0184 17.8583 13.9212Z" fill="#EE5E7F" stroke="#EE5E7F" stroke-width="0.678571"/>
</svg>
