<svg width="70" height="70" viewBox="0 0 70 70" fill="none" xmlns="http://www.w3.org/2000/svg">
<g clip-path="url(#clip0_698_1459)">
<path d="M52.1198 51.4847C71.7323 50.9815 74.7209 23.8715 55.9756 18.9373C51.3647 -4.41138 18.5737 -4.39311 13.9729 18.9373C-4.78271 23.8795 -1.77226 50.9857 17.8289 51.4847C17.8287 51.4847 52.1198 51.4847 52.1198 51.4847Z" fill="#D2DCFD"/>
<path d="M53.481 25.2071C45.4426 18.6629 24.523 18.6551 16.4696 25.2069C13.9388 27.2885 12.5452 30.0756 12.5452 33.0552C12.5452 33.0688 12.5449 50.6052 12.5449 50.62C14.204 51.1806 15.9814 51.4847 17.8299 51.4847H52.121C53.9694 51.4847 55.7467 51.1806 57.4059 50.62C57.4059 50.6052 57.4057 33.0688 57.4057 33.0552C57.4054 30.0757 56.0118 27.2886 53.481 25.2071Z" fill="#93B2F4"/>
<path d="M49.85 33.0701L49.8505 63.4221H49.85C49.3391 70.2521 20.5953 70.2424 20.0963 63.4221H20.0957L20.0963 33.0701H49.85Z" fill="#FD8F01"/>
<path d="M49.7832 43.6644C47.8915 49.8449 22.0427 49.836 20.1629 43.6644H20.096L20.0957 63.4221H20.0963C20.6071 70.2521 49.3509 70.2424 49.85 63.4221H49.8505L49.8501 43.6644H49.7832Z" fill="#FDCB50"/>
<path d="M34.9731 58.2429C27.9685 58.2429 22.0458 56.6325 20.0958 54.4181L20.0957 63.4219H20.0963C20.6071 70.252 49.3509 70.2422 49.85 63.4219H49.8505L49.8504 54.4181C47.9004 56.6325 41.9777 58.2429 34.9731 58.2429Z" fill="#FD8F01"/>
<path d="M49.8504 33.0552C49.8504 35.9133 43.1898 38.2302 34.9735 38.2302C15.2348 37.9512 15.2359 28.1587 34.9736 27.88C43.1898 27.8801 49.8504 30.197 49.8504 33.0552Z" fill="#FDCB50"/>
<path d="M66.0892 23.8351C63.7985 20.9686 60.6519 18.86 57.1562 17.8318C51.4493 -5.91309 18.4858 -5.89593 12.7893 17.8318C-7.3308 24.4007 -2.47502 53.217 18.7223 52.858C18.7313 52.9128 18.7144 63.4228 18.7231 63.4718C18.7865 67.7383 26.9291 69.9703 34.9728 69.9703C43.0166 69.9703 51.1592 67.7383 51.2226 63.4719C51.2504 63.4291 51.2043 52.9058 51.2233 52.8578C66.5496 53.5349 75.6395 35.8382 66.0892 23.8351ZM48.4763 63.422C48.4763 63.8257 47.7583 64.8389 45.041 65.7842C42.3725 66.7124 38.7968 67.2237 34.9727 67.2237C31.1486 67.2237 27.5729 66.7124 24.9044 65.7842C22.1871 64.8389 21.4692 63.8257 21.4692 63.422C21.4291 63.3787 21.4975 36.909 21.469 36.8646C27.6421 40.5086 42.3032 40.5084 48.4763 36.8646C48.4758 36.9039 48.4779 63.3861 48.4763 63.422ZM45.041 35.4176C39.8237 37.3225 30.1217 37.3225 24.9044 35.4174C22.1871 34.4722 21.4692 33.4589 21.4692 33.0552C21.4692 32.6514 22.1871 31.6382 24.9044 30.6928C30.1217 28.7879 39.8237 28.7879 45.041 30.6929C47.7583 31.6382 48.4763 32.6514 48.4763 33.0552C48.4763 33.4589 47.7583 34.4723 45.041 35.4176ZM52.1183 50.1114H51.2233C51.2267 50.0994 51.2206 33.067 51.223 33.0553C51.16 24.3504 18.7854 24.3503 18.7227 33.0553C18.7227 33.069 18.7224 50.0964 18.7224 50.1114C0.315691 50.6029 -3.49718 25.0507 14.2914 20.2729C14.8235 20.1456 15.2294 19.7142 15.3241 19.1752C19.5439 -2.64982 50.403 -2.64886 54.6214 19.1753C54.7162 19.7141 55.122 20.1454 55.6543 20.2729C72.9235 24.7662 69.9713 49.7314 52.1183 50.1114Z" fill="#052A75"/>
</g>
<defs>
<clipPath id="clip0_698_1459">
<rect width="70" height="70" fill="white"/>
</clipPath>
</defs>
</svg>
