<svg width="106" height="215" viewBox="0 0 106 215" fill="none" xmlns="http://www.w3.org/2000/svg">
<path d="M213.059 119.224L189.753 104.1L185.604 0L106.872 50.3311L97.2939 56.4708L106.872 62.7175L138.031 82.941L106.878 198.872L103.385 211.846L106.878 214.76L110.37 211.846L201.721 135.494L189.031 130.602L213.059 119.224ZM179.104 97.1979L150.924 78.9163L176.407 29.242L179.104 97.1979ZM116.481 56.5422L167.447 23.934L142.176 73.2282L116.481 56.5422ZM119.94 190.268L147.188 88.8718L191.758 117.796L162.61 131.575L181.489 138.825L119.94 190.268Z" fill="#E8E8E8"/>
<path d="M75.7173 82.9392L106.867 62.7157L116.474 56.469L106.867 50.3293L28.1383 0L23.9878 104.101L0.717773 119.224L24.7492 130.602L12.0592 135.492L103.378 211.842L106.87 214.757L110.363 211.842L106.87 198.868L75.7173 82.9392ZM97.2937 56.5404L71.6024 73.2264L46.3256 23.934L97.2937 56.5404ZM37.3716 29.2331L62.853 78.9145L34.6728 97.1961L37.3716 29.2331ZM32.2889 138.819L51.1682 131.569L22.0166 117.796L66.589 88.8718L93.8352 190.259L32.2889 138.819Z" fill="#E8E8E8"/>
</svg>
