<svg width="30" height="30" viewBox="0 0 30 30" fill="none" xmlns="http://www.w3.org/2000/svg">
<g clip-path="url(#clip0_698_1471)">
<path d="M27.116 8.0143C27.1009 7.68231 27.0925 7.35696 27.0877 7.03527C27.0695 5.80888 26.1048 4.80814 24.8802 4.73973C21.1349 4.53056 18.2059 3.28476 15.7318 0.873281C15.3178 0.493818 14.6969 0.493818 14.2829 0.873281C11.8088 3.28476 8.87985 4.53056 5.13458 4.73973C3.91002 4.80814 2.94528 5.80894 2.92704 7.03527C2.92228 7.35691 2.91375 7.68231 2.89869 8.0143C2.71758 15.2494 2.65993 25.368 14.752 29.3863C14.9204 29.42 15.0938 29.4201 15.2622 29.3864C27.3208 25.3678 27.2965 15.2849 27.116 8.0143Z" fill="white"/>
<path d="M20.1923 27.0034C18.8712 27.8981 17.3024 28.6869 15.4395 29.3381C15.2195 29.4147 14.9808 29.4322 14.7524 29.3863H14.7519C2.65941 25.3669 2.71794 15.2505 2.89858 8.01443C2.91328 7.68209 2.92211 7.3568 2.92681 7.03504C2.94505 5.80918 3.90973 4.80803 5.13441 4.7398C6.76261 4.64862 8.23729 4.36157 9.58667 3.86746C4.52643 13.0111 10.1333 24.9283 20.1923 27.0034Z" fill="#D2DCFD"/>
<path d="M21.7393 15.0002C21.7393 18.7186 18.7248 21.733 15.0065 21.733C6.08518 21.4029 6.08759 8.59606 15.0065 8.26736C18.7248 8.26736 21.7393 11.2818 21.7393 15.0002Z" fill="#EE5E7F"/>
<path d="M21.2217 17.5954C20.2058 20.0253 17.8058 21.733 15.0077 21.733C8.21753 21.7015 5.78217 12.7901 11.4666 9.27322C8.98621 15.3173 15.6681 20.9926 21.2217 17.5954Z" fill="#EE5E7F"/>
<path d="M15.0067 30C14.8811 30 14.7552 29.9875 14.6307 29.962C3.78852 26.4313 1.84886 17.938 2.3095 8.0346C2.32062 7.71408 2.33426 7.3952 2.33826 7.02657C2.36091 5.50019 3.57453 4.23774 5.10114 4.15245C8.70748 3.95146 11.4983 2.77036 13.8848 0.439766C14.5284 -0.151221 15.5047 -0.145927 16.1418 0.452119C18.5257 2.7756 21.3126 3.9514 24.9124 4.15245C26.439 4.23774 27.6526 5.50019 27.6752 7.02657C27.9391 13.045 27.8119 20.9795 22.7502 25.6797C20.925 27.4624 18.5304 28.88 15.6331 29.8932C15.4337 29.9628 15.2175 30.0005 15.0067 30ZM14.8688 28.8099C26.6371 25.3474 26.7357 15.0077 26.5274 8.03325C26.5135 7.72608 26.5042 7.40244 26.4989 7.04409C26.4853 6.13229 25.7596 5.37813 24.8467 5.32713C21.0634 5.1092 18.0093 3.90269 15.3283 1.3021C15.1408 1.13493 14.8726 1.13493 14.6851 1.30216C12.0037 3.90299 8.95041 5.10902 5.16679 5.32713C4.25387 5.37813 3.52812 6.13229 3.51465 7.04409C3.50935 7.40167 3.5 7.72537 3.48612 8.03331C3.32842 15.0903 3.2146 24.8575 14.8688 28.8099Z" fill="#EE5E7F"/>
<path d="M13.6542 18.0342C13.1403 18.0395 12.8665 17.3962 13.2383 17.03L17.4181 12.8501C17.6478 12.6205 18.0203 12.6205 18.25 12.8501C18.4797 13.0799 18.4797 13.4523 18.25 13.6821L14.0702 17.862C13.9553 17.9767 13.8047 18.0342 13.6542 18.0342Z" fill="white"/>
<path d="M13.6551 18.0342C13.5045 18.0342 13.3541 17.9767 13.2392 17.8619L11.6419 16.2645C11.1115 15.6937 11.9017 14.9019 12.4739 15.4327L14.0711 17.03C14.4423 17.3953 14.1698 18.0399 13.6551 18.0342Z" fill="white"/>
</g>
<defs>
<clipPath id="clip0_698_1471">
<rect width="30" height="30" fill="white"/>
</clipPath>
</defs>
</svg>
