<svg width="70" height="70" viewBox="0 0 70 70" fill="none" xmlns="http://www.w3.org/2000/svg">
<path d="M59.9375 0.820312H19.7285C15.0391 0.820312 11.2246 4.62109 11.2246 9.32422V34.3711C11.2246 39.0605 15.0254 42.875 19.7285 42.875H59.9512C64.6406 42.875 68.4551 39.0742 68.4551 34.3711V9.32422C68.4414 4.62109 64.6406 0.820312 59.9375 0.820312Z" fill="#F27B6B"/>
<path d="M50.2715 18.3066H10.0625C5.37305 18.3066 1.55859 22.1074 1.55859 26.8105V51.8574C1.55859 56.5469 5.35937 60.3613 10.0625 60.3613H50.2852C54.9746 60.3613 58.7891 56.5605 58.7891 51.8574V26.8105C58.7754 22.1211 54.9746 18.3066 50.2715 18.3066Z" fill="#F2C53F"/>
<path d="M49.0957 54.0723L51.1055 69.1797L38.7324 60.1973L49.0957 54.0723Z" fill="#F2C53F"/>
<path d="M17.6104 42.793C17.6104 42.2324 17.419 41.7949 17.0362 41.4531C16.6533 41.1113 15.9697 40.7969 14.999 40.4961C13.3311 39.9902 12.0733 39.4023 11.1983 38.7188C10.3369 38.0352 9.89944 37.1055 9.89944 35.9297C9.89944 34.7402 10.3916 33.7832 11.3623 33.0313C12.333 32.2793 13.5772 31.9102 15.0811 31.9102C16.6807 31.9102 17.9658 32.3203 18.9502 33.127C19.9209 33.9336 20.3994 34.9863 20.3584 36.2988L20.3448 36.3535H17.542C17.542 35.6289 17.3233 35.082 16.8858 34.6855C16.4483 34.3027 15.833 34.1113 15.0537 34.1113C14.3428 34.1113 13.7823 34.2891 13.3994 34.6309C13.003 34.9727 12.8115 35.4102 12.8115 35.9434C12.8115 36.4355 13.0166 36.832 13.4405 37.1465C13.8643 37.4609 14.5889 37.7891 15.628 38.1445C17.2139 38.5957 18.4307 39.1836 19.2647 39.9082C20.0987 40.6328 20.5088 41.5898 20.5088 42.7656C20.5088 43.9961 20.0303 44.9805 19.0596 45.6914C18.0889 46.4023 16.8174 46.7578 15.2315 46.7578C13.6729 46.7578 12.3467 46.375 11.2256 45.5957C10.1045 44.8164 9.57131 43.668 9.59866 42.1367L9.61233 42.082H12.4151C12.4151 42.9297 12.6612 43.5586 13.167 43.9688C13.6729 44.3789 14.3565 44.5703 15.2041 44.5703C15.9834 44.5703 16.5713 44.4062 16.9815 44.0781C17.4053 43.7637 17.6104 43.3398 17.6104 42.793Z" fill="white"/>
<path d="M30.1074 42.7656H30.1621L33.8672 32.1152H37.6406V46.5527H34.7422V36.6953L34.6875 36.6816L31.1191 46.5527H29.1504L25.582 36.668L25.5273 36.6816V46.5664H22.6289V32.1152H26.4297L30.1074 42.7656Z" fill="white"/>
<path d="M47.8389 42.793C47.8389 42.2324 47.6475 41.7949 47.2647 41.4531C46.8819 41.1113 46.1983 40.7969 45.2276 40.4961C43.5596 39.9902 42.3018 39.4023 41.4268 38.7188C40.5655 38.0352 40.128 37.1055 40.128 35.9297C40.128 34.7402 40.6201 33.7832 41.5908 33.0313C42.5616 32.2793 43.8057 31.9102 45.3096 31.9102C46.9092 31.9102 48.1944 32.3203 49.1787 33.127C50.1494 33.9336 50.628 34.9863 50.5869 36.2988L50.5733 36.3535H47.7705C47.7705 35.6289 47.5518 35.082 47.1143 34.6855C46.6768 34.3027 46.0616 34.1113 45.2823 34.1113C44.5713 34.1113 44.0108 34.2891 43.628 34.6309C43.2315 34.9727 43.0401 35.4102 43.0401 35.9434C43.0401 36.4355 43.2451 36.832 43.669 37.1465C44.0928 37.4609 44.8174 37.7891 45.8565 38.1445C47.4424 38.5957 48.6592 39.1836 49.4932 39.9082C50.3272 40.6328 50.7373 41.5898 50.7373 42.7656C50.7373 43.9961 50.2588 44.9805 49.2881 45.6914C48.3174 46.4023 47.0459 46.7578 45.46 46.7578C43.9014 46.7578 42.5752 46.375 41.4541 45.5957C40.333 44.8164 39.7998 43.668 39.8272 42.1367L39.8408 42.082H42.6573C42.6573 42.9297 42.9033 43.5586 43.4092 43.9688C43.9151 44.3789 44.5987 44.5703 45.4463 44.5703C46.2256 44.5703 46.8135 44.4062 47.2237 44.0781C47.6338 43.7637 47.8389 43.3398 47.8389 42.793Z" fill="white"/>
</svg>
