<svg width="1397" height="662" viewBox="0 0 1397 662" fill="none" xmlns="http://www.w3.org/2000/svg">
<rect x="170.945" y="444.912" width="72.4538" height="72.4538" rx="22.6418" fill="white"/>
<rect x="193.587" y="467.554" width="26.0381" height="26.0381" rx="11.3209" fill="#C4C4C4"/>
<rect x="699.632" y="295.476" width="72.4538" height="72.4538" rx="22.6418" fill="white"/>
<rect x="722.273" y="318.117" width="26.0381" height="26.0381" rx="11.3209" fill="#C4C4C4"/>
<g filter="url(#filter0_d_264_852)">
<path d="M30 396.232C84.3404 435.855 210.908 510.573 282.456 492.46C371.891 469.818 393.967 353.213 532.082 326.043C670.197 298.872 771.52 393.402 878.502 256.985C985.485 120.568 1037.56 31.1329 1181.34 50.3784" stroke="#F57059" stroke-width="5.66046" stroke-linecap="round" stroke-linejoin="round"/>
</g>
<path opacity="0.05" d="M385.11 477.696L387.881 462.915H427.142L398.043 626.195H381.877L407.974 477.696H385.11Z" fill="black"/>
<path opacity="0.05" d="M894.396 464.057C926.575 442.964 951.902 424.026 970.378 407.244C988.854 390.308 999.477 373.911 1002.25 358.052C1002.86 354.049 1003.17 351.047 1003.17 349.045C1003.17 341.347 1000.86 335.189 996.244 330.57C991.779 325.951 984.466 323.641 974.304 323.641C962.603 323.641 952.903 327.336 945.205 334.727C937.506 341.963 932.272 351.586 929.5 363.595H913.796C917.645 346.505 925.189 333.264 936.429 323.872C947.822 314.48 961.294 309.784 976.844 309.784C989.931 309.784 1000.25 313.018 1007.79 319.484C1015.49 325.797 1019.34 334.881 1019.34 346.736C1019.34 350.585 1019.03 354.126 1018.41 357.359C1015.18 375.681 1004.33 393.541 985.851 410.939C967.376 428.183 945.359 445.196 919.801 461.978H1005.02L1002.71 475.604H892.318L894.396 464.057Z" fill="black"/>
<path opacity="0.05" d="M1284.5 72.6745C1288.19 58.6638 1295.58 47.6553 1306.67 39.6492C1317.91 31.489 1331.3 27.409 1346.85 27.409C1360.4 27.409 1370.79 30.5653 1378.03 36.8778C1385.27 43.1903 1388.89 51.4274 1388.89 61.5891C1388.89 64.2065 1388.65 66.9009 1388.19 69.6722C1386.5 79.372 1382.19 87.763 1375.26 94.8454C1368.49 101.928 1359.71 106.316 1348.93 108.009L1348.7 109.164C1357.78 111.012 1364.87 114.861 1369.95 120.711C1375.18 126.408 1377.8 133.875 1377.8 143.113C1377.8 144.807 1377.49 147.809 1376.88 152.12C1374.41 165.361 1368.02 176.216 1357.71 184.684C1347.39 192.998 1333.92 197.155 1317.29 197.155C1302.05 197.155 1290.04 193.46 1281.26 186.069C1272.64 178.525 1268.33 167.748 1268.33 153.737C1268.33 151.581 1268.41 149.965 1268.56 148.887H1284.27C1283.81 159.049 1286.58 167.363 1292.58 173.829C1298.74 180.296 1307.67 183.529 1319.37 183.529C1331.23 183.529 1340.77 180.527 1348.01 174.522C1355.4 168.363 1359.94 160.434 1361.63 150.734C1362.1 148.117 1362.33 145.731 1362.33 143.575C1362.33 124.945 1347.24 115.631 1317.06 115.631H1312.21L1314.75 102.005H1319.83C1351.24 102.005 1368.79 91.7661 1372.49 71.2888C1372.8 69.9032 1372.95 67.9016 1372.95 65.2842C1372.95 57.8939 1370.49 52.1203 1365.56 47.9632C1360.63 43.6522 1353.4 41.4967 1343.85 41.4967C1333.54 41.4967 1324.45 44.2681 1316.6 49.8108C1308.75 55.1996 1303.28 62.8208 1300.2 72.6745H1284.5Z" fill="black"/>
<rect x="1080.01" y="14.717" width="72.4538" height="72.4538" rx="22.6418" fill="white"/>
<rect x="1102.66" y="37.3591" width="26.0381" height="26.0381" rx="11.3209" fill="#C4C4C4"/>
<defs>
<filter id="filter0_d_264_852" x="-0.000751495" y="44.948" width="1211.34" height="507.466" filterUnits="userSpaceOnUse" color-interpolation-filters="sRGB">
<feFlood flood-opacity="0" result="BackgroundImageFix"/>
<feColorMatrix in="SourceAlpha" type="matrix" values="0 0 0 0 0 0 0 0 0 0 0 0 0 0 0 0 0 0 127 0" result="hardAlpha"/>
<feOffset dy="27.1702"/>
<feGaussianBlur stdDeviation="13.5851"/>
<feComposite in2="hardAlpha" operator="out"/>
<feColorMatrix type="matrix" values="0 0 0 0 0.215686 0 0 0 0 0.203922 0 0 0 0 0.662745 0 0 0 0.3 0"/>
<feBlend mode="normal" in2="BackgroundImageFix" result="effect1_dropShadow_264_852"/>
<feBlend mode="normal" in="SourceGraphic" in2="effect1_dropShadow_264_852" result="shape"/>
</filter>
</defs>
</svg>
