<svg width="40" height="41" viewBox="0 0 40 41" fill="none" xmlns="http://www.w3.org/2000/svg">
<path d="M23.4718 18.5692C23.4718 18.5692 28.4236 15.0033 28.0898 8.51635C28.0898 8.51635 29.7589 7.05093 30 6.40615C30 6.40615 28.5719 7.03138 27.8857 6.95323C27.8857 6.95323 29.5178 5.70272 29.4251 4.68671C29.4251 4.68671 27.8301 5.62456 27.0512 5.70271C27.0512 5.70271 24.1209 3.10404 21.4132 5.5464C21.4132 5.5464 20.0779 6.67966 20.3376 9.49329C20.3376 9.49329 16.2604 9.49329 12.3628 5.23378C12.3628 5.23378 10.8049 8.63359 13.5497 10.6461C13.5497 10.6461 12.6781 10.861 11.7878 10.0795C11.7878 10.0795 11.7322 13.362 14.9406 14.2413C14.9406 14.2413 13.9763 14.5343 13.2344 14.339C13.2344 14.339 13.8835 16.9767 16.7952 17.1135C16.7952 17.1135 14.9592 19.2237 11.25 18.8329C11.25 18.8329 16.1554 23.3171 23.4718 18.5692Z" fill="black"/>
</svg>
