<svg width="38" height="38" viewBox="0 0 38 38" fill="none" xmlns="http://www.w3.org/2000/svg">
<g clip-path="url(#clip0_587_3017)">
<path d="M37.5104 30.162L21.9234 4.31225C21.3093 3.2939 20.1892 2.66125 19 2.66125C17.8107 2.66125 16.6906 3.2939 16.0764 4.31233L0.489505 30.162C-0.145139 31.2146 -0.163916 32.5333 0.440447 33.6036C1.04496 34.6738 2.18392 35.3387 3.41298 35.3387H34.5869C35.816 35.3387 36.955 34.6738 37.5595 33.6035C38.1639 32.5332 38.1451 31.2145 37.5104 30.162ZM35.4053 32.387C35.2389 32.6816 34.9253 32.8647 34.5869 32.8647H3.41298C3.07462 32.8647 2.76104 32.6816 2.59472 32.3871C2.42832 32.0924 2.43352 31.7293 2.60815 31.4396L18.1952 5.58985C18.3643 5.30953 18.6727 5.13534 19 5.13534C19.3273 5.13534 19.6357 5.30953 19.8048 5.58985L35.3917 31.4396C35.5665 31.7294 35.5717 32.0924 35.4053 32.387Z" fill="black"/>
<path d="M19.0115 12.8402C18.0704 12.8402 17.3359 13.3452 17.3359 14.2404C17.3359 16.9718 17.6572 20.8968 17.6572 23.6283C17.6573 24.3398 18.2771 24.6382 19.0116 24.6382C19.5624 24.6382 20.3428 24.3398 20.3428 23.6283C20.3428 20.8969 20.6641 16.9719 20.6641 14.2404C20.6641 13.3453 19.9067 12.8402 19.0115 12.8402Z" fill="black"/>
<path d="M19.035 26.2219C18.0251 26.2219 17.2676 27.0253 17.2676 27.9894C17.2676 28.9305 18.0251 29.7568 19.035 29.7568C19.9761 29.7568 20.7795 28.9305 20.7795 27.9894C20.7795 27.0253 19.976 26.2219 19.035 26.2219Z" fill="black"/>
</g>
<defs>
<clipPath id="clip0_587_3017">
<rect width="38" height="38" fill="white"/>
</clipPath>
</defs>
</svg>
