<svg width="14" height="12" viewBox="0 0 14 12" fill="none" xmlns="http://www.w3.org/2000/svg">
<path d="M7.89728 0.501281L13.8612 10.4962C13.9521 10.6486 14 10.8214 14 10.9974C14 11.1734 13.9521 11.3463 13.8612 11.4987C13.7703 11.6511 13.6395 11.7777 13.482 11.8657C13.3245 11.9537 13.1458 12 12.9639 12H1.03609C0.854219 12 0.675549 11.9537 0.518043 11.8657C0.360536 11.7777 0.229743 11.6511 0.138807 11.4987C0.0478717 11.3463 -1.1551e-06 11.1734 0 10.9974C1.15514e-06 10.8214 0.0478763 10.6486 0.138814 10.4962L6.10272 0.501281C6.50128 -0.167094 7.49803 -0.167094 7.89728 0.501281ZM7 8.42286C6.8168 8.42286 6.64111 8.49328 6.51157 8.61862C6.38203 8.74397 6.30925 8.91397 6.30925 9.09123C6.30925 9.2685 6.38203 9.4385 6.51157 9.56385C6.64111 9.68919 6.8168 9.75961 7 9.75961C7.1832 9.75961 7.35889 9.68919 7.48843 9.56385C7.61797 9.4385 7.69075 9.2685 7.69075 9.09123C7.69075 8.91397 7.61797 8.74397 7.48843 8.61862C7.35889 8.49328 7.1832 8.42286 7 8.42286ZM7 3.74424C6.83081 3.74426 6.66752 3.80436 6.54109 3.91314C6.41466 4.02193 6.33388 4.17183 6.31409 4.33441L6.30925 4.41261V7.08611C6.30945 7.25646 6.37686 7.42032 6.49772 7.54419C6.61858 7.66807 6.78376 7.74261 6.95952 7.75259C7.13527 7.76258 7.30833 7.70725 7.44334 7.59791C7.57835 7.48857 7.66512 7.33347 7.68591 7.16431L7.69075 7.08611V4.41261C7.69075 4.23535 7.61797 4.06534 7.48843 3.94C7.35889 3.81465 7.1832 3.74424 7 3.74424Z" fill="#0A1731"/>
</svg>
